<svg xmlns="http://www.w3.org/2000/svg" xmlns:xlink="http://www.w3.org/1999/xlink" width="1559" height="1042" viewBox="0 0 1559 1042">
  <defs>
    <filter id="사각형_4429" x="3.5" y="0" width="1553" height="553" filterUnits="userSpaceOnUse">
      <feOffset dx="1" dy="1" input="SourceAlpha"/>
      <feGaussianBlur stdDeviation="0.5" result="blur"/>
      <feFlood flood-opacity="0.161"/>
      <feComposite operator="in" in2="blur"/>
      <feComposite in="SourceGraphic"/>
    </filter>
    <linearGradient id="linear-gradient" x1="0.83" y1="1" x2="0.165" gradientUnits="objectBoundingBox">
      <stop offset="0" stop-color="#eed1a7"/>
      <stop offset="1" stop-color="#c6c6db"/>
    </linearGradient>
    <filter id="사각형_4523" x="3.5" y="0" width="1553" height="553" filterUnits="userSpaceOnUse">
      <feOffset dx="1" dy="1" input="SourceAlpha"/>
      <feGaussianBlur stdDeviation="0.5" result="blur-2"/>
      <feFlood flood-opacity="0.161"/>
      <feComposite operator="in" in2="blur-2"/>
      <feComposite in="SourceGraphic"/>
    </filter>
    <clipPath id="clip-path">
      <g transform="matrix(1, 0, 0, 1, 0, 0)" filter="url(#사각형_4429)">
        <rect id="사각형_4429-2" data-name="사각형 4429" width="1550" height="550" rx="8" transform="translate(322 121)" fill="#fff"/>
      </g>
    </clipPath>
    <clipPath id="clip-path-2">
      <rect id="사각형_4397" data-name="사각형 4397" width="37.998" height="37.784" transform="translate(0 0)" fill="#333"/>
    </clipPath>
    <clipPath id="clip-path-3">
      <rect id="사각형_4398" data-name="사각형 4398" width="34.002" height="38.001" transform="translate(0 0)" fill="#333"/>
    </clipPath>
    <clipPath id="clip-path-4">
      <rect id="사각형_4399" data-name="사각형 4399" width="41.773" height="41.936" transform="translate(0 0)" fill="#333"/>
    </clipPath>
    <clipPath id="clip-path-5">
      <rect id="사각형_4400" data-name="사각형 4400" width="42.02" height="42.009" transform="translate(0 0)" fill="#333"/>
    </clipPath>
    <clipPath id="clip-path-6">
      <rect id="사각형_4401" data-name="사각형 4401" width="36.642" height="41.999" transform="translate(0 0)" fill="#333"/>
    </clipPath>
    <clipPath id="clip-path-7">
      <rect id="사각형_4402" data-name="사각형 4402" width="42" height="42" fill="#333"/>
    </clipPath>
    <filter id="bg-card" x="0" y="645.5" width="250" height="332" filterUnits="userSpaceOnUse">
      <feOffset dx="2" dy="2" input="SourceAlpha"/>
      <feGaussianBlur stdDeviation="2" result="blur-3"/>
      <feFlood flood-opacity="0.161"/>
      <feComposite operator="in" in2="blur-3"/>
      <feComposite in="SourceGraphic"/>
    </filter>
    <filter id="bg-card-2" x="786" y="645.5" width="773" height="330" filterUnits="userSpaceOnUse">
      <feOffset dx="2" dy="2" input="SourceAlpha"/>
      <feGaussianBlur stdDeviation="2" result="blur-4"/>
      <feFlood flood-opacity="0.161"/>
      <feComposite operator="in" in2="blur-4"/>
      <feComposite in="SourceGraphic"/>
    </filter>
    <clipPath id="clip-path-8">
      <rect id="사각형_73" data-name="사각형 73" width="206" height="118.972" fill="none"/>
    </clipPath>
    <filter id="타원_39" x="381.5" y="803" width="19" height="19" filterUnits="userSpaceOnUse">
      <feOffset dx="1" dy="1" input="SourceAlpha"/>
      <feGaussianBlur stdDeviation="0.5" result="blur-5"/>
      <feFlood flood-opacity="0.322"/>
      <feComposite operator="in" in2="blur-5"/>
      <feComposite in="SourceGraphic"/>
    </filter>
    <filter id="타원_40" x="521.5" y="803" width="19" height="19" filterUnits="userSpaceOnUse">
      <feOffset dx="1" dy="1" input="SourceAlpha"/>
      <feGaussianBlur stdDeviation="0.5" result="blur-6"/>
      <feFlood flood-opacity="0.322"/>
      <feComposite operator="in" in2="blur-6"/>
      <feComposite in="SourceGraphic"/>
    </filter>
    <filter id="타원_39-2" x="660.5" y="803" width="19" height="19" filterUnits="userSpaceOnUse">
      <feOffset dx="1" dy="1" input="SourceAlpha"/>
      <feGaussianBlur stdDeviation="0.5" result="blur-7"/>
      <feFlood flood-opacity="0.322"/>
      <feComposite operator="in" in2="blur-7"/>
      <feComposite in="SourceGraphic"/>
    </filter>
    <filter id="타원_41" x="300.5" y="903" width="19" height="19" filterUnits="userSpaceOnUse">
      <feOffset dx="1" dy="1" input="SourceAlpha"/>
      <feGaussianBlur stdDeviation="0.5" result="blur-8"/>
      <feFlood flood-opacity="0.322"/>
      <feComposite operator="in" in2="blur-8"/>
      <feComposite in="SourceGraphic"/>
    </filter>
    <filter id="타원_42" x="448.5" y="903" width="19" height="19" filterUnits="userSpaceOnUse">
      <feOffset dx="1" dy="1" input="SourceAlpha"/>
      <feGaussianBlur stdDeviation="0.5" result="blur-9"/>
      <feFlood flood-opacity="0.322"/>
      <feComposite operator="in" in2="blur-9"/>
      <feComposite in="SourceGraphic"/>
    </filter>
    <filter id="타원_39-3" x="726.5" y="903" width="19" height="19" filterUnits="userSpaceOnUse">
      <feOffset dx="1" dy="1" input="SourceAlpha"/>
      <feGaussianBlur stdDeviation="0.5" result="blur-10"/>
      <feFlood flood-opacity="0.322"/>
      <feComposite operator="in" in2="blur-10"/>
      <feComposite in="SourceGraphic"/>
    </filter>
    <filter id="타원_39-4" x="955.5" y="749.972" width="37.88" height="37.88" filterUnits="userSpaceOnUse">
      <feOffset dx="1" dy="1" input="SourceAlpha"/>
      <feGaussianBlur stdDeviation="0.5" result="blur-11"/>
      <feFlood flood-opacity="0.322"/>
      <feComposite operator="in" in2="blur-11"/>
      <feComposite in="SourceGraphic"/>
    </filter>
    <filter id="타원_40-2" x="1113.5" y="749.972" width="37.88" height="37.88" filterUnits="userSpaceOnUse">
      <feOffset dx="1" dy="1" input="SourceAlpha"/>
      <feGaussianBlur stdDeviation="0.5" result="blur-12"/>
      <feFlood flood-opacity="0.322"/>
      <feComposite operator="in" in2="blur-12"/>
      <feComposite in="SourceGraphic"/>
    </filter>
    <filter id="타원_41-2" x="1272.5" y="749.972" width="37.88" height="37.88" filterUnits="userSpaceOnUse">
      <feOffset dx="1" dy="1" input="SourceAlpha"/>
      <feGaussianBlur stdDeviation="0.5" result="blur-13"/>
      <feFlood flood-opacity="0.322"/>
      <feComposite operator="in" in2="blur-13"/>
      <feComposite in="SourceGraphic"/>
    </filter>
    <filter id="타원_42-2" x="1431.5" y="749.972" width="37.88" height="37.88" filterUnits="userSpaceOnUse">
      <feOffset dx="1" dy="1" input="SourceAlpha"/>
      <feGaussianBlur stdDeviation="0.5" result="blur-14"/>
      <feFlood flood-opacity="0.322"/>
      <feComposite operator="in" in2="blur-14"/>
      <feComposite in="SourceGraphic"/>
    </filter>
    <filter id="타원_39-5" x="955.5" y="856" width="37.88" height="37.88" filterUnits="userSpaceOnUse">
      <feOffset dx="1" dy="1" input="SourceAlpha"/>
      <feGaussianBlur stdDeviation="0.5" result="blur-15"/>
      <feFlood flood-opacity="0.322"/>
      <feComposite operator="in" in2="blur-15"/>
      <feComposite in="SourceGraphic"/>
    </filter>
    <filter id="타원_40-3" x="1113.5" y="855.972" width="37.88" height="37.88" filterUnits="userSpaceOnUse">
      <feOffset dx="1" dy="1" input="SourceAlpha"/>
      <feGaussianBlur stdDeviation="0.5" result="blur-16"/>
      <feFlood flood-opacity="0.322"/>
      <feComposite operator="in" in2="blur-16"/>
      <feComposite in="SourceGraphic"/>
    </filter>
    <filter id="타원_41-3" x="1272.5" y="855.972" width="37.88" height="37.88" filterUnits="userSpaceOnUse">
      <feOffset dx="1" dy="1" input="SourceAlpha"/>
      <feGaussianBlur stdDeviation="0.5" result="blur-17"/>
      <feFlood flood-opacity="0.322"/>
      <feComposite operator="in" in2="blur-17"/>
      <feComposite in="SourceGraphic"/>
    </filter>
    <filter id="타원_42-3" x="1431.5" y="855.972" width="37.88" height="37.88" filterUnits="userSpaceOnUse">
      <feOffset dx="1" dy="1" input="SourceAlpha"/>
      <feGaussianBlur stdDeviation="0.5" result="blur-18"/>
      <feFlood flood-opacity="0.322"/>
      <feComposite operator="in" in2="blur-18"/>
      <feComposite in="SourceGraphic"/>
    </filter>
  </defs>
  <g id="그룹_7390" data-name="그룹 7390" transform="translate(-318 -120.5)">
    <g transform="matrix(1, 0, 0, 1, 318, 120.5)" filter="url(#사각형_4523)">
      <rect id="사각형_4523-2" data-name="사각형 4523" width="1550" height="550" rx="8" transform="translate(4 0.5)" fill="url(#linear-gradient)"/>
    </g>
    <g id="main">
      <g id="main-bg" clip-path="url(#clip-path)">
        <g id="그룹_7391" data-name="그룹 7391">
          <path id="패스_22993" data-name="패스 22993" d="M120,0,0,62.847l120,62.847L240,62.847Z" transform="translate(624 442.561)" fill="#fff" opacity="0.2"/>
          <path id="패스_23001" data-name="패스 23001" d="M120,0,0,62.847l120,62.847L240,62.847Z" transform="translate(864 316.866)" fill="#fff" opacity="0.6"/>
          <path id="패스_22994" data-name="패스 22994" d="M120,0,0,62.847l120,62.847L240,62.847Z" transform="translate(864 442.561)" fill="#fff" opacity="0.4"/>
          <path id="패스_23012" data-name="패스 23012" d="M120,0,0,62.847l120,62.847L240,62.847Z" transform="translate(984 254.02)" fill="#fff" opacity="0.3"/>
          <path id="패스_23010" data-name="패스 23010" d="M120,0,0,62.847l120,62.847L240,62.847Z" transform="translate(1464 379.714)" fill="#fff" opacity="0.4"/>
          <path id="패스_23014" data-name="패스 23014" d="M120,0,0,62.847l120,62.847L240,62.847Z" transform="translate(1704 253)" fill="#fff" opacity="0.2"/>
          <path id="패스_23016" data-name="패스 23016" d="M120,0,0,62.847l120,62.847L240,62.847Z" transform="translate(1584 191.173)" fill="#fff" opacity="0.1"/>
          <path id="패스_23017" data-name="패스 23017" d="M120,0,0,62.847l120,62.847L240,62.847Z" transform="translate(1584 316.866)" fill="#fff" opacity="0.3"/>
          <path id="패스_23015" data-name="패스 23015" d="M120,0,0,62.847l120,62.847L240,62.847Z" transform="translate(1344 568.254)" fill="#fff" opacity="0.8"/>
          <path id="패스_23000" data-name="패스 23000" d="M120,0,0,62.847l120,62.847L240,62.847Z" transform="translate(1104 316.866)" fill="#fff" opacity="0.8"/>
          <path id="패스_23005" data-name="패스 23005" d="M120,0,0,62.847l120,62.847L240,62.847Z" transform="translate(1584 442.561)" fill="#fff" opacity="0.8"/>
          <path id="패스_23025" data-name="패스 23025" d="M120,0,0,62.847l120,62.847L240,62.847Z" transform="translate(1824 568.254)" fill="#fff" opacity="0.2"/>
          <path id="패스_23004" data-name="패스 23004" d="M120,0,0,62.847l120,62.847L240,62.847Z" transform="translate(984 505.407)" fill="#fff" opacity="0.8"/>
          <path id="패스_23008" data-name="패스 23008" d="M120,0,0,62.847l120,62.847L240,62.847Z" transform="translate(1464 505.407)" fill="#fff" opacity="0.4"/>
          <path id="패스_22997" data-name="패스 22997" d="M120,0,0,62.847l120,62.847L240,62.847Z" transform="translate(1224 379.714)" fill="#fff" opacity="0.6"/>
          <path id="패스_23013" data-name="패스 23013" d="M120,0,0,62.847l120,62.847L240,62.847Z" transform="translate(1224 254.02)" fill="#fff" opacity="0.4"/>
        </g>
      </g>
      <g id="main-objects">
        <g id="main-Topology" transform="translate(569.455 -104.654)">
          <path id="Shadow" d="M115.495,111.483c0,11.191-25.857,20.262-57.751,20.262S0,122.674,0,111.483,25.854,91.225,57.744,91.225s57.751,9.071,57.751,20.258" transform="translate(363.545 372.265)" fill="rgba(0,0,0,0.16)"/>
          <g id="그룹_7237" data-name="그룹 7237">
            <path id="패스_22859" data-name="패스 22859" d="M0,97.1v82.726C0,189.7,22.813,197.7,50.952,197.7s50.958-8,50.958-17.875V97.1Z" transform="translate(363.545 301.512)" fill="#666"/>
            <path id="패스_22860" data-name="패스 22860" d="M101.909,109.1c0,9.875-22.816,17.878-50.958,17.878S0,118.975,0,109.1,22.813,91.225,50.952,91.225s50.958,8,50.958,17.875" transform="translate(363.545 289.513)" fill="#999"/>
            <path id="패스_22867" data-name="패스 22867" d="M92.425,99.99a45.28,45.28,0,1,0-90.56,0c0,25.006,45.281,81.734,45.281,81.734S92.425,125,92.425,99.99" transform="translate(367.354 214.945)" fill="#666"/>
          </g>
          <path id="StateColor" d="M70.527,91.2a32.178,32.178,0,1,0-32.176,32.176A32.179,32.179,0,0,0,70.527,91.2" transform="translate(375.828 223.984)" fill="#ed7471"/>
          <g id="ic-Topology" transform="translate(395 296)">
            <g id="그룹_7177" data-name="그룹 7177" clip-path="url(#clip-path-2)">
              <path id="패스_22941" data-name="패스 22941" d="M22.6,16.4H15.4a4.6,4.6,0,0,1-4.6-4.6V4.6A4.6,4.6,0,0,1,15.4,0h7.2a4.605,4.605,0,0,1,4.6,4.6v7.2a4.605,4.605,0,0,1-4.6,4.6M15.4,2a2.6,2.6,0,0,0-2.6,2.6v7.2a2.6,2.6,0,0,0,2.6,2.6h7.2a2.6,2.6,0,0,0,2.6-2.6V4.6A2.6,2.6,0,0,0,22.6,2Z" fill="#333"/>
              <path id="패스_22942" data-name="패스 22942" d="M35.2,37.784H29.8a2.8,2.8,0,0,1-2.8-2.8v-5.4a2.8,2.8,0,0,1,2.8-2.8h5.4a2.8,2.8,0,0,1,2.8,2.8v5.4a2.8,2.8,0,0,1-2.8,2.8m-5.4-9a.8.8,0,0,0-.8.8v5.4a.8.8,0,0,0,.8.8h5.4a.8.8,0,0,0,.8-.8v-5.4a.8.8,0,0,0-.8-.8Z" fill="#333"/>
              <path id="패스_22943" data-name="패스 22943" d="M8.2,37.784H2.8a2.8,2.8,0,0,1-2.8-2.8v-5.4a2.8,2.8,0,0,1,2.8-2.8H8.2a2.8,2.8,0,0,1,2.8,2.8v5.4a2.8,2.8,0,0,1-2.8,2.8m-5.4-9a.8.8,0,0,0-.8.8v5.4a.8.8,0,0,0,.8.8H8.2a.8.8,0,0,0,.8-.8v-5.4a.8.8,0,0,0-.8-.8Z" fill="#333"/>
              <path id="패스_22944" data-name="패스 22944" d="M21.7,37.784H16.3a2.8,2.8,0,0,1-2.8-2.8v-5.4a2.8,2.8,0,0,1,2.8-2.8h5.4a2.8,2.8,0,0,1,2.8,2.8v5.4a2.8,2.8,0,0,1-2.8,2.8m-5.4-9a.8.8,0,0,0-.8.8v5.4a.8.8,0,0,0,.8.8h5.4a.8.8,0,0,0,.8-.8v-5.4a.8.8,0,0,0-.8-.8Z" fill="#333"/>
              <path id="패스_22945" data-name="패스 22945" d="M32.5,28.243a1,1,0,0,1-1-1V22.589H6.5v4.654a1,1,0,0,1-2,0V21.589a1,1,0,0,1,1-1h27a1,1,0,0,1,1,1v5.654a1,1,0,0,1-1,1" fill="#333"/>
              <path id="패스_22946" data-name="패스 22946" d="M19,28.78a1,1,0,0,1-1-1V15.4a1,1,0,1,1,2,0V27.78a1,1,0,0,1-1,1" fill="#333"/>
            </g>
          </g>
        </g>
        <g id="main-Governance" transform="translate(555.5 83.887)">
          <path id="Shadow-2" data-name="Shadow" d="M115.495,111.483c0,11.191-25.857,20.262-57.751,20.262S0,122.674,0,111.483,25.854,91.225,57.744,91.225s57.751,9.071,57.751,20.258" transform="translate(497.545 372.469)" fill="rgba(0,0,0,0.16)"/>
          <g id="그룹_7238" data-name="그룹 7238">
            <path id="패스_22973" data-name="패스 22973" d="M0,97.1v82.726C0,189.7,22.813,197.7,50.952,197.7s50.958-8,50.958-17.875V97.1Z" transform="translate(497.545 301.512)" fill="#555"/>
            <path id="패스_22974" data-name="패스 22974" d="M101.909,109.1c0,9.875-22.816,17.878-50.958,17.878S0,118.975,0,109.1,22.813,91.225,50.952,91.225s50.958,8,50.958,17.875" transform="translate(497.545 289.513)" fill="#999"/>
            <path id="패스_22975" data-name="패스 22975" d="M92.425,99.99a45.28,45.28,0,1,0-90.56,0c0,25.006,45.281,81.734,45.281,81.734S92.425,125,92.425,99.99" transform="translate(501.354 214.945)" fill="#555"/>
          </g>
          <path id="StateColor-2" data-name="StateColor" d="M70.527,91.2a32.178,32.178,0,1,0-32.176,32.176A32.179,32.179,0,0,0,70.527,91.2" transform="translate(509.828 223.984)" fill="#dbe961"/>
          <g id="ic-Governance" transform="translate(531 296)">
            <g id="그룹_7179" data-name="그룹 7179" clip-path="url(#clip-path-3)">
              <path id="패스_22947" data-name="패스 22947" d="M33,15.572H1a1,1,0,0,1-.647-1.763l16-13.572a1,1,0,0,1,1.294,0l16,13.572A1,1,0,0,1,33,15.572m-29.277-2H30.277L17,2.311Z" fill="#333"/>
              <path id="패스_22948" data-name="패스 22948" d="M33,19.572H1a1,1,0,0,1-1-1v-4a1,1,0,0,1,1-1H33a1,1,0,0,1,1,1v4a1,1,0,0,1-1,1m-31-2H32v-2H2Z" fill="#333"/>
              <path id="패스_22949" data-name="패스 22949" d="M33,38H1a1,1,0,0,1-1-1V33.276a1,1,0,0,1,1-1H33a1,1,0,0,1,1,1V37a1,1,0,0,1-1,1M2,36H32V34.276H2Z" fill="#333"/>
              <path id="패스_22950" data-name="패스 22950" d="M29,34.276H25a1,1,0,0,1-1-1v-14.7a1,1,0,0,1,1-1h4a1,1,0,0,1,1,1v14.7a1,1,0,0,1-1,1m-3-2h2v-12.7H26Z" fill="#333"/>
              <path id="패스_22951" data-name="패스 22951" d="M19,34.276H15a1,1,0,0,1-1-1v-14.7a1,1,0,0,1,1-1h4a1,1,0,0,1,1,1v14.7a1,1,0,0,1-1,1m-3-2h2v-12.7H16Z" fill="#333"/>
              <path id="패스_22952" data-name="패스 22952" d="M9,34.276H5a1,1,0,0,1-1-1v-14.7a1,1,0,0,1,1-1H9a1,1,0,0,1,1,1v14.7a1,1,0,0,1-1,1m-3-2H8v-12.7H6Z" fill="#333"/>
              <path id="패스_22953" data-name="패스 22953" d="M17,12a3,3,0,1,1,3-3,3,3,0,0,1-3,3m0-4a1,1,0,1,0,1,1,1,1,0,0,0-1-1" fill="#333"/>
            </g>
          </g>
        </g>
        <g id="main-NetworkPolicy" transform="translate(397.725 -224.654)">
          <path id="Shadow-3" data-name="Shadow" d="M115.495,111.483c0,11.191-25.857,20.262-57.751,20.262S0,122.674,0,111.483,25.854,91.225,57.744,91.225s57.751,9.071,57.751,20.258" transform="translate(775.527 492.469)" fill="rgba(0,0,0,0.16)"/>
          <g id="그룹_7239" data-name="그룹 7239">
            <path id="패스_22981" data-name="패스 22981" d="M0,97.1v82.726C0,189.7,22.813,197.7,50.952,197.7s50.958-8,50.958-17.875V97.1Z" transform="translate(775.32 421.512)" fill="#555"/>
            <path id="패스_22982" data-name="패스 22982" d="M101.909,109.1c0,9.875-22.816,17.878-50.958,17.878S0,118.975,0,109.1,22.813,91.225,50.952,91.225s50.958,8,50.958,17.875" transform="translate(775.32 409.513)" fill="#999"/>
            <path id="패스_22983" data-name="패스 22983" d="M92.425,99.99a45.28,45.28,0,1,0-90.56,0c0,25.006,45.281,81.734,45.281,81.734S92.425,125,92.425,99.99" transform="translate(779.129 334.945)" fill="#555"/>
          </g>
          <path id="StateColor-3" data-name="StateColor" d="M70.527,91.2a32.178,32.178,0,1,0-32.176,32.176A32.179,32.179,0,0,0,70.527,91.2" transform="translate(787.828 343.984)" fill="#fbf665"/>
          <g id="ic-NetworkPolicy" transform="translate(805 414)">
            <g id="그룹_7181" data-name="그룹 7181" clip-path="url(#clip-path-4)">
              <path id="패스_22954" data-name="패스 22954" d="M27.224,41.936H5a5.006,5.006,0,0,1-5-5V5A5.006,5.006,0,0,1,5,0H27.224a5.006,5.006,0,0,1,5,5V9.275a1,1,0,1,1-2,0V5a3,3,0,0,0-3-3H5A3,3,0,0,0,2,5V36.936a3,3,0,0,0,3,3H27.224a3,3,0,0,0,3-3V32.31a1,1,0,1,1,2,0v4.626a5.006,5.006,0,0,1-5,5" fill="#333"/>
              <path id="패스_22955" data-name="패스 22955" d="M14.986,7.905H6.893a1,1,0,0,1,0-2h8.093a1,1,0,0,1,0,2" fill="#333"/>
              <path id="패스_22956" data-name="패스 22956" d="M21.482,14.944H6.894a1,1,0,1,1,0-2H21.482a1,1,0,0,1,0,2" fill="#333"/>
              <path id="패스_22957" data-name="패스 22957" d="M21.542,21.982H6.894a1,1,0,0,1,0-2H21.542a1,1,0,0,1,0,2" fill="#333"/>
              <path id="패스_22958" data-name="패스 22958" d="M24.325,29.021H6.893a1,1,0,1,1,0-2H24.325a1,1,0,0,1,0,2" fill="#333"/>
              <path id="패스_22959" data-name="패스 22959" d="M15.323,36.061H6.894a1,1,0,0,1,0-2h8.429a1,1,0,1,1,0,2" fill="#333"/>
              <path id="패스_22960" data-name="패스 22960" d="M31.224,33.309a1.006,1.006,0,0,1-.529-.151l-4.024-2.511a12.665,12.665,0,0,1-6-10.809V12.423a1,1,0,0,1,.687-.949l9.55-3.149a.972.972,0,0,1,.626,0l9.549,3.149a1,1,0,0,1,.687.949v7.415a12.666,12.666,0,0,1-6,10.809l-4.024,2.511a1.009,1.009,0,0,1-.529.151m-8.55-20.162v6.691a10.676,10.676,0,0,0,5.055,9.112l3.5,2.18,3.494-2.18a10.676,10.676,0,0,0,5.055-9.112V13.147l-8.549-2.82Z" fill="#333"/>
              <path id="패스_22961" data-name="패스 22961" d="M31.224,27.989a1,1,0,0,1-.529-.152l-2.165-1.35a7.272,7.272,0,0,1-3.443-6.207V16.29a1,1,0,0,1,.687-.95l5.137-1.693a1,1,0,0,1,.626,0l5.137,1.693a1,1,0,0,1,.687.95v3.99a7.272,7.272,0,0,1-3.443,6.207l-2.164,1.35a1,1,0,0,1-.53.152M27.087,17.014V20.28a5.281,5.281,0,0,0,2.5,4.509l1.635,1.021,1.635-1.021a5.281,5.281,0,0,0,2.5-4.509V17.014L31.224,15.65Z" fill="#333"/>
            </g>
          </g>
        </g>
        <g id="main-NetworkFlow" transform="translate(275.269 -180.153)">
          <path id="Shadow-4" data-name="Shadow" d="M115.495,111.483c0,11.191-25.857,20.262-57.751,20.262S0,122.674,0,111.483,25.854,91.225,57.744,91.225s57.751,9.071,57.751,20.258" transform="translate(1017.731 510.816)" fill="rgba(0,0,0,0.16)"/>
          <g id="그룹_7240" data-name="그룹 7240">
            <path id="패스_22989" data-name="패스 22989" d="M0,97.1v82.726C0,189.7,22.813,197.7,50.952,197.7s50.958-8,50.958-17.875V97.1Z" transform="translate(1017.731 439.858)" fill="#666"/>
            <path id="패스_22990" data-name="패스 22990" d="M101.909,109.1c0,9.875-22.816,17.878-50.958,17.878S0,118.975,0,109.1,22.813,91.225,50.952,91.225s50.958,8,50.958,17.875" transform="translate(1017.731 427.859)" fill="#999"/>
            <path id="패스_22991" data-name="패스 22991" d="M92.425,99.99a45.28,45.28,0,1,0-90.56,0c0,25.006,45.281,81.734,45.281,81.734S92.425,125,92.425,99.99" transform="translate(1021.539 353.291)" fill="#666"/>
          </g>
          <path id="StateColor-4" data-name="StateColor" d="M70.527,91.2a32.178,32.178,0,1,0-32.176,32.176A32.179,32.179,0,0,0,70.527,91.2" transform="translate(1029.828 361.984)" fill="#7db797"/>
          <g id="ic-NetworkFlow" transform="translate(1048 433)">
            <g id="그룹_7183" data-name="그룹 7183" clip-path="url(#clip-path-5)">
              <path id="패스_22962" data-name="패스 22962" d="M34,22.038H27.055a1,1,0,0,1,0-2H34A6.017,6.017,0,0,0,34,8.005H13.01a1,1,0,0,1,0-2H34a8.017,8.017,0,0,1,0,16.033" fill="#333"/>
              <path id="패스_22963" data-name="패스 22963" d="M29,36H8.063a7.982,7.982,0,1,1,0-15.965h6.982a1,1,0,0,1,0,2H8.063A5.982,5.982,0,1,0,8.063,34H29a1,1,0,0,1,0,2" fill="#333"/>
              <path id="패스_22964" data-name="패스 22964" d="M7.006,14.011a7.005,7.005,0,1,1,7-7.006,7.014,7.014,0,0,1-7,7.006M7.006,2a5.005,5.005,0,1,0,5,5.005A5.011,5.011,0,0,0,7.006,2" fill="#333"/>
              <path id="패스_22965" data-name="패스 22965" d="M21.05,28.014a7.005,7.005,0,1,1,7.005-7,7.014,7.014,0,0,1-7.005,7M21.05,16a5.005,5.005,0,1,0,5.005,5.006A5.011,5.011,0,0,0,21.05,16" fill="#333"/>
              <path id="패스_22966" data-name="패스 22966" d="M35,42.009a7.005,7.005,0,1,1,7-7.006,7.014,7.014,0,0,1-7,7.006M35,30a5.005,5.005,0,1,0,5,5,5.01,5.01,0,0,0-5-5" fill="#333"/>
            </g>
          </g>
        </g>
        <g id="main-Resources" transform="translate(513.725 146.734)">
          <path id="Shadow-5" data-name="Shadow" d="M115.495,111.483c0,11.191-25.857,20.262-57.751,20.262S0,122.674,0,111.483,25.854,91.225,57.744,91.225s57.751,9.071,57.751,20.258" transform="translate(899.32 372.469)" fill="rgba(0,0,0,0.16)"/>
          <g id="그룹_7241" data-name="그룹 7241">
            <path id="패스_22985" data-name="패스 22985" d="M0,97.1v82.726C0,189.7,22.813,197.7,50.952,197.7s50.958-8,50.958-17.875V97.1Z" transform="translate(899.32 301.512)" fill="#555"/>
            <path id="패스_22986" data-name="패스 22986" d="M101.909,109.1c0,9.875-22.816,17.878-50.958,17.878S0,118.975,0,109.1,22.813,91.225,50.952,91.225s50.958,8,50.958,17.875" transform="translate(899.32 289.513)" fill="#999"/>
            <path id="패스_22987" data-name="패스 22987" d="M92.425,99.99a45.28,45.28,0,1,0-90.56,0c0,25.006,45.281,81.734,45.281,81.734S92.425,125,92.425,99.99" transform="translate(903.129 214.945)" fill="#555"/>
          </g>
          <path id="StateColor-5" data-name="StateColor" d="M70.527,91.2a32.178,32.178,0,1,0-32.176,32.176A32.179,32.179,0,0,0,70.527,91.2" transform="translate(911.828 223.984)" fill="#ed7471"/>
          <g id="ic-Resources" transform="translate(932 294)">
            <g id="그룹_7185" data-name="그룹 7185" clip-path="url(#clip-path-6)">
              <path id="패스_22967" data-name="패스 22967" d="M18.32,42a1,1,0,0,1-.5-.134L.5,31.865A1,1,0,0,1,0,31V11a1,1,0,0,1,.5-.866l17.32-10a1,1,0,0,1,1,0l17.321,10a1,1,0,0,1,.5.866V31a1,1,0,0,1-.5.866l-17.321,10a1,1,0,0,1-.5.134M2,30.422l16.32,9.423,16.321-9.423V11.576L18.32,2.153,2,11.576ZM35.641,31h0Z" fill="#333"/>
              <path id="패스_22968" data-name="패스 22968" d="M18.32,22a1,1,0,0,1-.5-.134L.5,11.865a1,1,0,1,1,1-1.732l17.32,10A1,1,0,0,1,18.32,22" fill="#333"/>
              <path id="패스_22969" data-name="패스 22969" d="M18.321,42a1,1,0,0,1-1-1V21a1,1,0,0,1,2,0V41a1,1,0,0,1-1,1" fill="#333"/>
              <path id="패스_22970" data-name="패스 22970" d="M18.322,22a1,1,0,0,1-.5-1.866l17.321-10a1,1,0,1,1,1,1.732l-17.321,10a.994.994,0,0,1-.5.134" fill="#333"/>
            </g>
          </g>
        </g>
        <g id="main-Cost" transform="translate(1013.909 21.04)">
          <path id="Shadow-6" data-name="Shadow" d="M115.495,111.483c0,11.191-25.857,20.262-57.751,20.262S0,122.674,0,111.483,25.854,91.225,57.744,91.225s57.751,9.071,57.751,20.258" transform="translate(639.136 372.469)" fill="rgba(0,0,0,0.16)"/>
          <g id="그룹_7242" data-name="그룹 7242">
            <path id="패스_22977" data-name="패스 22977" d="M0,97.1v82.726C0,189.7,22.813,197.7,50.952,197.7s50.958-8,50.958-17.875V97.1Z" transform="translate(639.091 301.512)" fill="#555"/>
            <path id="패스_22978" data-name="패스 22978" d="M101.909,109.1c0,9.875-22.816,17.878-50.958,17.878S0,118.975,0,109.1,22.813,91.225,50.952,91.225s50.958,8,50.958,17.875" transform="translate(639.091 289.513)" fill="#999"/>
            <path id="패스_22979" data-name="패스 22979" d="M92.425,99.99a45.28,45.28,0,1,0-90.56,0c0,25.006,45.281,81.734,45.281,81.734S92.425,125,92.425,99.99" transform="translate(642.899 214.945)" fill="#555"/>
          </g>
          <path id="StateColor-6" data-name="StateColor" d="M70.527,91.2a32.178,32.178,0,1,0-32.176,32.176A32.179,32.179,0,0,0,70.527,91.2" transform="translate(651.828 223.984)" fill="#f2ae4c"/>
          <g id="ic-Cost" transform="translate(669 294)">
            <g id="그룹_7187" data-name="그룹 7187" clip-path="url(#clip-path-7)">
              <path id="패스_22971" data-name="패스 22971" d="M26.88,27.631a4.291,4.291,0,0,0-1.271-3.206,12.384,12.384,0,0,0-4.485-2.357,13.028,13.028,0,0,1-5.6-2.976,6.271,6.271,0,0,1-1.606-4.458,6.368,6.368,0,0,1,1.765-4.67,7.314,7.314,0,0,1,4.8-2.04V4.357h1.8V7.924A6.76,6.76,0,0,1,27.1,10.245a8.4,8.4,0,0,1,1.7,5.554H26.7a6.429,6.429,0,0,0-1.439-4.4,4.969,4.969,0,0,0-3.929-1.633,5.491,5.491,0,0,0-3.911,1.317,4.588,4.588,0,0,0-1.4,3.511,4.293,4.293,0,0,0,1.289,3.316A12.576,12.576,0,0,0,21.7,20.151a19.483,19.483,0,0,1,4.5,2.014,6.431,6.431,0,0,1,2.1,2.278A6.651,6.651,0,0,1,29,27.6a6.245,6.245,0,0,1-1.809,4.669,7.7,7.7,0,0,1-4.972,2.023v3.355H20.435V34.305a8.056,8.056,0,0,1-5.491-2.233A7.545,7.545,0,0,1,13,26.588H15.12a5.745,5.745,0,0,0,1.607,4.318,6.161,6.161,0,0,0,4.485,1.562A6.1,6.1,0,0,0,25.3,31.127a4.371,4.371,0,0,0,1.58-3.5" fill="#333"/>
              <path id="패스_22972" data-name="패스 22972" d="M21,42A21,21,0,1,1,42,21,21.024,21.024,0,0,1,21,42M21,2A19,19,0,1,0,40,21,19.021,19.021,0,0,0,21,2" fill="#333"/>
            </g>
          </g>
        </g>
      </g>
    </g>
    <g id="main-ment">
      <text id="CloudOps" transform="translate(370 293)" fill="#222" font-size="80" font-family="Roboto-Black, Roboto" font-weight="800" letter-spacing="-0.02em"><tspan x="0" y="0">CLOUDOPS</tspan></text>
      <text id="Lorem_Ipsum_is_simply_dummy_text_of_the_printing_and_typesetting_industry._" data-name="Lorem Ipsum is simply dummy text of the printing and typesetting industry. " transform="translate(370 324)" fill="#333" font-size="16" font-family="NotoSansKR-Light, Noto Sans KR" font-weight="300"><tspan x="0" y="19">Lorem Ipsum is simply dummy text of the printing and </tspan><tspan x="0" y="43">typesetting industry. </tspan></text>
    </g>
    <g id="GovernanceArea-----" transform="translate(0 11)">
      <text id="Governance" transform="translate(322 736)" fill="#222" font-size="24" font-family="NotoSansKR-Bold, Noto Sans KR" font-weight="700"><tspan x="0" y="0">Governance</tspan></text>
      <line id="선_11" data-name="선 11" x2="1546" transform="translate(322.5 750.5)" fill="none" stroke="#222" stroke-linecap="round" stroke-width="2"/>
    </g>
    <g transform="matrix(1, 0, 0, 1, 318, 120.5)" filter="url(#bg-card)">
      <g id="bg-card-3" data-name="bg-card" transform="translate(4 649.5)" fill="#fff" stroke="#eee" stroke-width="1">
        <rect width="238" height="320" rx="8" stroke="none"/>
        <rect x="0.5" y="0.5" width="237" height="319" rx="7.5" fill="none"/>
      </g>
    </g>
    <g transform="matrix(1, 0, 0, 1, 318, 120.5)" filter="url(#bg-card-2)">
      <g id="bg-card-4" data-name="bg-card" transform="translate(790 649.5)" fill="#fff" stroke="#eee" stroke-width="1">
        <rect width="761" height="318" rx="8" stroke="none"/>
        <rect x="0.5" y="0.5" width="760" height="317" rx="7.5" fill="none"/>
      </g>
    </g>
    <text id="Today_Overall" data-name="Today Overall" transform="translate(338 807)" fill="#333" font-size="18" font-family="NotoSansKR-Medium, Noto Sans KR" font-weight="500"><tspan x="0" y="0">Today Overall</tspan></text>
    <g id="img-gauge" transform="translate(338 828)">
      <g id="그룹_758" data-name="그룹 758" clip-path="url(#clip-path-8)">
        <path id="StateGauge" d="M7.26,27.1,6.567,62.183A.786.786,0,0,1,5,62.2l-1.59-35.1C1.882,24.986.017,21.957,0,19.769c-.015-1.942,1.415-4.522,2.78-6.543L2.223.929A.787.787,0,0,1,2.992.07L6.98,0a.789.789,0,0,1,.584.244c.021.024.041.048.061.073A.789.789,0,0,1,7.778.84L7.539,12.986c1.438,2.025,3.01,4.69,3.026,6.7.017,2.195-1.81,5.267-3.3,7.412m-.179-8.62a2.225,2.225,0,1,0-.456,3.115,2.222,2.222,0,0,0,.456-3.115" transform="matrix(-0.695, -0.719, 0.719, -0.695, 85.375, 113.167)" fill="#333"/>
        <g id="그룹_7243" data-name="그룹 7243">
          <path id="color-Orange-Base" d="M150.163,70.973l-26.295-20.6a86.924,86.924,0,0,1,40.588-28.847l10.731,31.649a53.6,53.6,0,0,0-25.024,17.8" transform="translate(-88.635 -0.768)" fill="#ed8c00"/>
          <path id="color-Yellow" d="M102.394,50.173a53.829,53.829,0,0,0-14,2.058L79.217,20.1a87.424,87.424,0,0,1,49.767.539L119.1,52.56a53.585,53.585,0,0,0-16.707-2.387" transform="translate(0.625 -0.598)" fill="#fbf665"/>
          <path id="color-Red" d="M167.325,54.936l27.254,19.312a53.394,53.394,0,0,0-9.718,27.524H151.425a86.748,86.748,0,0,1,15.9-46.836" transform="translate(-134.601 -1.96)" fill="#e53935"/>
          <path id="color-Lime" d="M33.648,53.58l11.424-31.4A86.984,86.984,0,0,1,85.023,51.889L58.292,71.921A53.66,53.66,0,0,0,33.648,53.58" transform="translate(88.53 -0.791)" fill="#dbe961"/>
          <path id="color-Green" d="M43.417,56.546a86.8,86.8,0,0,1,14.816,45.283H24.8a53.434,53.434,0,0,0-9.047-26.564Z" transform="translate(132.576 -2.018)" fill="#47996b"/>
          <path id="패스_32" data-name="패스 32" d="M5.786,103.078a97.215,97.215,0,1,1,194.429,0H206a103,103,0,1,0-206,0Z" transform="translate(-0.001)" fill="#ccc"/>
        </g>
      </g>
    </g>
    <g id="그룹_7244" data-name="그룹 7244">
      <g id="그룹_1058" data-name="그룹 1058" transform="translate(0 -1042.028)">
        <circle id="타원_36" data-name="타원 36" cx="4" cy="4" r="4" transform="translate(338 2016)" fill="#e53935"/>
        <line id="선_12" data-name="선 12" x2="206" transform="translate(338.5 2034)" fill="none" stroke="#e53935" stroke-linecap="round" stroke-width="1"/>
        <text id="Crititcal" transform="translate(354 2027)" fill="#333" font-size="16" font-family="NotoSansKR-Regular, Noto Sans KR"><tspan x="0" y="0">Crititcal</tspan></text>
        <text id="_7" data-name="7" transform="translate(544 2028)" fill="#333" font-size="20" font-family="NotoSansKR-Bold, Noto Sans KR" font-weight="700"><tspan x="-11.78" y="0">7</tspan></text>
      </g>
      <g id="그룹_1059" data-name="그룹 1059" transform="translate(0 -1042.028)">
        <circle id="타원_37" data-name="타원 37" cx="4" cy="4" r="4" transform="translate(338 2053)" fill="#ed8c00"/>
        <line id="선_13" data-name="선 13" x2="206" transform="translate(338.5 2071)" fill="none" stroke="#ed8c00" stroke-linecap="round" stroke-width="1"/>
        <text id="High" transform="translate(354 2064)" fill="#333" font-size="16" font-family="NotoSansKR-Regular, Noto Sans KR"><tspan x="0" y="0">High</tspan></text>
        <text id="_21" data-name="21" transform="translate(544 2065)" fill="#333" font-size="20" font-family="NotoSansKR-Bold, Noto Sans KR" font-weight="700"><tspan x="-23.56" y="0">21</tspan></text>
      </g>
      <g id="그룹_1057" data-name="그룹 1057" transform="translate(0 -1042)">
        <circle id="타원_38" data-name="타원 38" cx="4" cy="4" r="4" transform="translate(338 2090)" fill="#fbf665"/>
        <line id="선_14" data-name="선 14" x2="206" transform="translate(338.5 2108)" fill="none" stroke="#fbf665" stroke-linecap="round" stroke-width="1"/>
        <text id="Medium" transform="translate(354 2101)" fill="#333" font-size="16" font-family="NotoSansKR-Regular, Noto Sans KR"><tspan x="0" y="0">Medium</tspan></text>
        <text id="_123" data-name="123" transform="translate(544 2102)" fill="#333" font-size="20" font-family="NotoSansKR-Bold, Noto Sans KR" font-weight="700"><tspan x="-35.34" y="0">123</tspan></text>
      </g>
    </g>
    <text id="Today_Category" data-name="Today Category" transform="translate(600 807)" fill="#333" font-size="18" font-family="NotoSansKR-Medium, Noto Sans KR" font-weight="500"><tspan x="0" y="0">Today Category</tspan></text>
    <g id="ic-Resource" transform="translate(-8 24)">
      <rect id="사각형_4406" data-name="사각형 4406" width="48" height="48" transform="translate(608 836)" fill="#fff" opacity="0"/>
      <g id="그룹_7203" data-name="그룹 7203" transform="translate(614 839)">
        <g id="그룹_7185-2" data-name="그룹 7185" clip-path="url(#clip-path-6)">
          <path id="패스_22967-2" data-name="패스 22967" d="M18.32,42a1,1,0,0,1-.5-.134L.5,31.865A1,1,0,0,1,0,31V11a1,1,0,0,1,.5-.866l17.32-10a1,1,0,0,1,1,0l17.321,10a1,1,0,0,1,.5.866V31a1,1,0,0,1-.5.866l-17.321,10a1,1,0,0,1-.5.134M2,30.422l16.32,9.423,16.321-9.423V11.576L18.32,2.153,2,11.576ZM35.641,31h0Z" fill="#333"/>
          <path id="패스_22968-2" data-name="패스 22968" d="M18.32,22a1,1,0,0,1-.5-.134L.5,11.865a1,1,0,1,1,1-1.732l17.32,10A1,1,0,0,1,18.32,22" fill="#333"/>
          <path id="패스_22969-2" data-name="패스 22969" d="M18.321,42a1,1,0,0,1-1-1V21a1,1,0,0,1,2,0V41a1,1,0,0,1-1,1" fill="#333"/>
          <path id="패스_22970-2" data-name="패스 22970" d="M18.322,22a1,1,0,0,1-.5-1.866l17.321-10a1,1,0,1,1,1,1.732l-17.321,10a.994.994,0,0,1-.5.134" fill="#333"/>
        </g>
      </g>
    </g>
    <g id="ic-Resource-2" data-name="ic-Resource" transform="translate(-8 124)">
      <rect id="사각형_4406-2" data-name="사각형 4406" width="48" height="48" transform="translate(608 836)" fill="#fff" opacity="0"/>
      <g id="그룹_7203-2" data-name="그룹 7203" transform="translate(614 839)">
        <g id="그룹_7185-3" data-name="그룹 7185" clip-path="url(#clip-path-6)">
          <path id="패스_22967-3" data-name="패스 22967" d="M18.32,42a1,1,0,0,1-.5-.134L.5,31.865A1,1,0,0,1,0,31V11a1,1,0,0,1,.5-.866l17.32-10a1,1,0,0,1,1,0l17.321,10a1,1,0,0,1,.5.866V31a1,1,0,0,1-.5.866l-17.321,10a1,1,0,0,1-.5.134M2,30.422l16.32,9.423,16.321-9.423V11.576L18.32,2.153,2,11.576ZM35.641,31h0Z" fill="#333"/>
          <path id="패스_22968-3" data-name="패스 22968" d="M18.32,22a1,1,0,0,1-.5-.134L.5,11.865a1,1,0,1,1,1-1.732l17.32,10A1,1,0,0,1,18.32,22" fill="#333"/>
          <path id="패스_22969-3" data-name="패스 22969" d="M18.321,42a1,1,0,0,1-1-1V21a1,1,0,0,1,2,0V41a1,1,0,0,1-1,1" fill="#333"/>
          <path id="패스_22970-3" data-name="패스 22970" d="M18.322,22a1,1,0,0,1-.5-1.866l17.321-10a1,1,0,1,1,1,1.732l-17.321,10a.994.994,0,0,1-.5.134" fill="#333"/>
        </g>
      </g>
    </g>
    <g id="ic-Cost-2" data-name="ic-Cost" transform="translate(1 24)">
      <rect id="사각형_4408" data-name="사각형 4408" width="48" height="48" transform="translate(766 836)" fill="#fff" opacity="0"/>
      <g id="그룹_7204" data-name="그룹 7204" transform="translate(769 839)">
        <g id="그룹_7187-2" data-name="그룹 7187" clip-path="url(#clip-path-7)">
          <path id="패스_22971-2" data-name="패스 22971" d="M26.88,27.631a4.291,4.291,0,0,0-1.271-3.206,12.384,12.384,0,0,0-4.485-2.357,13.028,13.028,0,0,1-5.6-2.976,6.271,6.271,0,0,1-1.606-4.458,6.368,6.368,0,0,1,1.765-4.67,7.314,7.314,0,0,1,4.8-2.04V4.357h1.8V7.924A6.76,6.76,0,0,1,27.1,10.245a8.4,8.4,0,0,1,1.7,5.554H26.7a6.429,6.429,0,0,0-1.439-4.4,4.969,4.969,0,0,0-3.929-1.633,5.491,5.491,0,0,0-3.911,1.317,4.588,4.588,0,0,0-1.4,3.511,4.293,4.293,0,0,0,1.289,3.316A12.576,12.576,0,0,0,21.7,20.151a19.483,19.483,0,0,1,4.5,2.014,6.431,6.431,0,0,1,2.1,2.278A6.651,6.651,0,0,1,29,27.6a6.245,6.245,0,0,1-1.809,4.669,7.7,7.7,0,0,1-4.972,2.023v3.355H20.435V34.305a8.056,8.056,0,0,1-5.491-2.233A7.545,7.545,0,0,1,13,26.588H15.12a5.745,5.745,0,0,0,1.607,4.318,6.161,6.161,0,0,0,4.485,1.562A6.1,6.1,0,0,0,25.3,31.127a4.371,4.371,0,0,0,1.58-3.5" fill="#333"/>
          <path id="패스_22972-2" data-name="패스 22972" d="M21,42A21,21,0,1,1,42,21,21.024,21.024,0,0,1,21,42M21,2A19,19,0,1,0,40,21,19.021,19.021,0,0,0,21,2" fill="#333"/>
        </g>
      </g>
    </g>
    <g id="ic-Cost-3" data-name="ic-Cost" transform="translate(1 124)">
      <rect id="사각형_4408-2" data-name="사각형 4408" width="48" height="48" transform="translate(766 836)" fill="#fff" opacity="0"/>
      <g id="그룹_7204-2" data-name="그룹 7204" transform="translate(769 839)">
        <g id="그룹_7187-3" data-name="그룹 7187" clip-path="url(#clip-path-7)">
          <path id="패스_22971-3" data-name="패스 22971" d="M26.88,27.631a4.291,4.291,0,0,0-1.271-3.206,12.384,12.384,0,0,0-4.485-2.357,13.028,13.028,0,0,1-5.6-2.976,6.271,6.271,0,0,1-1.606-4.458,6.368,6.368,0,0,1,1.765-4.67,7.314,7.314,0,0,1,4.8-2.04V4.357h1.8V7.924A6.76,6.76,0,0,1,27.1,10.245a8.4,8.4,0,0,1,1.7,5.554H26.7a6.429,6.429,0,0,0-1.439-4.4,4.969,4.969,0,0,0-3.929-1.633,5.491,5.491,0,0,0-3.911,1.317,4.588,4.588,0,0,0-1.4,3.511,4.293,4.293,0,0,0,1.289,3.316A12.576,12.576,0,0,0,21.7,20.151a19.483,19.483,0,0,1,4.5,2.014,6.431,6.431,0,0,1,2.1,2.278A6.651,6.651,0,0,1,29,27.6a6.245,6.245,0,0,1-1.809,4.669,7.7,7.7,0,0,1-4.972,2.023v3.355H20.435V34.305a8.056,8.056,0,0,1-5.491-2.233A7.545,7.545,0,0,1,13,26.588H15.12a5.745,5.745,0,0,0,1.607,4.318,6.161,6.161,0,0,0,4.485,1.562A6.1,6.1,0,0,0,25.3,31.127a4.371,4.371,0,0,0,1.58-3.5" fill="#333"/>
          <path id="패스_22972-3" data-name="패스 22972" d="M21,42A21,21,0,1,1,42,21,21.024,21.024,0,0,1,21,42M21,2A19,19,0,1,0,40,21,19.021,19.021,0,0,0,21,2" fill="#333"/>
        </g>
      </g>
    </g>
    <g id="ic-Topology-2" data-name="ic-Topology" transform="translate(9 24)">
      <rect id="사각형_4409" data-name="사각형 4409" width="48" height="48" transform="translate(924 836)" fill="#fff" opacity="0"/>
      <g id="그룹_7205" data-name="그룹 7205" transform="translate(929 841)">
        <g id="그룹_7177-2" data-name="그룹 7177" clip-path="url(#clip-path-2)">
          <path id="패스_22941-2" data-name="패스 22941" d="M22.6,16.4H15.4a4.6,4.6,0,0,1-4.6-4.6V4.6A4.6,4.6,0,0,1,15.4,0h7.2a4.605,4.605,0,0,1,4.6,4.6v7.2a4.605,4.605,0,0,1-4.6,4.6M15.4,2a2.6,2.6,0,0,0-2.6,2.6v7.2a2.6,2.6,0,0,0,2.6,2.6h7.2a2.6,2.6,0,0,0,2.6-2.6V4.6A2.6,2.6,0,0,0,22.6,2Z" fill="#333"/>
          <path id="패스_22942-2" data-name="패스 22942" d="M35.2,37.784H29.8a2.8,2.8,0,0,1-2.8-2.8v-5.4a2.8,2.8,0,0,1,2.8-2.8h5.4a2.8,2.8,0,0,1,2.8,2.8v5.4a2.8,2.8,0,0,1-2.8,2.8m-5.4-9a.8.8,0,0,0-.8.8v5.4a.8.8,0,0,0,.8.8h5.4a.8.8,0,0,0,.8-.8v-5.4a.8.8,0,0,0-.8-.8Z" fill="#333"/>
          <path id="패스_22943-2" data-name="패스 22943" d="M8.2,37.784H2.8a2.8,2.8,0,0,1-2.8-2.8v-5.4a2.8,2.8,0,0,1,2.8-2.8H8.2a2.8,2.8,0,0,1,2.8,2.8v5.4a2.8,2.8,0,0,1-2.8,2.8m-5.4-9a.8.8,0,0,0-.8.8v5.4a.8.8,0,0,0,.8.8H8.2a.8.8,0,0,0,.8-.8v-5.4a.8.8,0,0,0-.8-.8Z" fill="#333"/>
          <path id="패스_22944-2" data-name="패스 22944" d="M21.7,37.784H16.3a2.8,2.8,0,0,1-2.8-2.8v-5.4a2.8,2.8,0,0,1,2.8-2.8h5.4a2.8,2.8,0,0,1,2.8,2.8v5.4a2.8,2.8,0,0,1-2.8,2.8m-5.4-9a.8.8,0,0,0-.8.8v5.4a.8.8,0,0,0,.8.8h5.4a.8.8,0,0,0,.8-.8v-5.4a.8.8,0,0,0-.8-.8Z" fill="#333"/>
          <path id="패스_22945-2" data-name="패스 22945" d="M32.5,28.243a1,1,0,0,1-1-1V22.589H6.5v4.654a1,1,0,0,1-2,0V21.589a1,1,0,0,1,1-1h27a1,1,0,0,1,1,1v5.654a1,1,0,0,1-1,1" fill="#333"/>
          <path id="패스_22946-2" data-name="패스 22946" d="M19,28.78a1,1,0,0,1-1-1V15.4a1,1,0,1,1,2,0V27.78a1,1,0,0,1-1,1" fill="#333"/>
        </g>
      </g>
    </g>
    <g id="ic-Topology-3" data-name="ic-Topology" transform="translate(9 124)">
      <rect id="사각형_4409-2" data-name="사각형 4409" width="48" height="48" transform="translate(924 836)" fill="#fff" opacity="0"/>
      <g id="그룹_7205-2" data-name="그룹 7205" transform="translate(929 841)">
        <g id="그룹_7177-3" data-name="그룹 7177" clip-path="url(#clip-path-2)">
          <path id="패스_22941-3" data-name="패스 22941" d="M22.6,16.4H15.4a4.6,4.6,0,0,1-4.6-4.6V4.6A4.6,4.6,0,0,1,15.4,0h7.2a4.605,4.605,0,0,1,4.6,4.6v7.2a4.605,4.605,0,0,1-4.6,4.6M15.4,2a2.6,2.6,0,0,0-2.6,2.6v7.2a2.6,2.6,0,0,0,2.6,2.6h7.2a2.6,2.6,0,0,0,2.6-2.6V4.6A2.6,2.6,0,0,0,22.6,2Z" fill="#333"/>
          <path id="패스_22942-3" data-name="패스 22942" d="M35.2,37.784H29.8a2.8,2.8,0,0,1-2.8-2.8v-5.4a2.8,2.8,0,0,1,2.8-2.8h5.4a2.8,2.8,0,0,1,2.8,2.8v5.4a2.8,2.8,0,0,1-2.8,2.8m-5.4-9a.8.8,0,0,0-.8.8v5.4a.8.8,0,0,0,.8.8h5.4a.8.8,0,0,0,.8-.8v-5.4a.8.8,0,0,0-.8-.8Z" fill="#333"/>
          <path id="패스_22943-3" data-name="패스 22943" d="M8.2,37.784H2.8a2.8,2.8,0,0,1-2.8-2.8v-5.4a2.8,2.8,0,0,1,2.8-2.8H8.2a2.8,2.8,0,0,1,2.8,2.8v5.4a2.8,2.8,0,0,1-2.8,2.8m-5.4-9a.8.8,0,0,0-.8.8v5.4a.8.8,0,0,0,.8.8H8.2a.8.8,0,0,0,.8-.8v-5.4a.8.8,0,0,0-.8-.8Z" fill="#333"/>
          <path id="패스_22944-3" data-name="패스 22944" d="M21.7,37.784H16.3a2.8,2.8,0,0,1-2.8-2.8v-5.4a2.8,2.8,0,0,1,2.8-2.8h5.4a2.8,2.8,0,0,1,2.8,2.8v5.4a2.8,2.8,0,0,1-2.8,2.8m-5.4-9a.8.8,0,0,0-.8.8v5.4a.8.8,0,0,0,.8.8h5.4a.8.8,0,0,0,.8-.8v-5.4a.8.8,0,0,0-.8-.8Z" fill="#333"/>
          <path id="패스_22945-3" data-name="패스 22945" d="M32.5,28.243a1,1,0,0,1-1-1V22.589H6.5v4.654a1,1,0,0,1-2,0V21.589a1,1,0,0,1,1-1h27a1,1,0,0,1,1,1v5.654a1,1,0,0,1-1,1" fill="#333"/>
          <path id="패스_22946-3" data-name="패스 22946" d="M19,28.78a1,1,0,0,1-1-1V15.4a1,1,0,1,1,2,0V27.78a1,1,0,0,1-1,1" fill="#333"/>
        </g>
      </g>
    </g>
    <text id="Resource" transform="translate(656 891)" fill="#333" font-size="16" font-family="NotoSansKR-Regular, Noto Sans KR"><tspan x="0" y="0">Resource</tspan></text>
    <text id="Resource-2" data-name="Resource" transform="translate(656 991)" fill="#333" font-size="16" font-family="NotoSansKR-Regular, Noto Sans KR"><tspan x="0" y="0">Resource</tspan></text>
    <text id="Cost" transform="translate(821 891)" fill="#333" font-size="16" font-family="NotoSansKR-Regular, Noto Sans KR"><tspan x="0" y="0">Cost</tspan></text>
    <text id="Cost-2" data-name="Cost" transform="translate(821 991)" fill="#333" font-size="16" font-family="NotoSansKR-Regular, Noto Sans KR"><tspan x="0" y="0">Cost</tspan></text>
    <text id="Topology" transform="translate(988 891)" fill="#333" font-size="16" font-family="NotoSansKR-Regular, Noto Sans KR"><tspan x="0" y="0">Topology</tspan></text>
    <text id="Topology-2" data-name="Topology" transform="translate(988 991)" fill="#333" font-size="16" font-family="NotoSansKR-Regular, Noto Sans KR"><tspan x="0" y="0">Topology</tspan></text>
    <g id="Meterbar">
      <rect id="사각형_4407" data-name="사각형 4407" width="135" height="4" rx="2" transform="translate(735 920) rotate(180)" fill="#eee"/>
      <rect id="StatusMeterbar" width="108" height="4" rx="2" transform="translate(708 920) rotate(180)" fill="#e53935"/>
    </g>
    <g id="Meterbar-2" data-name="Meterbar">
      <rect id="사각형_4415" data-name="사각형 4415" width="135" height="4" rx="2" transform="translate(735 1020) rotate(180)" fill="#eee"/>
      <rect id="StateMeterbar" width="27" height="4" rx="2" transform="translate(627 1020) rotate(180)" fill="#dbe961"/>
    </g>
    <g id="Meterbar-3" data-name="Meterbar" transform="translate(5)">
      <rect id="사각형_4410" data-name="사각형 4410" width="135" height="4" rx="2" transform="translate(897 920) rotate(180)" fill="#eee"/>
      <rect id="StateMeterbar-2" data-name="StateMeterbar" width="81" height="4" rx="2" transform="translate(843 920) rotate(180)" fill="#ed8c00"/>
    </g>
    <g id="Meterbar-4" data-name="Meterbar" transform="translate(5)">
      <rect id="사각형_4416" data-name="사각형 4416" width="135" height="4" rx="2" transform="translate(897 1020) rotate(180)" fill="#eee"/>
      <rect id="StateMeterbar-3" data-name="StateMeterbar" width="8" height="4" rx="2" transform="translate(770 1020) rotate(180)" fill="#47996b"/>
    </g>
    <g id="Meterbar-5" data-name="Meterbar" transform="translate(9)">
      <rect id="사각형_4411" data-name="사각형 4411" width="135" height="4" rx="2" transform="translate(1059 920) rotate(180)" fill="#eee"/>
      <rect id="StateMeterbar-4" data-name="StateMeterbar" width="54" height="4" rx="2" transform="translate(978 920) rotate(180)" fill="#fbf665"/>
    </g>
    <g id="Meterbar-6" data-name="Meterbar" transform="translate(9)">
      <rect id="사각형_4417" data-name="사각형 4417" width="135" height="4" rx="2" transform="translate(1059 1020) rotate(180)" fill="#eee"/>
      <rect id="StateMeterbar-5" data-name="StateMeterbar" width="120" height="4" rx="2" transform="translate(1044 1020) rotate(180)" fill="#e53935"/>
    </g>
    <g id="StateFace-100" transform="translate(26 29)">
      <g transform="matrix(1, 0, 0, 1, 292, 91.5)" filter="url(#타원_39)">
        <circle id="타원_39-6" data-name="타원 39" cx="8" cy="8" r="8" transform="translate(382 803.5)" fill="#fff"/>
      </g>
      <path id="StateFaceColor" d="M8,.563a8,8,0,1,0,8,8A8,8,0,0,0,8,.563ZM4.386,8.044a1.021,1.021,0,0,1,.339-.755l-1-.3A.515.515,0,0,1,4.021,6l2.58.774a.516.516,0,0,1-.148,1.009c-.016,0-.035-.006-.055-.006a1.043,1.043,0,0,1,.055.264,1.034,1.034,0,0,1-2.067,0ZM9.8,13.017a2.426,2.426,0,0,0-3.615,0,.516.516,0,0,1-.793-.661,3.381,3.381,0,0,1,5.2,0A.515.515,0,0,1,9.8,13.017Zm2.47-6.027-1,.3a1.029,1.029,0,1,1-1.725.755A.9.9,0,0,1,9.6,7.78a.318.318,0,0,1-.055.006A.516.516,0,0,1,9.4,6.777L11.98,6a.515.515,0,1,1,.293.987Z" transform="translate(674 894.438)" fill="#e53935"/>
    </g>
    <g id="StateFace-75" transform="translate(8 29)">
      <g transform="matrix(1, 0, 0, 1, 310, 91.5)" filter="url(#타원_40)">
        <circle id="타원_40-4" data-name="타원 40" cx="8" cy="8" r="8" transform="translate(522 803.5)" fill="#fff"/>
      </g>
      <path id="StateFaceColor-2" data-name="StateFaceColor" d="M8,.563a8,8,0,1,0,8,8A8,8,0,0,0,8,.563Zm2.58,5.418A1.032,1.032,0,1,1,9.545,7.012,1.031,1.031,0,0,1,10.577,5.98ZM4.9,13.72A1.531,1.531,0,0,1,3.354,12.2,6.618,6.618,0,0,1,4.7,9.7a.257.257,0,0,1,.413,0A6.618,6.618,0,0,1,6.45,12.2,1.531,1.531,0,0,1,4.9,13.72Zm.516-5.676A1.032,1.032,0,1,1,6.45,7.012,1.031,1.031,0,0,1,5.418,8.044Zm5.489,4.973A3.784,3.784,0,0,0,8,11.656a.516.516,0,0,1,0-1.032,4.8,4.8,0,0,1,3.7,1.735A.514.514,0,0,1,10.906,13.017Z" transform="translate(832 894.438)" fill="#ed8c00"/>
    </g>
    <g id="StateFace-50" transform="translate(305 28.972)">
      <g transform="matrix(1, 0, 0, 1, 13, 91.53)" filter="url(#타원_39-2)">
        <circle id="타원_39-7" data-name="타원 39" cx="8" cy="8" r="8" transform="translate(661 803.5)" fill="#fff"/>
      </g>
      <path id="StateFaceColor-3" data-name="StateFaceColor" d="M8,.563a8,8,0,1,0,8,8A8,8,0,0,0,8,.563ZM4.386,7.012A1.032,1.032,0,1,1,5.418,8.044,1.031,1.031,0,0,1,4.386,7.012ZM8,13.72a2.064,2.064,0,1,1,2.064-2.064A2.066,2.066,0,0,1,8,13.72Zm2.58-5.676a1.032,1.032,0,1,1,1.032-1.032A1.031,1.031,0,0,1,10.577,8.044Z" transform="translate(674 894.465)" fill="#efe821"/>
    </g>
    <g id="StateFace-25" transform="translate(-372 129)">
      <g transform="matrix(1, 0, 0, 1, 690, -8.5)" filter="url(#타원_41)">
        <circle id="타원_41-4" data-name="타원 41" cx="8" cy="8" r="8" transform="translate(301 903.5)" fill="#fff"/>
      </g>
      <path id="StateFaceColor-4" data-name="StateFaceColor" d="M8,.563a8,8,0,1,0,8,8A8,8,0,0,0,8,.563Zm2.58,5.418A1.032,1.032,0,1,1,9.545,7.012,1.031,1.031,0,0,1,10.577,5.98Zm-5.16,0A1.032,1.032,0,1,1,4.386,7.012,1.031,1.031,0,0,1,5.418,5.98ZM11.7,11.469a4.817,4.817,0,0,1-7.4,0,.516.516,0,0,1,.793-.661,3.789,3.789,0,0,0,5.818,0A.516.516,0,0,1,11.7,11.469Z" transform="translate(991 894.438)" fill="#bdcb44"/>
    </g>
    <g id="StateFace-0" transform="translate(-383 129)">
      <g transform="matrix(1, 0, 0, 1, 701, -8.5)" filter="url(#타원_42)">
        <circle id="타원_42-4" data-name="타원 42" cx="8" cy="8" r="8" transform="translate(449 903.5)" fill="#fff"/>
      </g>
      <path id="StateFaceColor-5" data-name="StateFaceColor" d="M8,.563a8,8,0,1,0,8,8A8,8,0,0,0,8,.563Zm2.58,4.9A1.032,1.032,0,1,1,9.545,6.5,1.031,1.031,0,0,1,10.577,5.464Zm-5.16,0A1.032,1.032,0,1,1,4.386,6.5,1.031,1.031,0,0,1,5.418,5.464Zm2.838,8.771H7.74a4.648,4.648,0,0,1-4.608-4.063.518.518,0,0,1,.513-.58h8.707a.516.516,0,0,1,.513.58A4.648,4.648,0,0,1,8.255,14.236Z" transform="translate(1150 894.438)" fill="#47996b"/>
    </g>
    <g id="StateFace-100-2" data-name="StateFace-100" transform="translate(371 129)">
      <g transform="matrix(1, 0, 0, 1, -53, -8.5)" filter="url(#타원_39-3)">
        <circle id="타원_39-8" data-name="타원 39" cx="8" cy="8" r="8" transform="translate(727 903.5)" fill="#fff"/>
      </g>
      <path id="StateFaceColor-6" data-name="StateFaceColor" d="M8,.563a8,8,0,1,0,8,8A8,8,0,0,0,8,.563ZM4.386,8.044a1.021,1.021,0,0,1,.339-.755l-1-.3A.515.515,0,0,1,4.021,6l2.58.774a.516.516,0,0,1-.148,1.009c-.016,0-.035-.006-.055-.006a1.043,1.043,0,0,1,.055.264,1.034,1.034,0,0,1-2.067,0ZM9.8,13.017a2.426,2.426,0,0,0-3.615,0,.516.516,0,0,1-.793-.661,3.381,3.381,0,0,1,5.2,0A.515.515,0,0,1,9.8,13.017Zm2.47-6.027-1,.3a1.029,1.029,0,1,1-1.725.755A.9.9,0,0,1,9.6,7.78a.318.318,0,0,1-.055.006A.516.516,0,0,1,9.4,6.777L11.98,6a.515.515,0,1,1,.293.987Z" transform="translate(674 894.438)" fill="#e53935"/>
    </g>
    <text id="Weekly_Monthly" data-name="Weekly &amp; Monthly" transform="translate(1126 807)" fill="#333" font-size="18" font-family="NotoSansKR-Medium, Noto Sans KR" font-weight="500"><tspan x="0" y="0">Weekly &amp; Monthly</tspan></text>
    <text id="Weekly" transform="translate(1156 895.972)" fill="#333" font-size="18" font-family="NotoSansKR-Regular, Noto Sans KR"><tspan x="-30.096" y="0">Weekly</tspan></text>
    <text id="Monthly" transform="translate(1160 1001.972)" fill="#333" font-size="18" font-family="NotoSansKR-Regular, Noto Sans KR"><tspan x="-34.371" y="0">Monthly</tspan></text>
    <g id="State-100">
      <g id="bg-StatusWeekly" transform="translate(600 -24.028)">
        <path id="빼기_1" data-name="빼기 1" d="M148,56H0L34.594,28,0,0H148V56Z" transform="translate(600 884)" fill="#fad7d6"/>
        <path id="다각형_1" data-name="다각형 1" d="M28,0,56,34.595H0Z" transform="translate(782.595 884) rotate(90)" fill="#fad7d6"/>
      </g>
      <g id="StateFace-100-3" data-name="StateFace-100" transform="translate(600 -24.028)">
        <g transform="matrix(1, 0, 0, 1, -282, 144.53)" filter="url(#타원_39-4)">
          <circle id="타원_39-9" data-name="타원 39" cx="17.44" cy="17.44" r="17.44" transform="translate(956 750.47)" fill="#fff"/>
        </g>
        <path id="StateFaceColor-7" data-name="StateFaceColor" d="M17.438.563A17.438,17.438,0,1,0,34.875,18,17.434,17.434,0,0,0,17.438.563ZM9.563,16.875A2.227,2.227,0,0,1,10.3,15.23l-2.18-.654a1.123,1.123,0,0,1,.647-2.152l5.625,1.688a1.124,1.124,0,0,1-.323,2.2c-.035,0-.077-.014-.12-.014a2.273,2.273,0,0,1,.12.577,2.254,2.254,0,0,1-4.507,0ZM21.375,27.717a5.29,5.29,0,0,0-7.882,0,1.126,1.126,0,0,1-1.73-1.441,7.371,7.371,0,0,1,11.334,0A1.123,1.123,0,0,1,21.375,27.717Zm5.386-13.141-2.18.654a2.244,2.244,0,1,1-3.762,1.645,1.958,1.958,0,0,1,.12-.577.693.693,0,0,1-.12.014,1.124,1.124,0,0,1-.323-2.2l5.625-1.687a1.122,1.122,0,1,1,.64,2.152Z" transform="translate(674 894.438)" fill="#e53935"/>
      </g>
    </g>
    <g id="State-75">
      <g id="bg-StatusWeekly-2" data-name="bg-StatusWeekly" transform="translate(759 -24.028)">
        <path id="빼기_1-2" data-name="빼기 1" d="M148,56H0L34.594,28,0,0H148V56Z" transform="translate(600 884)" fill="#fce8cc"/>
        <path id="다각형_1-2" data-name="다각형 1" d="M28,0,56,34.595H0Z" transform="translate(782.595 884) rotate(90)" fill="#fce8cc"/>
      </g>
      <g id="StateFace-75-2" data-name="StateFace-75" transform="translate(600 -24.028)">
        <g transform="matrix(1, 0, 0, 1, -282, 144.53)" filter="url(#타원_40-2)">
          <circle id="타원_40-5" data-name="타원 40" cx="17.44" cy="17.44" r="17.44" transform="translate(1114 750.47)" fill="#fff"/>
        </g>
        <path id="StateFaceColor-8" data-name="StateFaceColor" d="M17.438.563A17.438,17.438,0,1,0,34.875,18,17.434,17.434,0,0,0,17.438.563Zm5.625,11.813a2.25,2.25,0,1,1-2.25,2.25A2.248,2.248,0,0,1,23.063,12.375ZM10.688,29.25a3.339,3.339,0,0,1-3.375-3.3c0-1.406,2-4.247,2.925-5.47a.56.56,0,0,1,.9,0c.921,1.223,2.925,4.064,2.925,5.47A3.339,3.339,0,0,1,10.688,29.25Zm1.125-12.375a2.25,2.25,0,1,1,2.25-2.25A2.248,2.248,0,0,1,11.813,16.875ZM23.78,27.717a8.25,8.25,0,0,0-6.342-2.967,1.125,1.125,0,0,1,0-2.25A10.461,10.461,0,0,1,25.5,26.283,1.121,1.121,0,0,1,23.78,27.717Z" transform="translate(832 894.438)" fill="#ed8c00"/>
      </g>
    </g>
    <g id="State-25">
      <g id="bg-StatusWeekly-3" data-name="bg-StatusWeekly" transform="translate(917 -24.028)">
        <path id="빼기_1-3" data-name="빼기 1" d="M148,56H0L34.594,28,0,0H148V56Z" transform="translate(600 884)" fill="#ebefc6"/>
        <path id="다각형_1-3" data-name="다각형 1" d="M28,0,56,34.595H0Z" transform="translate(782.595 884) rotate(90)" fill="#ebefc6"/>
      </g>
      <g id="StateFace-25-2" data-name="StateFace-25" transform="translate(600 -24.028)">
        <g transform="matrix(1, 0, 0, 1, -282, 144.53)" filter="url(#타원_41-2)">
          <circle id="타원_41-5" data-name="타원 41" cx="17.44" cy="17.44" r="17.44" transform="translate(1273 750.47)" fill="#fff"/>
        </g>
        <path id="StateFaceColor-9" data-name="StateFaceColor" d="M17.438.563A17.438,17.438,0,1,0,34.875,18,17.434,17.434,0,0,0,17.438.563Zm5.625,11.813a2.25,2.25,0,1,1-2.25,2.25A2.248,2.248,0,0,1,23.063,12.375Zm-11.25,0a2.25,2.25,0,1,1-2.25,2.25A2.248,2.248,0,0,1,11.813,12.375Zm13.7,11.967a10.5,10.5,0,0,1-16.144,0A1.126,1.126,0,0,1,11.1,22.9a8.262,8.262,0,0,0,12.684,0A1.126,1.126,0,0,1,25.509,24.342Z" transform="translate(991 894.438)" fill="#bdcb44"/>
      </g>
    </g>
    <g id="State-0">
      <g id="bg-StatusWeekly-4" data-name="bg-StatusWeekly" transform="translate(1076 -24.028)">
        <path id="빼기_1-4" data-name="빼기 1" d="M148,56H0L34.594,28,0,0H148V56Z" transform="translate(600 884)" fill="#daebe1"/>
        <path id="다각형_1-4" data-name="다각형 1" d="M28,0,56,34.595H0Z" transform="translate(782.595 884) rotate(90)" fill="#daebe1"/>
      </g>
      <g id="StateFace-0-2" data-name="StateFace-0" transform="translate(600 -24.028)">
        <g transform="matrix(1, 0, 0, 1, -282, 144.53)" filter="url(#타원_42-2)">
          <circle id="타원_42-5" data-name="타원 42" cx="17.44" cy="17.44" r="17.44" transform="translate(1432 750.47)" fill="#fff"/>
        </g>
        <path id="StateFaceColor-10" data-name="StateFaceColor" d="M17.438.563A17.438,17.438,0,1,0,34.875,18,17.434,17.434,0,0,0,17.438.563ZM23.063,11.25a2.25,2.25,0,1,1-2.25,2.25A2.248,2.248,0,0,1,23.063,11.25Zm-11.25,0a2.25,2.25,0,1,1-2.25,2.25A2.248,2.248,0,0,1,11.813,11.25ZM18,30.375H16.875A10.134,10.134,0,0,1,6.827,21.516,1.13,1.13,0,0,1,7.945,20.25H26.93a1.126,1.126,0,0,1,1.118,1.266A10.134,10.134,0,0,1,18,30.375Z" transform="translate(1150 894.438)" fill="#47996b"/>
      </g>
    </g>
    <g id="State-50">
      <g id="bg-StatusMonthly" transform="translate(600 81.972)">
        <path id="빼기_1-5" data-name="빼기 1" d="M148,56H0L34.594,28,0,0H148V56Z" transform="translate(600 884)" fill="#fcfab1"/>
        <path id="다각형_1-5" data-name="다각형 1" d="M28,0,56,34.595H0Z" transform="translate(782.595 884) rotate(90)" fill="#fcfab1"/>
      </g>
      <g id="StateFace-50-2" data-name="StateFace-50" transform="translate(600 81.972)">
        <g transform="matrix(1, 0, 0, 1, -282, 38.53)" filter="url(#타원_39-5)">
          <circle id="타원_39-10" data-name="타원 39" cx="17.44" cy="17.44" r="17.44" transform="translate(956 856.5)" fill="#fff"/>
        </g>
        <path id="StateFaceColor-11" data-name="StateFaceColor" d="M17.438.563A17.438,17.438,0,1,0,34.875,18,17.434,17.434,0,0,0,17.438.563ZM9.563,14.625a2.25,2.25,0,1,1,2.25,2.25A2.248,2.248,0,0,1,9.563,14.625ZM17.438,29.25a4.5,4.5,0,1,1,4.5-4.5A4.5,4.5,0,0,1,17.438,29.25Zm5.625-12.375a2.25,2.25,0,1,1,2.25-2.25A2.248,2.248,0,0,1,23.063,16.875Z" transform="translate(674 894.465)" fill="#efe821"/>
      </g>
    </g>
    <g id="State-75-2" data-name="State-75">
      <g id="bg-StatusMonthly-2" data-name="bg-StatusMonthly" transform="translate(759 81.972)">
        <path id="빼기_1-6" data-name="빼기 1" d="M148,56H0L34.594,28,0,0H148V56Z" transform="translate(600 884)" fill="#fce8cc"/>
        <path id="다각형_1-6" data-name="다각형 1" d="M28,0,56,34.595H0Z" transform="translate(782.595 884) rotate(90)" fill="#fce8cc"/>
      </g>
      <g id="StateFace-75-3" data-name="StateFace-75" transform="translate(600 81.972)">
        <g transform="matrix(1, 0, 0, 1, -282, 38.53)" filter="url(#타원_40-3)">
          <circle id="타원_40-6" data-name="타원 40" cx="17.44" cy="17.44" r="17.44" transform="translate(1114 856.47)" fill="#fff"/>
        </g>
        <path id="StateFaceColor-12" data-name="StateFaceColor" d="M17.438.563A17.438,17.438,0,1,0,34.875,18,17.434,17.434,0,0,0,17.438.563Zm5.625,11.813a2.25,2.25,0,1,1-2.25,2.25A2.248,2.248,0,0,1,23.063,12.375ZM10.688,29.25a3.339,3.339,0,0,1-3.375-3.3c0-1.406,2-4.247,2.925-5.47a.56.56,0,0,1,.9,0c.921,1.223,2.925,4.064,2.925,5.47A3.339,3.339,0,0,1,10.688,29.25Zm1.125-12.375a2.25,2.25,0,1,1,2.25-2.25A2.248,2.248,0,0,1,11.813,16.875ZM23.78,27.717a8.25,8.25,0,0,0-6.342-2.967,1.125,1.125,0,0,1,0-2.25A10.461,10.461,0,0,1,25.5,26.283,1.121,1.121,0,0,1,23.78,27.717Z" transform="translate(832 894.438)" fill="#ed8c00"/>
      </g>
    </g>
    <g id="State-25-2" data-name="State-25">
      <g id="bg-StatusMonthly-3" data-name="bg-StatusMonthly" transform="translate(917 81.972)">
        <path id="빼기_1-7" data-name="빼기 1" d="M148,56H0L34.594,28,0,0H148V56Z" transform="translate(600 884)" fill="#ebefc6"/>
        <path id="다각형_1-7" data-name="다각형 1" d="M28,0,56,34.595H0Z" transform="translate(782.595 884) rotate(90)" fill="#ebefc6"/>
      </g>
      <g id="StateFace-25-3" data-name="StateFace-25" transform="translate(600 81.972)">
        <g transform="matrix(1, 0, 0, 1, -282, 38.53)" filter="url(#타원_41-3)">
          <circle id="타원_41-6" data-name="타원 41" cx="17.44" cy="17.44" r="17.44" transform="translate(1273 856.47)" fill="#fff"/>
        </g>
        <path id="StateFaceColor-13" data-name="StateFaceColor" d="M17.438.563A17.438,17.438,0,1,0,34.875,18,17.434,17.434,0,0,0,17.438.563Zm5.625,11.813a2.25,2.25,0,1,1-2.25,2.25A2.248,2.248,0,0,1,23.063,12.375Zm-11.25,0a2.25,2.25,0,1,1-2.25,2.25A2.248,2.248,0,0,1,11.813,12.375Zm13.7,11.967a10.5,10.5,0,0,1-16.144,0A1.126,1.126,0,0,1,11.1,22.9a8.262,8.262,0,0,0,12.684,0A1.126,1.126,0,0,1,25.509,24.342Z" transform="translate(991 894.438)" fill="#bdcb44"/>
      </g>
    </g>
    <g id="State-0-2" data-name="State-0">
      <g id="bg-StatusMonthly-4" data-name="bg-StatusMonthly" transform="translate(1076 81.972)">
        <path id="빼기_1-8" data-name="빼기 1" d="M148,56H0L34.594,28,0,0H148V56Z" transform="translate(600 884)" fill="#daebe1"/>
        <path id="다각형_1-8" data-name="다각형 1" d="M28,0,56,34.595H0Z" transform="translate(782.595 884) rotate(90)" fill="#daebe1"/>
      </g>
      <g id="StateFace-50-3" data-name="StateFace-50" transform="translate(600 81.972)">
        <g transform="matrix(1, 0, 0, 1, -282, 38.53)" filter="url(#타원_42-3)">
          <circle id="타원_42-6" data-name="타원 42" cx="17.44" cy="17.44" r="17.44" transform="translate(1432 856.47)" fill="#fff"/>
        </g>
        <path id="StateFaceColor-14" data-name="StateFaceColor" d="M17.438.563A17.438,17.438,0,1,0,34.875,18,17.434,17.434,0,0,0,17.438.563ZM23.063,11.25a2.25,2.25,0,1,1-2.25,2.25A2.248,2.248,0,0,1,23.063,11.25Zm-11.25,0a2.25,2.25,0,1,1-2.25,2.25A2.248,2.248,0,0,1,11.813,11.25ZM18,30.375H16.875A10.134,10.134,0,0,1,6.827,21.516,1.13,1.13,0,0,1,7.945,20.25H26.93a1.126,1.126,0,0,1,1.118,1.266A10.134,10.134,0,0,1,18,30.375Z" transform="translate(1150 894.438)" fill="#47996b"/>
      </g>
    </g>
    <text id="_3_Weeks_ago" data-name="3 Weeks ago" transform="translate(1291 937.972)" fill="#666" font-size="14" font-family="NotoSansKR-Light, Noto Sans KR" font-weight="300"><tspan x="-38.892" y="0">3 Weeks ago</tspan></text>
    <text id="February" transform="translate(1291 1043.972)" fill="#666" font-size="14" font-family="NotoSansKR-Light, Noto Sans KR" font-weight="300"><tspan x="-28.294" y="0">February</tspan></text>
    <text id="_2_Weeks_ago" data-name="2 Weeks ago" transform="translate(1450 937.972)" fill="#666" font-size="14" font-family="NotoSansKR-Light, Noto Sans KR" font-weight="300"><tspan x="-38.892" y="0">2 Weeks ago</tspan></text>
    <text id="March" transform="translate(1450 1043.972)" fill="#666" font-size="14" font-family="NotoSansKR-Light, Noto Sans KR" font-weight="300"><tspan x="-19.39" y="0">March</tspan></text>
    <text id="Last_Week" data-name="Last Week" transform="translate(1608 937.972)" fill="#666" font-size="14" font-family="NotoSansKR-Light, Noto Sans KR" font-weight="300"><tspan x="-31.689" y="0">Last Week</tspan></text>
    <text id="April" transform="translate(1608 1043.972)" fill="#666" font-size="14" font-family="NotoSansKR-Light, Noto Sans KR" font-weight="300"><tspan x="-14.525" y="0">April</tspan></text>
    <text id="This_Week" data-name="This Week" transform="translate(1767 937.972)" fill="#666" font-size="14" font-family="NotoSansKR-Light, Noto Sans KR" font-weight="300"><tspan x="-31.906" y="0">This Week</tspan></text>
    <text id="This_Month" data-name="This Month" transform="translate(1767 1043.972)" fill="#666" font-size="14" font-family="NotoSansKR-Light, Noto Sans KR" font-weight="300"><tspan x="-35.133" y="0">This Month</tspan></text>
    <g id="TopologyArea-----" transform="translate(0 411)">
      <text id="Topology-3" data-name="Topology" transform="translate(322 736)" fill="#222" font-size="24" font-family="NotoSansKR-Bold, Noto Sans KR" font-weight="700"><tspan x="0" y="0">Topology</tspan></text>
      <line id="선_11-2" data-name="선 11" x2="1546" transform="translate(322.5 750.5)" fill="none" stroke="#222" stroke-linecap="round" stroke-width="2"/>
    </g>
  </g>
</svg>
