<svg xmlns="http://www.w3.org/2000/svg" xmlns:xlink="http://www.w3.org/1999/xlink" width="1553" height="315" viewBox="0 0 1553 315">
  <defs>
    <linearGradient id="linear-gradient" x1="0.83" y1="1" x2="0.165" gradientUnits="objectBoundingBox">
      <stop offset="0" stop-color="#eed1a7"/>
      <stop offset="1" stop-color="#c6c6db"/>
    </linearGradient>
    <filter id="사각형_4542" x="0" y="0" width="1553" height="315" filterUnits="userSpaceOnUse">
      <feOffset dx="1" dy="1" input="SourceAlpha"/>
      <feGaussianBlur stdDeviation="0.5" result="blur"/>
      <feFlood flood-opacity="0.161"/>
      <feComposite operator="in" in2="blur"/>
      <feComposite in="SourceGraphic"/>
    </filter>
    <filter id="타원_99" x="894.5" y="78.5" width="14" height="14" filterUnits="userSpaceOnUse">
      <feOffset dx="1" dy="1" input="SourceAlpha"/>
      <feGaussianBlur stdDeviation="1" result="blur-2"/>
      <feFlood flood-opacity="0.161"/>
      <feComposite operator="in" in2="blur-2"/>
      <feComposite in="SourceGraphic"/>
    </filter>
  </defs>
  <g id="그룹_7431" data-name="그룹 7431" transform="translate(-321.5 -1204.5)">
    <g transform="matrix(1, 0, 0, 1, 321.5, 1204.5)" filter="url(#사각형_4542)">
      <rect id="사각형_4542-2" data-name="사각형 4542" width="1550" height="312" rx="8" transform="translate(0.5 0.5)" fill="url(#linear-gradient)"/>
    </g>
    <text id="Cost_-_Top_Regions" data-name="Cost - Top Regions" transform="translate(346 1250)" fill="#333" font-size="18" font-family="NotoSansKR-Regular, Noto Sans KR"><tspan x="0" y="0">Cost - Top Regions</tspan></text>
    <path id="교차_9" data-name="교차 9" d="M-1252,2153a8,8,0,0,1-8-8v-86.431h193.674s2.444,19.753,27.861,18.79S-1054.4,2105.3-1054.4,2105.3l-55.283,21.295-12.073,26.4Z" transform="translate(1582 -636)" fill="#fff" opacity="0.5"/>
    <path id="교차_8" data-name="교차 8" d="M176.4,2153,290,2051.769V2145a8,8,0,0,1-8,8Zm-885.765,0,96.25-27.9,66.556,14.16,125.274-75.846,228.742,75.846,66.555-55.226,67.972,41.066,78.165-28.322L176.4,2153Zm-413.683,0,218.223-39.225L-709.364,2153Z" transform="translate(1582 -636)" fill="#fff" opacity="0.3"/>
    <g id="그룹_7424" data-name="그룹 7424" transform="translate(0 1067)">
      <g id="Space_via_telescope" data-name="Space via telescope" transform="translate(346 -76.352)">
        <g id="Telescope" transform="translate(81.293 278.268)">
          <g id="Group_392" data-name="Group 392" transform="translate(36.174 25.781)">
            <path id="Path_571" data-name="Path 571" d="M2247.713,1252.4a.767.767,0,0,0,.682.834l.711.073a.764.764,0,0,0,.834-.682l7.51-73.579h4.258v73.782a.5.5,0,0,0,.5.5h2.877a.5.5,0,0,0,.5-.5v-73.783h5.13l6.634,73.684a.767.767,0,0,0,.829.692l.71-.064a.764.764,0,0,0,.692-.828l-6.619-73.484h.774a1.081,1.081,0,0,0,1.079-1.079v-1.012a1.082,1.082,0,0,0-1.079-1.079h-8.151v-37.089l7.663-.438a1.269,1.269,0,0,0,1.021-.632,1.251,1.251,0,0,0,.286-.812l-.178-10.327a1.273,1.273,0,0,0-1.292-1.247l-1.19.019a1.276,1.276,0,0,0-1.25,1.292l.136,7.969-14.665.837a1.276,1.276,0,0,0-1.2,1.342l.076,1.33a1.277,1.277,0,0,0,1.342,1.2l5.365-.308v36.867h-6.888a1.081,1.081,0,0,0-1.078,1.079v1.012a1.081,1.081,0,0,0,1.078,1.079h.378Z" transform="translate(-2247.71 -1125.331)" fill="#2a5b61"/>
            <path id="Path_572" data-name="Path 572" d="M2275.594,1274.206a1.589,1.589,0,1,0,1.589-1.589,1.588,1.588,0,0,0-1.589,1.589Zm-19-1.589a1.589,1.589,0,1,1-1.589,1.589,1.589,1.589,0,0,1,1.589-1.589Zm9.952-1.219a2.807,2.807,0,1,1-2.807,2.807,2.807,2.807,0,0,1,2.807-2.807Z" transform="translate(-2250.715 -1194.907)" fill="#0f5b8d"/>
          </g>
          <g id="ong_nhom" data-name="ong nhom" transform="translate(21.645 0) rotate(25)">
            <path id="Path_573" data-name="Path 573" d="M22.386,0,0,16.6l1.7,2.412L26.329,5.915Z" transform="translate(9.207 29.772)" fill="#2a5b61"/>
            <path id="Path_574" data-name="Path 574" d="M54.652,7.8a7.355,7.355,0,0,1-1.375,3.906L47.959,14.74,5.76,38.71,0,29.4,41.023,3.487,46.469.042a7.242,7.242,0,0,1,2.4.142,7.4,7.4,0,0,1,5.779,7.621Z" transform="translate(28.523 0)" fill="#1e997a"/>
            <circle id="Ellipse_113" data-name="Ellipse 113" cx="3.36" cy="3.36" r="3.36" transform="translate(54.094 22.222)" fill="#0f5b8d"/>
            <path id="Path_575" data-name="Path 575" d="M7.894,0,0,5.764,1.418,8.5,10.3,3.773Z" transform="translate(9.6 40.225)" fill="#2a5b61"/>
            <rect id="Rectangle_15" data-name="Rectangle 15" width="11.501" height="2.939" rx="1.469" transform="translate(11.869 48.553) rotate(166.611)" fill="#2a5b61"/>
          </g>
        </g>
      </g>
      <g id="Man" transform="translate(376.53 234.5)">
        <g id="shoes" transform="translate(0 105.767)">
          <g id="Group_393" data-name="Group 393" transform="translate(0 0)">
            <path id="Path_576" data-name="Path 576" d="M2450.12,1344.873s-2.1,5.089,1.25,5.372,6.758,1.96,6.825,4.429c.013.466-18.025-.263-18.025-.421-.018-4.323,3.744-13.959,3.744-13.959Z" transform="translate(-2440.17 -1340.294)" fill="#276d72"/>
            <path id="Path_577" data-name="Path 577" d="M2440.489,1353.393c.394-4.619,3.7-13.1,3.7-13.1l5.949,4.39a7.362,7.362,0,0,0-.37,2.722c-.118,1.322.18,2.7,1.878,2.84,2.947.249,5.931,1.575,6.658,3.569C2456.674,1354.1,2443.344,1353.607,2440.489,1353.393Z" transform="translate(-2440.45 -1340.295)" fill="#e6881c"/>
            <path id="Path_578" data-name="Path 578" d="M2445.434,1355.222c1.117.161,1.639-.239,2.7-.412a5.772,5.772,0,0,1,1.565-.036,1.883,1.883,0,0,0,1.86,1.773c2.947.249,7.208,1.762,6.658,3.569-1.635.285-14.963-.207-17.819-.422a34.2,34.2,0,0,1,1.344-6.171c.215.084.415.167.586.238C2443.864,1354.4,2444.186,1355.042,2445.434,1355.222Z" transform="translate(-2440.354 -1346.596)" fill="#1e997a"/>
            <path id="Path_579" data-name="Path 579" d="M2442.153,1360.816a4.858,4.858,0,0,1,.863-.527c2.257.641,4.276,1.772,3.886,3.049a63.931,63.931,0,0,1-6.51.028A5.284,5.284,0,0,1,2442.153,1360.816Z" transform="translate(-2429.043 -1349.818)" fill="#2a5b61"/>
          </g>
          <g id="Group_394" data-name="Group 394" transform="translate(39.329 2.695)">
            <path id="Path_580" data-name="Path 580" d="M2372.438,1346.452s-.082,4.982,3.271,5.266,6.027.351,6.355,3.67c.083.836-11.524,1.709-15.743,1.2-1.05-.127-.892-.993-.989-2.046a38.2,38.2,0,0,0-2.423-9.1Z" transform="translate(-2362.91 -1345.443)" fill="#276d72"/>
            <path id="Path_581" data-name="Path 581" d="M2367.228,1355.783a2.222,2.222,0,0,1-1.8-1.39,24.168,24.168,0,0,0-.536-3.058,42.4,42.4,0,0,0-1.736-5.868l9.256.981a9,9,0,0,0,.275,1.529c.259,1.492,1,3.571,3.133,3.751,3.078.26,5.578.346,6.223,2.925C2380.423,1355.433,2371.061,1356.246,2367.228,1355.783Z" transform="translate(-2363.025 -1345.453)" fill="#e6881c"/>
            <path id="Path_582" data-name="Path 582" d="M2365.427,1354.556a4.552,4.552,0,0,0,2.419.523c1.074-.114,1.314-.739,2.476-1.383a2.559,2.559,0,0,1,1.243-.3,3.156,3.156,0,0,0,2.656,2.107c3.078.26,5.579.345,6.223,2.925-1.623.781-10.987,1.594-14.819,1.13a2.222,2.222,0,0,1-1.8-1.39,24.128,24.128,0,0,0-.536-3.058c-.04-.2-.085-.393-.129-.589a3.893,3.893,0,0,1,2.263.036Z" transform="translate(-2361.421 -1349.227)" fill="#1e997a"/>
            <path id="Path_583" data-name="Path 583" d="M2363.162,1361.49a5.648,5.648,0,0,1,1.134-3.005,6.224,6.224,0,0,1,.621-.682c2.039.254,3.572.784,4.056,2.723A25.231,25.231,0,0,1,2363.162,1361.49Z" transform="translate(-2349.95 -1351.327)" fill="#2a5b61"/>
          </g>
        </g>
        <g id="Paints" transform="translate(1.224 33.715)">
          <path id="Path_584" data-name="Path 584" d="M2446.284,1216.481a147.894,147.894,0,0,1-3.316,27.585c-.849,3.967-3.813,9.277-5.483,13.149a134.873,134.873,0,0,0-4.5,12.949c-1.034,3.259-1.207,5.768-2.305,9.006-.4,1.167-.778,2.816-1.29,3.936-1.281,2.813-5.363,2.05-7.781,1.064-5.411-2.206-4.115-1.182-2.344-9.025,1.525-6.756,1.826-22.739,7.583-28.234,0,0-4.213-29.618,3.777-36.906S2446.284,1216.481,2446.284,1216.481Z" transform="translate(-2417.73 -1205.169)" fill="#2a5b61"/>
          <path id="Path_585" data-name="Path 585" d="M2399.487,1213.458s11.508,23.5,11.8,33.831c1.516,3.981,8.4,26.055,8.343,31.2-.032,2.933-2.721,2.994-5.586,3.394-2.905.4-4.537.935-5.8-1.365-2.83-5.161-7.984-21.827-8.916-27.554-.749-4.609-8.579-16.2-11.424-20.193,0,0-15.865-9.581-4.417-25.384C2393.162,1194.039,2399.487,1213.458,2399.487,1213.458Z" transform="translate(-2370.974 -1202.704)" fill="#276d72"/>
        </g>
        <g id="Head" transform="translate(38.817 0)">
          <path id="Path_586" data-name="Path 586" d="M2383.411,1147.091a3.52,3.52,0,0,1,.2.437,9.363,9.363,0,0,1,.063,4.3,28.452,28.452,0,0,1-1.058,4.594c-.55,1.813-2.145,4.428-4.165,4.774-3.464.593-5.83-5.543-5.83-5.543s-3.558-1.553-1.732-4.594,2.683.818,2.683.824c-.2-.9.576-2.557.908-3.344.738-1.744,2.032-3.458,4.073-3.593C2380.356,1144.821,2382.51,1145.424,2383.411,1147.091Z" transform="translate(-2368.132 -1141.468)" fill="#ffc6b3"/>
          <path id="Path_587" data-name="Path 587" d="M2371.392,1159.1s1.446,4.165.689,4.8-1.924.464-1.855,0S2371.392,1159.1,2371.392,1159.1Z" transform="translate(-2356.463 -1148.219)" fill="#ffc6b3"/>
          <path id="Path_588" data-name="Path 588" d="M2376,1139.538s4.932-1.595,5.382,1.834-2.1,6.806-7.94,6.318-6.078-2.171-7.518,1.028c0,0-.141.4-.3-.016-.238-.634-.834-1.973-1.516-1.724-.934.34-1.375,2.773-1.375,2.773s-3.8-1.078-1.483-6.836a3.138,3.138,0,0,1,3.8-2.07s3.314-3.26,7.306-2.369A20.077,20.077,0,0,1,2376,1139.538Z" transform="translate(-2360.501 -1138.321)" fill="#b14225"/>
          <path id="Path_589" data-name="Path 589" d="M2375.37,1158.288a2.193,2.193,0,0,0-.683-.457,2.5,2.5,0,0,0-.808-.213,1.921,1.921,0,0,0-.846.123,1.349,1.349,0,0,0-.632.547,2.88,2.88,0,0,1,.719-.271,2.983,2.983,0,0,1,.731-.03,5.347,5.347,0,0,1,.746.117Z" transform="translate(-2360.673 -1147.509)" fill="#603213"/>
          <ellipse id="Ellipse_114" data-name="Ellipse 114" cx="0.495" cy="0.742" rx="0.495" ry="0.742" transform="translate(12.963 11.15)" fill="#603213"/>
          <path id="Path_590" data-name="Path 590" d="M2378.333,1169.176s-2.254,1.059-2.942-1.185c0,0-.206-1.646,1.107-.334C2377.237,1168.4,2379.464,1168.461,2378.333,1169.176Z" transform="translate(-2365.511 -1152.053)" fill="#b23622" opacity="0.7"/>
        </g>
        <path id="Path_591" data-name="Path 591" d="M2342.949,1172.8s6.97-6.867,1.722-11.768c-3.676-3.434-5.874,8.17-5.874,8.17Z" transform="translate(-2275.518 -1148.838)" fill="#ffc6b3"/>
        <g id="Group_395" data-name="Group 395" transform="translate(13.955 13.668)">
          <path id="Path_592" data-name="Path 592" d="M2359.217,1189.862a13.86,13.86,0,0,0,2.4-2.815c1.624-2.129,3.553-4.15,5.177-6.279,1.98-2.6,3.684-5.279,5.671-7.871a.827.827,0,0,0,.213-.437c.02-.43-4.01-3.525-3.956-3.575,0,0-11.088,10.056-13.075,18.424-.239,1-.3,2.3.767,2.827A2.5,2.5,0,0,0,2359.217,1189.862Z" transform="translate(-2324.268 -1166.549)" fill="#b14225"/>
          <path id="Path_593" data-name="Path 593" d="M2375.049,1165.534s-12.3-6.231-26.036,10.792c-3.938,4.881-3.819,12.268-3.819,12.268s10.126,8.59,15.99,6.924c0,0,2.4-6.174,8.8-8.161l3.527,3.121c1.555,1.377,3.964,3.62,6.082,4.192,2.4.649,4.355-.333,6.352-1.8a16.921,16.921,0,0,0,3.1-3.424c1.388-1.8,2.691-3.659,3.971-5.535q1.867-2.737,3.661-5.523c.762-1.178,1.5-2.37,2.273-3.544.273-.417-.507-.893-.767-1.141-.39-.375-.793-.739-1.2-1.1q-1.025-.912-2.072-1.8c-.008-.006-.314-.32-.314-.32l-12.164,14.932S2379.886,1168.814,2375.049,1165.534Z" transform="translate(-2345.194 -1164.421)" fill="#ea8102"/>
          <path id="Path_594" data-name="Path 594" d="M2395.878,1199.865c.571,2.192,2.189,5.355,6.052,9.762-2.117-.572-3.561-2.264-5.116-3.641l-3.526-3.121c-6.4,1.987-8.8,8.161-8.8,8.161s-2.628-9.414,5.89-13.671a3.909,3.909,0,0,1,5.5,2.51Z" transform="translate(-2368.5 -1179.929)" fill="#d16309"/>
        </g>
        <path id="Finger" d="M2354.481,1174.157s5.631-5.546,1.391-9.507c-2.969-2.774-4.744,6.6-4.744,6.6Z" transform="translate(-2292.798 -1150.619)" fill="#ffc6b3"/>
      </g>
    </g>
    <text id="seoul" transform="translate(1077 1394)" fill="#333" font-size="16" font-family="NotoSansKR-Regular, Noto Sans KR"><tspan x="-25.528" y="0">SEOUL</tspan></text>
    <text id="virginia" transform="translate(1189 1394)" fill="#333" font-size="16" font-family="NotoSansKR-Regular, Noto Sans KR"><tspan x="-32.864" y="0">VIRGINIA</tspan></text>
    <circle id="타원_96" data-name="타원 96" cx="48" cy="48" r="48" transform="translate(1141 1275)" fill="rgba(255,255,255,0.7)"/>
    <circle id="타원_98" data-name="타원 98" cx="48" cy="48" r="48" transform="translate(1029 1275)" fill="rgba(255,255,255,0.7)"/>
    <g transform="matrix(1, 0, 0, 1, 321.5, 1204.5)" filter="url(#타원_99)">
      <circle id="타원_99-2" data-name="타원 99" cx="4" cy="4" r="4" transform="translate(896.5 80.5)" fill="#ed8c00" opacity="0"/>
    </g>
    <g id="그룹_7427" data-name="그룹 7427" transform="translate(0 -0.32)">
      <ellipse id="타원_107" data-name="타원 107" cx="24" cy="8" rx="24" ry="8" transform="translate(1053 1333)" fill="#ccc"/>
      <path id="mapPin" d="M20.727,2A15.727,15.727,0,0,0,5,17.727c0,8.911,9.895,22.063,13.988,27.12a2.233,2.233,0,0,0,3.478,0c4.094-5.057,13.988-18.21,13.988-27.12A15.727,15.727,0,0,0,20.727,2Zm0,21.344a5.617,5.617,0,1,1,5.617-5.617A5.616,5.616,0,0,1,20.727,23.344Z" transform="translate(1056 1295.32)" fill="#ed8c00"/>
    </g>
    <g id="그룹_7428" data-name="그룹 7428" transform="translate(112 -0.32)">
      <ellipse id="타원_107-2" data-name="타원 107" cx="24" cy="8" rx="24" ry="8" transform="translate(1053 1333)" fill="#ccc"/>
      <path id="mapPin-2" data-name="mapPin" d="M20.727,2A15.727,15.727,0,0,0,5,17.727c0,8.911,9.895,22.063,13.988,27.12a2.233,2.233,0,0,0,3.478,0c4.094-5.057,13.988-18.21,13.988-27.12A15.727,15.727,0,0,0,20.727,2Zm0,21.344a5.617,5.617,0,1,1,5.617-5.617A5.616,5.616,0,0,1,20.727,23.344Z" transform="translate(1056 1295.32)" fill="#ed8c00"/>
    </g>
  </g>
</svg>
