<svg xmlns="http://www.w3.org/2000/svg" xmlns:xlink="http://www.w3.org/1999/xlink" width="1553" height="553" viewBox="0 0 1553 553">
  <defs>
    <linearGradient id="linear-gradient" x1="0.83" y1="1" x2="0.165" gradientUnits="objectBoundingBox">
      <stop offset="0" stop-color="#eed1a7"/>
      <stop offset="1" stop-color="#c6c6db"/>
    </linearGradient>
    <filter id="grd-bg" x="0" y="0" width="1553" height="553" filterUnits="userSpaceOnUse">
      <feOffset dx="1" dy="1" input="SourceAlpha"/>
      <feGaussianBlur stdDeviation="0.5" result="blur"/>
      <feFlood flood-opacity="0.161"/>
      <feComposite operator="in" in2="blur"/>
      <feComposite in="SourceGraphic"/>
    </filter>
    <clipPath id="clip-path">
      <rect id="사각형_4397" data-name="사각형 4397" width="37.998" height="37.784" transform="translate(0 0)" fill="#333"/>
    </clipPath>
    <clipPath id="clip-path-2">
      <rect id="사각형_4398" data-name="사각형 4398" width="34.002" height="38.001" transform="translate(0 0)" fill="#333"/>
    </clipPath>
    <clipPath id="clip-path-3">
      <rect id="사각형_4399" data-name="사각형 4399" width="41.773" height="41.936" transform="translate(0 0)" fill="#333"/>
    </clipPath>
    <clipPath id="clip-path-4">
      <rect id="사각형_4400" data-name="사각형 4400" width="42.02" height="42.009" transform="translate(0 0)" fill="#333"/>
    </clipPath>
    <clipPath id="clip-path-5">
      <rect id="사각형_4401" data-name="사각형 4401" width="36.642" height="41.999" transform="translate(0 0)" fill="#333"/>
    </clipPath>
    <clipPath id="clip-path-6">
      <rect id="사각형_4402" data-name="사각형 4402" width="42" height="42" fill="#333"/>
    </clipPath>
    <filter id="CloudOps" x="44.5" y="92.5" width="412" height="108" filterUnits="userSpaceOnUse">
      <feOffset dx="2" dy="2" input="SourceAlpha"/>
      <feGaussianBlur stdDeviation="2" result="blur-2"/>
      <feFlood flood-opacity="0.161"/>
      <feComposite operator="in" in2="blur-2"/>
      <feComposite in="SourceGraphic"/>
    </filter>
  </defs>
  <g id="그룹_7417" data-name="그룹 7417" transform="translate(-321.5 -120.5)">
    <g id="main-bg">
      <g transform="matrix(1, 0, 0, 1, 321.5, 120.5)" filter="url(#grd-bg)">
        <rect id="grd-bg-2" data-name="grd-bg" width="1550" height="550" rx="8" transform="translate(0.5 0.5)" fill="url(#linear-gradient)"/>
      </g>
      <path id="패스_22993" data-name="패스 22993" d="M120,0,0,62.847l120,62.847L240,62.847Z" transform="translate(624 442.561)" fill="#fff" opacity="0.2"/>
      <path id="패스_23001" data-name="패스 23001" d="M120,0,0,62.847l120,62.847L240,62.847Z" transform="translate(864 316.866)" fill="#fff" opacity="0.6"/>
      <path id="패스_22994" data-name="패스 22994" d="M120,0,0,62.847l120,62.847L240,62.847Z" transform="translate(864 442.561)" fill="#fff" opacity="0.4"/>
      <path id="패스_23012" data-name="패스 23012" d="M120,0,0,62.847l120,62.847L240,62.847Z" transform="translate(984 254.02)" fill="#fff" opacity="0.3"/>
      <path id="패스_23010" data-name="패스 23010" d="M120,0,0,62.847l120,62.847L240,62.847Z" transform="translate(1464 379.714)" fill="#fff" opacity="0.4"/>
      <g id="교차_5" data-name="교차 5" opacity="0.2">
        <path id="교차_5-2" data-name="교차 5" d="M7153,2035.848,7273,1973l48,25.139v75.417l-48,25.138Z" transform="translate(-5449 -1720)" fill="#fff"/>
        <path id="교차_5_-_윤곽선" data-name="교차 5 - 윤곽선" d="M7273,2099.258l-.232-.122-120.846-63.289.846-.443L7273,1972.435l48.5,25.4v76.022Zm-118.922-63.41L7273,2098.129l47.5-24.876v-74.812l-47.5-24.877Z" transform="translate(-5449 -1720)" fill="rgba(0,0,0,0)"/>
      </g>
      <path id="패스_23016" data-name="패스 23016" d="M120,0,0,62.847l120,62.847L240,62.847Z" transform="translate(1584 191.173)" fill="#fff" opacity="0.1"/>
      <path id="패스_23017" data-name="패스 23017" d="M120,0,0,62.847l120,62.847L240,62.847Z" transform="translate(1584 316.866)" fill="#fff" opacity="0.3"/>
      <g id="교차_3" data-name="교차 3" opacity="0.8">
        <path id="교차_3-2" data-name="교차 3" d="M6869.181,2391,6793,2351.1l120-62.848,120,62.848-76.183,39.9Z" transform="translate(-5449 -1720)" fill="#fff"/>
        <path id="교차_3_-_윤곽선" data-name="교차 3 - 윤곽선" d="M6956.941,2391.5h-87.883l-.109-.057-77.027-40.34.846-.443L6913,2287.689l.232.122,120.848,63.291Zm-87.637-1h87.391l75.229-39.4L6913,2288.818,6794.077,2351.1Z" transform="translate(-5449 -1720)" fill="rgba(0,0,0,0)"/>
      </g>
      <path id="패스_23000" data-name="패스 23000" d="M120,0,0,62.847l120,62.847L240,62.847Z" transform="translate(1104 316.866)" fill="#fff" opacity="0.8"/>
      <path id="패스_23005" data-name="패스 23005" d="M120,0,0,62.847l120,62.847L240,62.847Z" transform="translate(1584 442.561)" fill="#fff" opacity="0.8"/>
      <g id="교차_4" data-name="교차 4" opacity="0.2">
        <path id="교차_4-2" data-name="교차 4" d="M7273,2351.1l48-25.139v50.277Z" transform="translate(-5449 -1720)" fill="#fff"/>
        <path id="교차_4_-_윤곽선" data-name="교차 4 - 윤곽선" d="M7321.5,2377.066l-49.577-25.964.846-.443,48.731-25.522Zm-47.422-25.964,46.422,24.312v-48.625Z" transform="translate(-5449 -1720)" fill="rgba(0,0,0,0)"/>
      </g>
      <path id="패스_23004" data-name="패스 23004" d="M120,0,0,62.847l120,62.847L240,62.847Z" transform="translate(984 505.407)" fill="#fff" opacity="0.8"/>
      <path id="패스_23008" data-name="패스 23008" d="M120,0,0,62.847l120,62.847L240,62.847Z" transform="translate(1464 505.407)" fill="#fff" opacity="0.4"/>
      <path id="패스_22997" data-name="패스 22997" d="M120,0,0,62.847l120,62.847L240,62.847Z" transform="translate(1224 379.714)" fill="#fff" opacity="0.6"/>
      <path id="패스_23013" data-name="패스 23013" d="M120,0,0,62.847l120,62.847L240,62.847Z" transform="translate(1224 254.02)" fill="#fff" opacity="0.4"/>
    </g>
    <g id="main-objects">
      <g id="main-Topology" transform="translate(569.455 -104.654)">
        <path id="Shadow" d="M115.495,111.483c0,11.191-25.857,20.262-57.751,20.262S0,122.674,0,111.483,25.854,91.225,57.744,91.225s57.751,9.071,57.751,20.258" transform="translate(363.545 372.265)" fill="rgba(0,0,0,0.16)"/>
        <g id="그룹_7237" data-name="그룹 7237">
          <path id="패스_22859" data-name="패스 22859" d="M0,97.1v82.726C0,189.7,22.813,197.7,50.952,197.7s50.958-8,50.958-17.875V97.1Z" transform="translate(363.545 301.512)" fill="#666"/>
          <path id="패스_22860" data-name="패스 22860" d="M101.909,109.1c0,9.875-22.816,17.878-50.958,17.878S0,118.975,0,109.1,22.813,91.225,50.952,91.225s50.958,8,50.958,17.875" transform="translate(363.545 289.513)" fill="#999"/>
          <path id="패스_22867" data-name="패스 22867" d="M92.425,99.99a45.28,45.28,0,1,0-90.56,0c0,25.006,45.281,81.734,45.281,81.734S92.425,125,92.425,99.99" transform="translate(367.354 214.945)" fill="#666"/>
        </g>
        <path id="StateColor" d="M70.527,91.2a32.178,32.178,0,1,0-32.176,32.176A32.179,32.179,0,0,0,70.527,91.2" transform="translate(375.828 223.984)" fill="#ed7471"/>
        <g id="ic-Topology" transform="translate(395 296)">
          <g id="그룹_7177" data-name="그룹 7177" clip-path="url(#clip-path)">
            <path id="패스_22941" data-name="패스 22941" d="M22.6,16.4H15.4a4.6,4.6,0,0,1-4.6-4.6V4.6A4.6,4.6,0,0,1,15.4,0h7.2a4.605,4.605,0,0,1,4.6,4.6v7.2a4.605,4.605,0,0,1-4.6,4.6M15.4,2a2.6,2.6,0,0,0-2.6,2.6v7.2a2.6,2.6,0,0,0,2.6,2.6h7.2a2.6,2.6,0,0,0,2.6-2.6V4.6A2.6,2.6,0,0,0,22.6,2Z" fill="#333"/>
            <path id="패스_22942" data-name="패스 22942" d="M35.2,37.784H29.8a2.8,2.8,0,0,1-2.8-2.8v-5.4a2.8,2.8,0,0,1,2.8-2.8h5.4a2.8,2.8,0,0,1,2.8,2.8v5.4a2.8,2.8,0,0,1-2.8,2.8m-5.4-9a.8.8,0,0,0-.8.8v5.4a.8.8,0,0,0,.8.8h5.4a.8.8,0,0,0,.8-.8v-5.4a.8.8,0,0,0-.8-.8Z" fill="#333"/>
            <path id="패스_22943" data-name="패스 22943" d="M8.2,37.784H2.8a2.8,2.8,0,0,1-2.8-2.8v-5.4a2.8,2.8,0,0,1,2.8-2.8H8.2a2.8,2.8,0,0,1,2.8,2.8v5.4a2.8,2.8,0,0,1-2.8,2.8m-5.4-9a.8.8,0,0,0-.8.8v5.4a.8.8,0,0,0,.8.8H8.2a.8.8,0,0,0,.8-.8v-5.4a.8.8,0,0,0-.8-.8Z" fill="#333"/>
            <path id="패스_22944" data-name="패스 22944" d="M21.7,37.784H16.3a2.8,2.8,0,0,1-2.8-2.8v-5.4a2.8,2.8,0,0,1,2.8-2.8h5.4a2.8,2.8,0,0,1,2.8,2.8v5.4a2.8,2.8,0,0,1-2.8,2.8m-5.4-9a.8.8,0,0,0-.8.8v5.4a.8.8,0,0,0,.8.8h5.4a.8.8,0,0,0,.8-.8v-5.4a.8.8,0,0,0-.8-.8Z" fill="#333"/>
            <path id="패스_22945" data-name="패스 22945" d="M32.5,28.243a1,1,0,0,1-1-1V22.589H6.5v4.654a1,1,0,0,1-2,0V21.589a1,1,0,0,1,1-1h27a1,1,0,0,1,1,1v5.654a1,1,0,0,1-1,1" fill="#333"/>
            <path id="패스_22946" data-name="패스 22946" d="M19,28.78a1,1,0,0,1-1-1V15.4a1,1,0,1,1,2,0V27.78a1,1,0,0,1-1,1" fill="#333"/>
          </g>
        </g>
      </g>
      <g id="main-Governance" transform="translate(555.5 83.887)">
        <path id="Shadow-2" data-name="Shadow" d="M115.495,111.483c0,11.191-25.857,20.262-57.751,20.262S0,122.674,0,111.483,25.854,91.225,57.744,91.225s57.751,9.071,57.751,20.258" transform="translate(497.545 372.469)" fill="rgba(0,0,0,0.16)"/>
        <g id="그룹_7238" data-name="그룹 7238">
          <path id="패스_22973" data-name="패스 22973" d="M0,97.1v82.726C0,189.7,22.813,197.7,50.952,197.7s50.958-8,50.958-17.875V97.1Z" transform="translate(497.545 301.512)" fill="#555"/>
          <path id="패스_22974" data-name="패스 22974" d="M101.909,109.1c0,9.875-22.816,17.878-50.958,17.878S0,118.975,0,109.1,22.813,91.225,50.952,91.225s50.958,8,50.958,17.875" transform="translate(497.545 289.513)" fill="#999"/>
          <path id="패스_22975" data-name="패스 22975" d="M92.425,99.99a45.28,45.28,0,1,0-90.56,0c0,25.006,45.281,81.734,45.281,81.734S92.425,125,92.425,99.99" transform="translate(501.354 214.945)" fill="#555"/>
        </g>
        <path id="StateColor-2" data-name="StateColor" d="M70.527,91.2a32.178,32.178,0,1,0-32.176,32.176A32.179,32.179,0,0,0,70.527,91.2" transform="translate(509.828 223.984)" fill="#dbe961"/>
        <g id="ic-Governance" transform="translate(531 296)">
          <g id="그룹_7179" data-name="그룹 7179" clip-path="url(#clip-path-2)">
            <path id="패스_22947" data-name="패스 22947" d="M33,15.572H1a1,1,0,0,1-.647-1.763l16-13.572a1,1,0,0,1,1.294,0l16,13.572A1,1,0,0,1,33,15.572m-29.277-2H30.277L17,2.311Z" fill="#333"/>
            <path id="패스_22948" data-name="패스 22948" d="M33,19.572H1a1,1,0,0,1-1-1v-4a1,1,0,0,1,1-1H33a1,1,0,0,1,1,1v4a1,1,0,0,1-1,1m-31-2H32v-2H2Z" fill="#333"/>
            <path id="패스_22949" data-name="패스 22949" d="M33,38H1a1,1,0,0,1-1-1V33.276a1,1,0,0,1,1-1H33a1,1,0,0,1,1,1V37a1,1,0,0,1-1,1M2,36H32V34.276H2Z" fill="#333"/>
            <path id="패스_22950" data-name="패스 22950" d="M29,34.276H25a1,1,0,0,1-1-1v-14.7a1,1,0,0,1,1-1h4a1,1,0,0,1,1,1v14.7a1,1,0,0,1-1,1m-3-2h2v-12.7H26Z" fill="#333"/>
            <path id="패스_22951" data-name="패스 22951" d="M19,34.276H15a1,1,0,0,1-1-1v-14.7a1,1,0,0,1,1-1h4a1,1,0,0,1,1,1v14.7a1,1,0,0,1-1,1m-3-2h2v-12.7H16Z" fill="#333"/>
            <path id="패스_22952" data-name="패스 22952" d="M9,34.276H5a1,1,0,0,1-1-1v-14.7a1,1,0,0,1,1-1H9a1,1,0,0,1,1,1v14.7a1,1,0,0,1-1,1m-3-2H8v-12.7H6Z" fill="#333"/>
            <path id="패스_22953" data-name="패스 22953" d="M17,12a3,3,0,1,1,3-3,3,3,0,0,1-3,3m0-4a1,1,0,1,0,1,1,1,1,0,0,0-1-1" fill="#333"/>
          </g>
        </g>
      </g>
      <g id="main-NetworkPolicy" transform="translate(397.725 -224.654)">
        <path id="Shadow-3" data-name="Shadow" d="M115.495,111.483c0,11.191-25.857,20.262-57.751,20.262S0,122.674,0,111.483,25.854,91.225,57.744,91.225s57.751,9.071,57.751,20.258" transform="translate(775.527 492.469)" fill="rgba(0,0,0,0.16)"/>
        <g id="그룹_7239" data-name="그룹 7239">
          <path id="패스_22981" data-name="패스 22981" d="M0,97.1v82.726C0,189.7,22.813,197.7,50.952,197.7s50.958-8,50.958-17.875V97.1Z" transform="translate(775.32 421.512)" fill="#555"/>
          <path id="패스_22982" data-name="패스 22982" d="M101.909,109.1c0,9.875-22.816,17.878-50.958,17.878S0,118.975,0,109.1,22.813,91.225,50.952,91.225s50.958,8,50.958,17.875" transform="translate(775.32 409.513)" fill="#999"/>
          <path id="패스_22983" data-name="패스 22983" d="M92.425,99.99a45.28,45.28,0,1,0-90.56,0c0,25.006,45.281,81.734,45.281,81.734S92.425,125,92.425,99.99" transform="translate(779.129 334.945)" fill="#555"/>
        </g>
        <path id="StateColor-3" data-name="StateColor" d="M70.527,91.2a32.178,32.178,0,1,0-32.176,32.176A32.179,32.179,0,0,0,70.527,91.2" transform="translate(787.828 343.984)" fill="#fbf665"/>
        <g id="ic-NetworkPolicy" transform="translate(805 414)">
          <g id="그룹_7181" data-name="그룹 7181" clip-path="url(#clip-path-3)">
            <path id="패스_22954" data-name="패스 22954" d="M27.224,41.936H5a5.006,5.006,0,0,1-5-5V5A5.006,5.006,0,0,1,5,0H27.224a5.006,5.006,0,0,1,5,5V9.275a1,1,0,1,1-2,0V5a3,3,0,0,0-3-3H5A3,3,0,0,0,2,5V36.936a3,3,0,0,0,3,3H27.224a3,3,0,0,0,3-3V32.31a1,1,0,1,1,2,0v4.626a5.006,5.006,0,0,1-5,5" fill="#333"/>
            <path id="패스_22955" data-name="패스 22955" d="M14.986,7.905H6.893a1,1,0,0,1,0-2h8.093a1,1,0,0,1,0,2" fill="#333"/>
            <path id="패스_22956" data-name="패스 22956" d="M21.482,14.944H6.894a1,1,0,1,1,0-2H21.482a1,1,0,0,1,0,2" fill="#333"/>
            <path id="패스_22957" data-name="패스 22957" d="M21.542,21.982H6.894a1,1,0,0,1,0-2H21.542a1,1,0,0,1,0,2" fill="#333"/>
            <path id="패스_22958" data-name="패스 22958" d="M24.325,29.021H6.893a1,1,0,1,1,0-2H24.325a1,1,0,0,1,0,2" fill="#333"/>
            <path id="패스_22959" data-name="패스 22959" d="M15.323,36.061H6.894a1,1,0,0,1,0-2h8.429a1,1,0,1,1,0,2" fill="#333"/>
            <path id="패스_22960" data-name="패스 22960" d="M31.224,33.309a1.006,1.006,0,0,1-.529-.151l-4.024-2.511a12.665,12.665,0,0,1-6-10.809V12.423a1,1,0,0,1,.687-.949l9.55-3.149a.972.972,0,0,1,.626,0l9.549,3.149a1,1,0,0,1,.687.949v7.415a12.666,12.666,0,0,1-6,10.809l-4.024,2.511a1.009,1.009,0,0,1-.529.151m-8.55-20.162v6.691a10.676,10.676,0,0,0,5.055,9.112l3.5,2.18,3.494-2.18a10.676,10.676,0,0,0,5.055-9.112V13.147l-8.549-2.82Z" fill="#333"/>
            <path id="패스_22961" data-name="패스 22961" d="M31.224,27.989a1,1,0,0,1-.529-.152l-2.165-1.35a7.272,7.272,0,0,1-3.443-6.207V16.29a1,1,0,0,1,.687-.95l5.137-1.693a1,1,0,0,1,.626,0l5.137,1.693a1,1,0,0,1,.687.95v3.99a7.272,7.272,0,0,1-3.443,6.207l-2.164,1.35a1,1,0,0,1-.53.152M27.087,17.014V20.28a5.281,5.281,0,0,0,2.5,4.509l1.635,1.021,1.635-1.021a5.281,5.281,0,0,0,2.5-4.509V17.014L31.224,15.65Z" fill="#333"/>
          </g>
        </g>
      </g>
      <g id="main-NetworkFlow" transform="translate(275.269 -180.153)">
        <path id="Shadow-4" data-name="Shadow" d="M115.495,111.483c0,11.191-25.857,20.262-57.751,20.262S0,122.674,0,111.483,25.854,91.225,57.744,91.225s57.751,9.071,57.751,20.258" transform="translate(1017.731 510.816)" fill="rgba(0,0,0,0.16)"/>
        <g id="그룹_7240" data-name="그룹 7240">
          <path id="패스_22989" data-name="패스 22989" d="M0,97.1v82.726C0,189.7,22.813,197.7,50.952,197.7s50.958-8,50.958-17.875V97.1Z" transform="translate(1017.731 439.858)" fill="#666"/>
          <path id="패스_22990" data-name="패스 22990" d="M101.909,109.1c0,9.875-22.816,17.878-50.958,17.878S0,118.975,0,109.1,22.813,91.225,50.952,91.225s50.958,8,50.958,17.875" transform="translate(1017.731 427.859)" fill="#999"/>
          <path id="패스_22991" data-name="패스 22991" d="M92.425,99.99a45.28,45.28,0,1,0-90.56,0c0,25.006,45.281,81.734,45.281,81.734S92.425,125,92.425,99.99" transform="translate(1021.539 353.291)" fill="#666"/>
        </g>
        <path id="StateColor-4" data-name="StateColor" d="M70.527,91.2a32.178,32.178,0,1,0-32.176,32.176A32.179,32.179,0,0,0,70.527,91.2" transform="translate(1029.828 361.984)" fill="#7db797"/>
        <g id="ic-NetworkFlow" transform="translate(1048 433)">
          <g id="그룹_7183" data-name="그룹 7183" clip-path="url(#clip-path-4)">
            <path id="패스_22962" data-name="패스 22962" d="M34,22.038H27.055a1,1,0,0,1,0-2H34A6.017,6.017,0,0,0,34,8.005H13.01a1,1,0,0,1,0-2H34a8.017,8.017,0,0,1,0,16.033" fill="#333"/>
            <path id="패스_22963" data-name="패스 22963" d="M29,36H8.063a7.982,7.982,0,1,1,0-15.965h6.982a1,1,0,0,1,0,2H8.063A5.982,5.982,0,1,0,8.063,34H29a1,1,0,0,1,0,2" fill="#333"/>
            <path id="패스_22964" data-name="패스 22964" d="M7.006,14.011a7.005,7.005,0,1,1,7-7.006,7.014,7.014,0,0,1-7,7.006M7.006,2a5.005,5.005,0,1,0,5,5.005A5.011,5.011,0,0,0,7.006,2" fill="#333"/>
            <path id="패스_22965" data-name="패스 22965" d="M21.05,28.014a7.005,7.005,0,1,1,7.005-7,7.014,7.014,0,0,1-7.005,7M21.05,16a5.005,5.005,0,1,0,5.005,5.006A5.011,5.011,0,0,0,21.05,16" fill="#333"/>
            <path id="패스_22966" data-name="패스 22966" d="M35,42.009a7.005,7.005,0,1,1,7-7.006,7.014,7.014,0,0,1-7,7.006M35,30a5.005,5.005,0,1,0,5,5,5.01,5.01,0,0,0-5-5" fill="#333"/>
          </g>
        </g>
      </g>
      <g id="main-Resources" transform="translate(513.725 146.734)">
        <path id="Shadow-5" data-name="Shadow" d="M115.495,111.483c0,11.191-25.857,20.262-57.751,20.262S0,122.674,0,111.483,25.854,91.225,57.744,91.225s57.751,9.071,57.751,20.258" transform="translate(899.32 372.469)" fill="rgba(0,0,0,0.16)"/>
        <g id="그룹_7241" data-name="그룹 7241">
          <path id="패스_22985" data-name="패스 22985" d="M0,97.1v82.726C0,189.7,22.813,197.7,50.952,197.7s50.958-8,50.958-17.875V97.1Z" transform="translate(899.32 301.512)" fill="#555"/>
          <path id="패스_22986" data-name="패스 22986" d="M101.909,109.1c0,9.875-22.816,17.878-50.958,17.878S0,118.975,0,109.1,22.813,91.225,50.952,91.225s50.958,8,50.958,17.875" transform="translate(899.32 289.513)" fill="#999"/>
          <path id="패스_22987" data-name="패스 22987" d="M92.425,99.99a45.28,45.28,0,1,0-90.56,0c0,25.006,45.281,81.734,45.281,81.734S92.425,125,92.425,99.99" transform="translate(903.129 214.945)" fill="#555"/>
        </g>
        <path id="StateColor-5" data-name="StateColor" d="M70.527,91.2a32.178,32.178,0,1,0-32.176,32.176A32.179,32.179,0,0,0,70.527,91.2" transform="translate(911.828 223.984)" fill="#ed7471"/>
        <g id="ic-Resources" transform="translate(932 294)">
          <g id="그룹_7185" data-name="그룹 7185" clip-path="url(#clip-path-5)">
            <path id="패스_22967" data-name="패스 22967" d="M18.32,42a1,1,0,0,1-.5-.134L.5,31.865A1,1,0,0,1,0,31V11a1,1,0,0,1,.5-.866l17.32-10a1,1,0,0,1,1,0l17.321,10a1,1,0,0,1,.5.866V31a1,1,0,0,1-.5.866l-17.321,10a1,1,0,0,1-.5.134M2,30.422l16.32,9.423,16.321-9.423V11.576L18.32,2.153,2,11.576ZM35.641,31h0Z" fill="#333"/>
            <path id="패스_22968" data-name="패스 22968" d="M18.32,22a1,1,0,0,1-.5-.134L.5,11.865a1,1,0,1,1,1-1.732l17.32,10A1,1,0,0,1,18.32,22" fill="#333"/>
            <path id="패스_22969" data-name="패스 22969" d="M18.321,42a1,1,0,0,1-1-1V21a1,1,0,0,1,2,0V41a1,1,0,0,1-1,1" fill="#333"/>
            <path id="패스_22970" data-name="패스 22970" d="M18.322,22a1,1,0,0,1-.5-1.866l17.321-10a1,1,0,1,1,1,1.732l-17.321,10a.994.994,0,0,1-.5.134" fill="#333"/>
          </g>
        </g>
      </g>
      <g id="main-Cost" transform="translate(1013.909 21.04)">
        <path id="Shadow-6" data-name="Shadow" d="M115.495,111.483c0,11.191-25.857,20.262-57.751,20.262S0,122.674,0,111.483,25.854,91.225,57.744,91.225s57.751,9.071,57.751,20.258" transform="translate(639.136 372.469)" fill="rgba(0,0,0,0.16)"/>
        <g id="그룹_7242" data-name="그룹 7242">
          <path id="패스_22977" data-name="패스 22977" d="M0,97.1v82.726C0,189.7,22.813,197.7,50.952,197.7s50.958-8,50.958-17.875V97.1Z" transform="translate(639.091 301.512)" fill="#555"/>
          <path id="패스_22978" data-name="패스 22978" d="M101.909,109.1c0,9.875-22.816,17.878-50.958,17.878S0,118.975,0,109.1,22.813,91.225,50.952,91.225s50.958,8,50.958,17.875" transform="translate(639.091 289.513)" fill="#999"/>
          <path id="패스_22979" data-name="패스 22979" d="M92.425,99.99a45.28,45.28,0,1,0-90.56,0c0,25.006,45.281,81.734,45.281,81.734S92.425,125,92.425,99.99" transform="translate(642.899 214.945)" fill="#555"/>
        </g>
        <path id="StateColor-6" data-name="StateColor" d="M70.527,91.2a32.178,32.178,0,1,0-32.176,32.176A32.179,32.179,0,0,0,70.527,91.2" transform="translate(651.828 223.984)" fill="#f2ae4c"/>
        <g id="ic-Cost" transform="translate(669 294)">
          <g id="그룹_7187" data-name="그룹 7187" clip-path="url(#clip-path-6)">
            <path id="패스_22971" data-name="패스 22971" d="M26.88,27.631a4.291,4.291,0,0,0-1.271-3.206,12.384,12.384,0,0,0-4.485-2.357,13.028,13.028,0,0,1-5.6-2.976,6.271,6.271,0,0,1-1.606-4.458,6.368,6.368,0,0,1,1.765-4.67,7.314,7.314,0,0,1,4.8-2.04V4.357h1.8V7.924A6.76,6.76,0,0,1,27.1,10.245a8.4,8.4,0,0,1,1.7,5.554H26.7a6.429,6.429,0,0,0-1.439-4.4,4.969,4.969,0,0,0-3.929-1.633,5.491,5.491,0,0,0-3.911,1.317,4.588,4.588,0,0,0-1.4,3.511,4.293,4.293,0,0,0,1.289,3.316A12.576,12.576,0,0,0,21.7,20.151a19.483,19.483,0,0,1,4.5,2.014,6.431,6.431,0,0,1,2.1,2.278A6.651,6.651,0,0,1,29,27.6a6.245,6.245,0,0,1-1.809,4.669,7.7,7.7,0,0,1-4.972,2.023v3.355H20.435V34.305a8.056,8.056,0,0,1-5.491-2.233A7.545,7.545,0,0,1,13,26.588H15.12a5.745,5.745,0,0,0,1.607,4.318,6.161,6.161,0,0,0,4.485,1.562A6.1,6.1,0,0,0,25.3,31.127a4.371,4.371,0,0,0,1.58-3.5" fill="#333"/>
            <path id="패스_22972" data-name="패스 22972" d="M21,42A21,21,0,1,1,42,21,21.024,21.024,0,0,1,21,42M21,2A19,19,0,1,0,40,21,19.021,19.021,0,0,0,21,2" fill="#333"/>
          </g>
        </g>
      </g>
    </g>
    <g id="main-ment">
      <g transform="matrix(1, 0, 0, 1, 321.5, 120.5)" filter="url(#CloudOps)">
        <text id="CloudOps-2" data-name="CloudOps" transform="translate(48.5 172.5)" fill="#222" font-size="80" font-family="Roboto-Black, Roboto" font-weight="800" letter-spacing="-0.02em"><tspan x="0" y="0">CLOUDOPS</tspan></text>
      </g>
      <text id="Cloud_Automation_Platform_-_Assets_Cost_Security_Network_Compliance_and_Governance." data-name="Cloud Automation Platform - Assets, Cost, Security, Network, Compliance, and Governance." transform="translate(370 324)" fill="#333" font-size="16" font-family="NotoSansKR-Light, Noto Sans KR" font-weight="300"><tspan x="0" y="19">Cloud Automation Platform - Assets, Cost, Security, </tspan><tspan x="0" y="43">Network, Compliance, and Governance.</tspan></text>
    </g>
  </g>
</svg>
