<svg xmlns="http://www.w3.org/2000/svg" xmlns:xlink="http://www.w3.org/1999/xlink" width="98" zoomAndPan="magnify" viewBox="0 0 73.5 70.499998" height="94" preserveAspectRatio="xMidYMid meet" version="1.0"><defs><g/></defs><path fill="#ff8500" d="M 49.320312 11.667969 L 62.71875 35 L 49.320312 58.335938 L 22.515625 58.335938 L 9.117188 35 L 22.519531 11.667969 Z M 49.320312 11.667969 " fill-opacity="1" fill-rule="evenodd"/><path fill="#ffeedb" d="M 48.277344 13.480469 L 60.636719 35 L 48.277344 56.523438 L 23.558594 56.523438 L 11.199219 35 L 23.558594 13.480469 Z M 48.277344 13.480469 " fill-opacity="1" fill-rule="evenodd"/><path fill="#ff8500" d="M 47.742188 14.414062 L 59.566406 35 L 47.742188 55.589844 L 24.09375 55.589844 L 12.269531 35 L 24.09375 14.414062 Z M 47.742188 14.414062 " fill-opacity="1" fill-rule="evenodd"/><path fill="#ffeedb" d="M 35.816406 37.109375 L 35.816406 32.894531 L 48.050781 32.894531 L 48.050781 30.785156 L 54.496094 35 L 48.050781 39.21875 L 48.050781 37.109375 Z M 35.816406 37.109375 " fill-opacity="1" fill-rule="evenodd"/><path fill="#ffeedb" d="M 37.914062 35 L 33.71875 35 L 33.71875 22.703125 L 31.621094 22.703125 L 35.816406 16.222656 L 40.011719 22.703125 L 37.914062 22.703125 Z M 37.914062 35 " fill-opacity="1" fill-rule="evenodd"/><path fill="#ffeedb" d="M 36.019531 37.109375 L 36.019531 32.894531 L 23.785156 32.894531 L 23.785156 30.785156 L 17.339844 35 L 23.785156 39.21875 L 23.785156 37.109375 Z M 36.019531 37.109375 " fill-opacity="1" fill-rule="evenodd"/><path fill="#ffeedb" d="M 44.457031 35 C 44.457031 35.566406 44.402344 36.125 44.292969 36.675781 C 44.183594 37.230469 44.023438 37.765625 43.808594 38.289062 C 43.59375 38.808594 43.332031 39.304688 43.019531 39.773438 C 42.707031 40.242188 42.351562 40.675781 41.957031 41.074219 C 41.558594 41.472656 41.128906 41.828125 40.664062 42.140625 C 40.195312 42.453125 39.703125 42.71875 39.1875 42.933594 C 38.667969 43.148438 38.132812 43.3125 37.585938 43.421875 C 37.035156 43.53125 36.480469 43.585938 35.917969 43.585938 C 35.355469 43.585938 34.800781 43.53125 34.253906 43.421875 C 33.703125 43.3125 33.167969 43.148438 32.648438 42.933594 C 32.132812 42.71875 31.640625 42.453125 31.171875 42.140625 C 30.707031 41.828125 30.277344 41.472656 29.878906 41.074219 C 29.484375 40.675781 29.128906 40.242188 28.816406 39.773438 C 28.503906 39.304688 28.242188 38.808594 28.027344 38.289062 C 27.8125 37.765625 27.652344 37.230469 27.542969 36.675781 C 27.433594 36.125 27.378906 35.566406 27.378906 35 C 27.378906 34.4375 27.433594 33.878906 27.542969 33.328125 C 27.652344 32.773438 27.8125 32.238281 28.027344 31.714844 C 28.242188 31.195312 28.503906 30.699219 28.816406 30.230469 C 29.128906 29.761719 29.484375 29.328125 29.878906 28.929688 C 30.277344 28.53125 30.707031 28.175781 31.171875 27.863281 C 31.640625 27.550781 32.132812 27.285156 32.648438 27.070312 C 33.167969 26.855469 33.703125 26.691406 34.253906 26.582031 C 34.800781 26.472656 35.355469 26.414062 35.917969 26.414062 C 36.480469 26.414062 37.035156 26.472656 37.585938 26.582031 C 38.132812 26.691406 38.667969 26.855469 39.1875 27.070312 C 39.703125 27.285156 40.195312 27.550781 40.664062 27.863281 C 41.128906 28.175781 41.558594 28.53125 41.957031 28.929688 C 42.351562 29.328125 42.707031 29.761719 43.019531 30.230469 C 43.332031 30.699219 43.59375 31.195312 43.808594 31.714844 C 44.023438 32.238281 44.183594 32.773438 44.292969 33.328125 C 44.402344 33.878906 44.457031 34.4375 44.457031 35 Z M 44.457031 35 " fill-opacity="1" fill-rule="nonzero"/><path fill="#ff8500" d="M 41.21875 35 C 41.21875 35.351562 41.1875 35.699219 41.117188 36.042969 C 41.050781 36.386719 40.949219 36.71875 40.816406 37.042969 C 40.683594 37.363281 40.519531 37.671875 40.328125 37.964844 C 40.132812 38.253906 39.914062 38.523438 39.667969 38.769531 C 39.421875 39.019531 39.152344 39.238281 38.863281 39.433594 C 38.574219 39.628906 38.269531 39.792969 37.945312 39.925781 C 37.625 40.0625 37.292969 40.160156 36.953125 40.230469 C 36.609375 40.296875 36.265625 40.332031 35.917969 40.332031 C 35.570312 40.332031 35.226562 40.296875 34.882812 40.230469 C 34.542969 40.160156 34.210938 40.0625 33.890625 39.925781 C 33.566406 39.792969 33.261719 39.628906 32.972656 39.433594 C 32.683594 39.238281 32.414062 39.019531 32.167969 38.769531 C 31.921875 38.523438 31.703125 38.253906 31.507812 37.964844 C 31.316406 37.671875 31.152344 37.363281 31.019531 37.042969 C 30.886719 36.71875 30.785156 36.386719 30.71875 36.042969 C 30.648438 35.699219 30.617188 35.351562 30.617188 35 C 30.617188 34.652344 30.648438 34.304688 30.71875 33.960938 C 30.785156 33.617188 30.886719 33.285156 31.019531 32.960938 C 31.152344 32.636719 31.316406 32.332031 31.507812 32.039062 C 31.703125 31.75 31.921875 31.480469 32.167969 31.230469 C 32.414062 30.984375 32.683594 30.765625 32.972656 30.570312 C 33.261719 30.375 33.566406 30.210938 33.890625 30.078125 C 34.210938 29.941406 34.542969 29.839844 34.882812 29.773438 C 35.226562 29.707031 35.570312 29.671875 35.917969 29.671875 C 36.265625 29.671875 36.609375 29.707031 36.953125 29.773438 C 37.292969 29.839844 37.625 29.941406 37.945312 30.078125 C 38.269531 30.210938 38.574219 30.375 38.863281 30.570312 C 39.152344 30.765625 39.421875 30.984375 39.667969 31.230469 C 39.914062 31.480469 40.132812 31.75 40.328125 32.039062 C 40.519531 32.332031 40.683594 32.636719 40.816406 32.960938 C 40.949219 33.285156 41.050781 33.617188 41.117188 33.960938 C 41.1875 34.304688 41.21875 34.652344 41.21875 35 Z M 41.21875 35 " fill-opacity="1" fill-rule="nonzero"/><path fill="#ffeedb" d="M 39.503906 50 C 39.503906 50.492188 39.410156 50.964844 39.222656 51.417969 C 39.035156 51.871094 38.769531 52.273438 38.421875 52.621094 C 38.078125 52.96875 37.679688 53.234375 37.226562 53.421875 C 36.777344 53.613281 36.304688 53.707031 35.816406 53.707031 C 35.328125 53.707031 34.859375 53.613281 34.40625 53.421875 C 33.953125 53.234375 33.554688 52.96875 33.210938 52.621094 C 32.863281 52.273438 32.597656 51.871094 32.410156 51.417969 C 32.222656 50.964844 32.128906 50.492188 32.128906 50 C 32.128906 49.507812 32.222656 49.035156 32.410156 48.582031 C 32.597656 48.128906 32.863281 47.726562 33.210938 47.378906 C 33.554688 47.03125 33.953125 46.765625 34.40625 46.574219 C 34.859375 46.386719 35.328125 46.292969 35.816406 46.292969 C 36.304688 46.292969 36.777344 46.386719 37.226562 46.574219 C 37.679688 46.765625 38.078125 47.03125 38.421875 47.378906 C 38.769531 47.726562 39.035156 48.128906 39.222656 48.582031 C 39.410156 49.035156 39.503906 49.507812 39.503906 50 Z M 39.503906 50 " fill-opacity="1" fill-rule="nonzero"/><path fill="#ffeedb" d="M 33.742188 42.367188 L 37.894531 42.367188 L 37.894531 48.671875 L 33.742188 48.671875 Z M 33.742188 42.367188 " fill-opacity="1" fill-rule="evenodd"/><g fill="#ff8500" fill-opacity="1"><g transform="translate(35.08013, 37.213654)"><g><path d="M 0.328125 0 L 0.328125 -1.734375 L 2.40625 -1.734375 L 2.40625 0 Z M 0.328125 0 "/></g></g></g></svg>