<svg xmlns="http://www.w3.org/2000/svg" xmlns:xlink="http://www.w3.org/1999/xlink" width="127" zoomAndPan="magnify" viewBox="0 0 95.25 91.499997" height="122" preserveAspectRatio="xMidYMid meet" version="1.0"><defs><g/><clipPath id="2b56fb342c"><path d="M 0 23.113281 L 93.761719 23.113281 L 93.761719 90.828125 L 0 90.828125 Z M 0 23.113281 " clip-rule="nonzero"/></clipPath><clipPath id="23f0e51bf2"><path d="M 0 28 L 93.761719 28 L 93.761719 86 L 0 86 Z M 0 28 " clip-rule="nonzero"/></clipPath><clipPath id="83d1dba0a5"><path d="M 0 23.113281 L 47 23.113281 L 47 60 L 0 60 Z M 0 23.113281 " clip-rule="nonzero"/></clipPath></defs><g clip-path="url(#2b56fb342c)"><path fill="#b22334" d="M 92.289062 28.320312 C 90.484375 25.21875 87.167969 23.113281 83.320312 23.113281 L 46.878906 23.113281 L 46.878906 28.320312 Z M 0.0273438 75.203125 L 93.734375 75.203125 L 93.734375 80.410156 L 0.0273438 80.410156 Z M 46.878906 54.367188 L 93.734375 54.367188 L 93.734375 59.574219 L 46.878906 59.574219 Z M 46.878906 43.949219 L 93.734375 43.949219 L 93.734375 49.15625 L 46.878906 49.15625 Z M 0.0273438 64.785156 L 93.734375 64.785156 L 93.734375 69.992188 L 0.0273438 69.992188 Z M 10.441406 90.828125 L 83.320312 90.828125 C 87.167969 90.828125 90.484375 88.722656 92.289062 85.621094 L 1.472656 85.621094 C 3.277344 88.722656 6.59375 90.828125 10.441406 90.828125 Z M 46.878906 33.53125 L 93.734375 33.53125 L 93.734375 38.738281 L 46.878906 38.738281 Z M 46.878906 33.53125 " fill-opacity="1" fill-rule="nonzero"/></g><g clip-path="url(#23f0e51bf2)"><path fill="#eeeeee" d="M 0.203125 82.179688 C 0.25 82.421875 0.296875 82.664062 0.359375 82.898438 C 0.425781 83.164062 0.507812 83.414062 0.597656 83.671875 C 0.828125 84.34375 1.109375 84.996094 1.464844 85.605469 L 1.472656 85.621094 L 92.289062 85.621094 L 92.292969 85.609375 C 92.644531 85.003906 92.925781 84.351562 93.160156 83.679688 C 93.246094 83.421875 93.332031 83.164062 93.402344 82.894531 C 93.460938 82.660156 93.511719 82.421875 93.554688 82.179688 C 93.660156 81.605469 93.734375 81.015625 93.734375 80.410156 L 0.0273438 80.410156 C 0.0273438 81.015625 0.101562 81.601562 0.203125 82.179688 Z M 0.0273438 69.992188 L 93.734375 69.992188 L 93.734375 75.203125 L 0.0273438 75.203125 Z M 0.0273438 59.574219 L 0.0273438 64.785156 L 93.734375 64.785156 L 93.734375 59.574219 Z M 46.878906 49.15625 L 93.734375 49.15625 L 93.734375 54.367188 L 46.878906 54.367188 Z M 46.878906 38.738281 L 93.734375 38.738281 L 93.734375 43.949219 L 46.878906 43.949219 Z M 0.0273438 33.53125 C 0.0273438 32.921875 0.105469 32.339844 0.203125 31.761719 C 0.101562 32.335938 0.0273438 32.921875 0.0273438 33.53125 Z M 1.472656 28.320312 L 1.464844 28.332031 Z M 0.359375 31.039062 C 0.425781 30.773438 0.515625 30.519531 0.601562 30.265625 C 0.511719 30.519531 0.429688 30.777344 0.359375 31.039062 Z M 46.878906 33.53125 L 93.734375 33.53125 C 93.734375 32.921875 93.660156 32.332031 93.554688 31.757812 C 93.511719 31.519531 93.464844 31.277344 93.402344 31.042969 C 93.332031 30.777344 93.246094 30.515625 93.15625 30.257812 C 92.925781 29.585938 92.644531 28.9375 92.292969 28.332031 C 92.292969 28.328125 92.292969 28.324219 92.289062 28.320312 L 46.878906 28.320312 Z M 46.878906 33.53125 " fill-opacity="1" fill-rule="nonzero"/></g><g clip-path="url(#83d1dba0a5)"><path fill="#3c3b6e" d="M 46.878906 23.113281 L 10.441406 23.113281 C 4.691406 23.113281 0.0273438 27.777344 0.0273438 33.53125 L 0.0273438 59.574219 L 46.878906 59.574219 Z M 46.878906 23.113281 " fill-opacity="1" fill-rule="nonzero"/></g><path fill="#ffffff" d="M 5.234375 30.210938 L 6.84375 31.378906 L 6.230469 33.269531 L 7.835938 32.101562 L 9.445312 33.269531 L 8.832031 31.378906 L 10.441406 30.210938 L 8.449219 30.210938 L 7.835938 28.320312 L 7.226562 30.210938 Z M 10.441406 35.421875 L 12.050781 36.589844 L 11.4375 38.476562 L 13.042969 37.3125 L 14.652344 38.476562 L 14.035156 36.589844 L 15.644531 35.421875 L 13.65625 35.421875 L 13.042969 33.53125 L 12.429688 35.421875 Z M 20.855469 35.421875 L 22.460938 36.589844 L 21.847656 38.476562 L 23.453125 37.3125 L 25.0625 38.476562 L 24.449219 36.589844 L 26.058594 35.421875 L 24.070312 35.421875 L 23.453125 33.53125 L 22.84375 35.421875 Z M 31.265625 35.421875 L 32.875 36.589844 L 32.261719 38.476562 L 33.867188 37.3125 L 35.476562 38.476562 L 34.859375 36.589844 L 36.46875 35.421875 L 34.480469 35.421875 L 33.867188 33.53125 L 33.253906 35.421875 Z M 10.441406 45.839844 L 12.050781 47.007812 L 11.4375 48.894531 L 13.042969 47.730469 L 14.652344 48.894531 L 14.035156 47.007812 L 15.644531 45.839844 L 13.65625 45.839844 L 13.042969 43.949219 L 12.429688 45.839844 Z M 20.855469 45.839844 L 22.460938 47.007812 L 21.847656 48.894531 L 23.453125 47.730469 L 25.0625 48.894531 L 24.449219 47.007812 L 26.058594 45.839844 L 24.070312 45.839844 L 23.453125 43.949219 L 22.84375 45.839844 Z M 31.265625 45.839844 L 32.875 47.007812 L 32.261719 48.894531 L 33.867188 47.730469 L 35.476562 48.894531 L 34.859375 47.007812 L 36.46875 45.839844 L 34.480469 45.839844 L 33.867188 43.949219 L 33.253906 45.839844 Z M 15.648438 30.210938 L 17.257812 31.378906 L 16.640625 33.269531 L 18.25 32.101562 L 19.855469 33.269531 L 19.242188 31.378906 L 20.851562 30.210938 L 18.863281 30.210938 L 18.25 28.320312 L 17.636719 30.210938 Z M 26.058594 30.210938 L 27.667969 31.378906 L 27.054688 33.269531 L 28.660156 32.101562 L 30.269531 33.269531 L 29.65625 31.378906 L 31.261719 30.210938 L 29.273438 30.210938 L 28.660156 28.320312 L 28.046875 30.210938 Z M 36.472656 30.210938 L 38.082031 31.378906 L 37.464844 33.269531 L 39.070312 32.101562 L 40.679688 33.269531 L 40.066406 31.378906 L 41.675781 30.210938 L 39.6875 30.210938 L 39.070312 28.320312 L 38.460938 30.210938 Z M 5.234375 40.628906 L 6.84375 41.796875 L 6.230469 43.6875 L 7.835938 42.519531 L 9.445312 43.6875 L 8.832031 41.796875 L 10.441406 40.628906 L 8.449219 40.628906 L 7.835938 38.738281 L 7.226562 40.628906 Z M 16.640625 43.6875 L 18.25 42.519531 L 19.855469 43.6875 L 19.242188 41.796875 L 20.851562 40.628906 L 18.863281 40.628906 L 18.25 38.738281 L 17.636719 40.628906 L 15.648438 40.628906 L 17.257812 41.796875 Z M 26.058594 40.628906 L 27.667969 41.796875 L 27.054688 43.6875 L 28.660156 42.519531 L 30.269531 43.6875 L 29.65625 41.796875 L 31.261719 40.628906 L 29.273438 40.628906 L 28.660156 38.738281 L 28.046875 40.628906 Z M 36.472656 40.628906 L 38.082031 41.796875 L 37.464844 43.6875 L 39.070312 42.519531 L 40.679688 43.6875 L 40.066406 41.796875 L 41.675781 40.628906 L 39.6875 40.628906 L 39.070312 38.738281 L 38.460938 40.628906 Z M 5.234375 51.046875 L 6.84375 52.214844 L 6.230469 54.105469 L 7.835938 52.9375 L 9.445312 54.105469 L 8.832031 52.214844 L 10.441406 51.046875 L 8.449219 51.046875 L 7.835938 49.15625 L 7.226562 51.046875 Z M 16.640625 54.105469 L 18.25 52.9375 L 19.855469 54.105469 L 19.242188 52.214844 L 20.851562 51.046875 L 18.863281 51.046875 L 18.25 49.15625 L 17.636719 51.046875 L 15.648438 51.046875 L 17.257812 52.214844 Z M 26.058594 51.046875 L 27.667969 52.214844 L 27.054688 54.105469 L 28.660156 52.9375 L 30.269531 54.105469 L 29.65625 52.214844 L 31.261719 51.046875 L 29.273438 51.046875 L 28.660156 49.15625 L 28.046875 51.046875 Z M 36.472656 51.046875 L 38.082031 52.214844 L 37.464844 54.105469 L 39.070312 52.9375 L 40.679688 54.105469 L 40.066406 52.214844 L 41.675781 51.046875 L 39.6875 51.046875 L 39.070312 49.15625 L 38.460938 51.046875 Z M 36.472656 51.046875 " fill-opacity="1" fill-rule="nonzero"/><g fill="#000000" fill-opacity="1"><g transform="translate(37.258229, 17.089584)"><g><path d="M 2.8125 0.09375 C 1.976562 0.09375 1.351562 -0.140625 0.9375 -0.609375 C 0.53125 -1.085938 0.328125 -1.796875 0.328125 -2.734375 L 0.328125 -10.21875 L 2.3125 -10.21875 L 2.3125 -2.8125 C 2.3125 -2.488281 2.34375 -2.234375 2.40625 -2.046875 C 2.476562 -1.867188 2.613281 -1.78125 2.8125 -1.78125 C 3.019531 -1.78125 3.15625 -1.867188 3.21875 -2.046875 C 3.28125 -2.222656 3.3125 -2.476562 3.3125 -2.8125 L 3.3125 -10.21875 L 5.296875 -10.21875 L 5.296875 -2.734375 C 5.296875 -1.796875 5.09375 -1.085938 4.6875 -0.609375 C 4.28125 -0.140625 3.65625 0.09375 2.8125 0.09375 Z M 2.8125 0.09375 "/></g></g></g><g fill="#000000" fill-opacity="1"><g transform="translate(42.896503, 17.089584)"><g><path d="M 2.875 0.09375 C 1.945312 0.09375 1.273438 -0.132812 0.859375 -0.59375 C 0.453125 -1.050781 0.25 -1.789062 0.25 -2.8125 L 0.25 -3.8125 L 2.265625 -3.8125 L 2.265625 -2.546875 C 2.265625 -2.035156 2.425781 -1.78125 2.75 -1.78125 C 2.925781 -1.78125 3.050781 -1.832031 3.125 -1.9375 C 3.195312 -2.050781 3.234375 -2.234375 3.234375 -2.484375 C 3.234375 -2.816406 3.191406 -3.09375 3.109375 -3.3125 C 3.035156 -3.53125 2.9375 -3.710938 2.8125 -3.859375 C 2.6875 -4.003906 2.46875 -4.234375 2.15625 -4.546875 L 1.265625 -5.421875 C 0.585938 -6.085938 0.25 -6.828125 0.25 -7.640625 C 0.25 -8.503906 0.445312 -9.164062 0.84375 -9.625 C 1.25 -10.082031 1.835938 -10.3125 2.609375 -10.3125 C 3.523438 -10.3125 4.1875 -10.066406 4.59375 -9.578125 C 5 -9.085938 5.203125 -8.320312 5.203125 -7.28125 L 3.109375 -7.28125 L 3.109375 -7.984375 C 3.109375 -8.117188 3.066406 -8.226562 2.984375 -8.3125 C 2.910156 -8.394531 2.804688 -8.4375 2.671875 -8.4375 C 2.515625 -8.4375 2.394531 -8.390625 2.3125 -8.296875 C 2.238281 -8.210938 2.203125 -8.09375 2.203125 -7.9375 C 2.203125 -7.601562 2.390625 -7.257812 2.765625 -6.90625 L 3.953125 -5.765625 C 4.234375 -5.492188 4.460938 -5.238281 4.640625 -5 C 4.828125 -4.757812 4.972656 -4.472656 5.078125 -4.140625 C 5.191406 -3.816406 5.25 -3.425781 5.25 -2.96875 C 5.25 -1.96875 5.066406 -1.207031 4.703125 -0.6875 C 4.335938 -0.164062 3.726562 0.09375 2.875 0.09375 Z M 2.875 0.09375 "/></g></g></g></svg>