<svg xmlns="http://www.w3.org/2000/svg" xmlns:xlink="http://www.w3.org/1999/xlink" width="127" zoomAndPan="magnify" viewBox="0 0 95.25 91.499997" height="122" preserveAspectRatio="xMidYMid meet" version="1.0"><defs><g/><clipPath id="ba46c0ced1"><path d="M 0 23.113281 L 93.761719 23.113281 L 93.761719 90.828125 L 0 90.828125 Z M 0 23.113281 " clip-rule="nonzero"/></clipPath><clipPath id="48bfd3ee05"><path d="M 26 23.113281 L 68 23.113281 L 68 90.828125 L 26 90.828125 Z M 26 23.113281 " clip-rule="nonzero"/></clipPath></defs><g clip-path="url(#ba46c0ced1)"><path fill="#d52b1e" d="M 10.441406 23.113281 C 4.691406 23.113281 0.0273438 27.777344 0.0273438 33.53125 L 0.0273438 80.410156 C 0.0273438 86.164062 4.691406 90.828125 10.441406 90.828125 L 26.058594 90.828125 L 26.058594 23.113281 Z M 83.320312 23.113281 L 67.703125 23.113281 L 67.703125 90.828125 L 83.320312 90.828125 C 89.070312 90.828125 93.734375 86.164062 93.734375 80.410156 L 93.734375 33.53125 C 93.734375 27.777344 89.070312 23.113281 83.320312 23.113281 Z M 83.320312 23.113281 " fill-opacity="1" fill-rule="nonzero"/></g><g clip-path="url(#48bfd3ee05)"><path fill="#eeeeee" d="M 26.058594 23.113281 L 67.703125 23.113281 L 67.703125 90.828125 L 26.058594 90.828125 Z M 26.058594 23.113281 " fill-opacity="1" fill-rule="nonzero"/></g><path fill="#d52b1e" d="M 48.480469 67.683594 C 51.601562 68.042969 54.394531 68.371094 57.511719 68.726562 L 56.71875 66.117188 C 56.589844 65.660156 56.773438 65.160156 57.132812 64.878906 L 66.1875 57.496094 L 64.3125 56.613281 C 63.488281 56.320312 63.714844 55.851562 64.011719 54.734375 L 65.394531 49.691406 L 60.136719 50.800781 C 59.621094 50.878906 59.28125 50.554688 59.203125 50.242188 L 58.523438 47.871094 L 54.363281 52.542969 C 53.773438 53.292969 52.574219 53.292969 52.949219 51.5625 L 54.726562 42.097656 L 52.339844 43.335938 C 51.671875 43.710938 51 43.773438 50.628906 43.105469 L 47.335938 36.941406 L 47.335938 37.09375 L 47.335938 36.941406 L 44.042969 43.105469 C 43.667969 43.773438 43 43.710938 42.332031 43.335938 L 39.945312 42.097656 L 41.722656 51.5625 C 42.097656 53.292969 40.898438 53.292969 40.308594 52.542969 L 36.148438 47.871094 L 35.472656 50.246094 C 35.394531 50.558594 35.050781 50.882812 34.539062 50.804688 L 29.277344 49.691406 L 30.660156 54.734375 C 30.953125 55.855469 31.183594 56.320312 30.355469 56.617188 L 28.484375 57.5 L 37.539062 64.878906 C 37.898438 65.160156 38.082031 65.660156 37.949219 66.121094 L 37.15625 68.730469 L 46.1875 67.683594 C 46.464844 67.683594 46.648438 67.839844 46.644531 68.15625 L 46.085938 77.804688 L 48.574219 77.804688 L 48.019531 68.15625 C 48.027344 67.835938 48.207031 67.683594 48.480469 67.683594 Z M 48.480469 67.683594 " fill-opacity="1" fill-rule="nonzero"/><g fill="#000000" fill-opacity="1"><g transform="translate(29.523298, 17.089584)"><g><path d="M 2.828125 0.09375 C 2.085938 0.09375 1.492188 -0.140625 1.046875 -0.609375 C 0.597656 -1.078125 0.375 -1.71875 0.375 -2.53125 L 0.375 -7.234375 C 0.375 -8.253906 0.570312 -9.019531 0.96875 -9.53125 C 1.375 -10.050781 2.007812 -10.3125 2.875 -10.3125 C 3.625 -10.3125 4.226562 -10.101562 4.6875 -9.6875 C 5.15625 -9.28125 5.390625 -8.6875 5.390625 -7.90625 L 5.390625 -6.140625 L 3.359375 -6.140625 L 3.359375 -7.65625 C 3.359375 -7.945312 3.320312 -8.148438 3.25 -8.265625 C 3.175781 -8.378906 3.050781 -8.4375 2.875 -8.4375 C 2.695312 -8.4375 2.570312 -8.367188 2.5 -8.234375 C 2.4375 -8.109375 2.40625 -7.925781 2.40625 -7.6875 L 2.40625 -2.5625 C 2.40625 -2.289062 2.441406 -2.09375 2.515625 -1.96875 C 2.597656 -1.84375 2.71875 -1.78125 2.875 -1.78125 C 3.195312 -1.78125 3.359375 -2.039062 3.359375 -2.5625 L 3.359375 -4.40625 L 5.40625 -4.40625 L 5.40625 -2.46875 C 5.40625 -0.757812 4.546875 0.09375 2.828125 0.09375 Z M 2.828125 0.09375 "/></g></g></g><g fill="#000000" fill-opacity="1"><g transform="translate(35.161572, 17.089584)"><g><path d="M 2 0.09375 C 1.320312 0.09375 0.859375 -0.128906 0.609375 -0.578125 C 0.359375 -1.023438 0.234375 -1.664062 0.234375 -2.5 C 0.234375 -3.175781 0.320312 -3.695312 0.5 -4.0625 C 0.675781 -4.425781 0.921875 -4.691406 1.234375 -4.859375 C 1.554688 -5.035156 2.046875 -5.226562 2.703125 -5.4375 L 3.265625 -5.625 L 3.265625 -6.515625 C 3.265625 -6.742188 3.21875 -6.921875 3.125 -7.046875 C 3.039062 -7.171875 2.9375 -7.234375 2.8125 -7.234375 C 2.695312 -7.234375 2.597656 -7.179688 2.515625 -7.078125 C 2.429688 -6.972656 2.390625 -6.832031 2.390625 -6.65625 L 2.390625 -6.140625 L 0.375 -6.140625 L 0.375 -6.421875 C 0.375 -7.273438 0.570312 -7.882812 0.96875 -8.25 C 1.363281 -8.613281 2.015625 -8.796875 2.921875 -8.796875 C 3.640625 -8.796875 4.222656 -8.609375 4.671875 -8.234375 C 5.128906 -7.859375 5.359375 -7.328125 5.359375 -6.640625 L 5.359375 0 L 3.296875 0 L 3.296875 -1.03125 C 3.191406 -0.675781 3.023438 -0.398438 2.796875 -0.203125 C 2.578125 -0.00390625 2.3125 0.09375 2 0.09375 Z M 2.8125 -1.515625 C 2.976562 -1.515625 3.09375 -1.582031 3.15625 -1.71875 C 3.226562 -1.851562 3.265625 -2.015625 3.265625 -2.203125 L 3.265625 -4.625 C 2.953125 -4.507812 2.722656 -4.359375 2.578125 -4.171875 C 2.429688 -3.992188 2.359375 -3.738281 2.359375 -3.40625 L 2.359375 -2.296875 C 2.359375 -1.773438 2.507812 -1.515625 2.8125 -1.515625 Z M 2.8125 -1.515625 "/></g></g></g><g fill="#000000" fill-opacity="1"><g transform="translate(40.906899, 17.089584)"><g><path d="M 0.421875 -8.703125 L 2.5 -8.703125 L 2.5 -7.59375 C 2.582031 -7.957031 2.726562 -8.25 2.9375 -8.46875 C 3.15625 -8.6875 3.445312 -8.796875 3.8125 -8.796875 C 4.394531 -8.796875 4.828125 -8.613281 5.109375 -8.25 C 5.390625 -7.894531 5.53125 -7.382812 5.53125 -6.71875 L 5.53125 0 L 3.484375 0 L 3.484375 -6.5 C 3.484375 -6.695312 3.445312 -6.859375 3.375 -6.984375 C 3.300781 -7.117188 3.179688 -7.1875 3.015625 -7.1875 C 2.804688 -7.1875 2.664062 -7.085938 2.59375 -6.890625 C 2.53125 -6.703125 2.5 -6.445312 2.5 -6.125 L 2.5 0 L 0.421875 0 Z M 0.421875 -8.703125 "/></g></g></g><g fill="#000000" fill-opacity="1"><g transform="translate(46.84255, 17.089584)"><g><path d="M 2 0.09375 C 1.320312 0.09375 0.859375 -0.128906 0.609375 -0.578125 C 0.359375 -1.023438 0.234375 -1.664062 0.234375 -2.5 C 0.234375 -3.175781 0.320312 -3.695312 0.5 -4.0625 C 0.675781 -4.425781 0.921875 -4.691406 1.234375 -4.859375 C 1.554688 -5.035156 2.046875 -5.226562 2.703125 -5.4375 L 3.265625 -5.625 L 3.265625 -6.515625 C 3.265625 -6.742188 3.21875 -6.921875 3.125 -7.046875 C 3.039062 -7.171875 2.9375 -7.234375 2.8125 -7.234375 C 2.695312 -7.234375 2.597656 -7.179688 2.515625 -7.078125 C 2.429688 -6.972656 2.390625 -6.832031 2.390625 -6.65625 L 2.390625 -6.140625 L 0.375 -6.140625 L 0.375 -6.421875 C 0.375 -7.273438 0.570312 -7.882812 0.96875 -8.25 C 1.363281 -8.613281 2.015625 -8.796875 2.921875 -8.796875 C 3.640625 -8.796875 4.222656 -8.609375 4.671875 -8.234375 C 5.128906 -7.859375 5.359375 -7.328125 5.359375 -6.640625 L 5.359375 0 L 3.296875 0 L 3.296875 -1.03125 C 3.191406 -0.675781 3.023438 -0.398438 2.796875 -0.203125 C 2.578125 -0.00390625 2.3125 0.09375 2 0.09375 Z M 2.8125 -1.515625 C 2.976562 -1.515625 3.09375 -1.582031 3.15625 -1.71875 C 3.226562 -1.851562 3.265625 -2.015625 3.265625 -2.203125 L 3.265625 -4.625 C 2.953125 -4.507812 2.722656 -4.359375 2.578125 -4.171875 C 2.429688 -3.992188 2.359375 -3.738281 2.359375 -3.40625 L 2.359375 -2.296875 C 2.359375 -1.773438 2.507812 -1.515625 2.8125 -1.515625 Z M 2.8125 -1.515625 "/></g></g></g><g fill="#000000" fill-opacity="1"><g transform="translate(52.587877, 17.089584)"><g><path d="M 2.125 0.09375 C 1.625 0.09375 1.242188 -0.0234375 0.984375 -0.265625 C 0.722656 -0.503906 0.550781 -0.820312 0.46875 -1.21875 C 0.382812 -1.625 0.34375 -2.140625 0.34375 -2.765625 L 0.375 -6.6875 C 0.375 -7.3125 0.53125 -7.816406 0.84375 -8.203125 C 1.15625 -8.597656 1.597656 -8.796875 2.171875 -8.796875 C 2.734375 -8.796875 3.148438 -8.609375 3.421875 -8.234375 L 3.421875 -10.28125 L 5.5 -10.28125 L 5.5 0 L 3.421875 0 L 3.421875 -0.921875 C 3.304688 -0.585938 3.144531 -0.332031 2.9375 -0.15625 C 2.738281 0.0078125 2.46875 0.09375 2.125 0.09375 Z M 2.921875 -1.53125 C 3.128906 -1.53125 3.265625 -1.628906 3.328125 -1.828125 C 3.390625 -2.035156 3.421875 -2.3125 3.421875 -2.65625 L 3.421875 -6.296875 C 3.421875 -6.546875 3.382812 -6.753906 3.3125 -6.921875 C 3.238281 -7.097656 3.113281 -7.1875 2.9375 -7.1875 C 2.726562 -7.1875 2.585938 -7.101562 2.515625 -6.9375 C 2.453125 -6.78125 2.421875 -6.566406 2.421875 -6.296875 L 2.421875 -2.625 C 2.421875 -1.894531 2.585938 -1.53125 2.921875 -1.53125 Z M 2.921875 -1.53125 "/></g></g></g><g fill="#000000" fill-opacity="1"><g transform="translate(58.511634, 17.089584)"><g><path d="M 2 0.09375 C 1.320312 0.09375 0.859375 -0.128906 0.609375 -0.578125 C 0.359375 -1.023438 0.234375 -1.664062 0.234375 -2.5 C 0.234375 -3.175781 0.320312 -3.695312 0.5 -4.0625 C 0.675781 -4.425781 0.921875 -4.691406 1.234375 -4.859375 C 1.554688 -5.035156 2.046875 -5.226562 2.703125 -5.4375 L 3.265625 -5.625 L 3.265625 -6.515625 C 3.265625 -6.742188 3.21875 -6.921875 3.125 -7.046875 C 3.039062 -7.171875 2.9375 -7.234375 2.8125 -7.234375 C 2.695312 -7.234375 2.597656 -7.179688 2.515625 -7.078125 C 2.429688 -6.972656 2.390625 -6.832031 2.390625 -6.65625 L 2.390625 -6.140625 L 0.375 -6.140625 L 0.375 -6.421875 C 0.375 -7.273438 0.570312 -7.882812 0.96875 -8.25 C 1.363281 -8.613281 2.015625 -8.796875 2.921875 -8.796875 C 3.640625 -8.796875 4.222656 -8.609375 4.671875 -8.234375 C 5.128906 -7.859375 5.359375 -7.328125 5.359375 -6.640625 L 5.359375 0 L 3.296875 0 L 3.296875 -1.03125 C 3.191406 -0.675781 3.023438 -0.398438 2.796875 -0.203125 C 2.578125 -0.00390625 2.3125 0.09375 2 0.09375 Z M 2.8125 -1.515625 C 2.976562 -1.515625 3.09375 -1.582031 3.15625 -1.71875 C 3.226562 -1.851562 3.265625 -2.015625 3.265625 -2.203125 L 3.265625 -4.625 C 2.953125 -4.507812 2.722656 -4.359375 2.578125 -4.171875 C 2.429688 -3.992188 2.359375 -3.738281 2.359375 -3.40625 L 2.359375 -2.296875 C 2.359375 -1.773438 2.507812 -1.515625 2.8125 -1.515625 Z M 2.8125 -1.515625 "/></g></g></g></svg>