<svg xmlns="http://www.w3.org/2000/svg" xmlns:xlink="http://www.w3.org/1999/xlink" width="127" zoomAndPan="magnify" viewBox="0 0 95.25 91.499997" height="122" preserveAspectRatio="xMidYMid meet" version="1.0"><defs><g/><clipPath id="a4feaa77fe"><path d="M 0 23.113281 L 93.761719 23.113281 L 93.761719 90.828125 L 0 90.828125 Z M 0 23.113281 " clip-rule="nonzero"/></clipPath></defs><g clip-path="url(#a4feaa77fe)"><path fill="#de2910" d="M 93.734375 80.410156 C 93.734375 86.164062 89.070312 90.828125 83.320312 90.828125 L 10.441406 90.828125 C 4.691406 90.828125 0.0273438 86.164062 0.0273438 80.410156 L 0.0273438 33.53125 C 0.0273438 27.777344 4.691406 23.113281 10.441406 23.113281 L 83.320312 23.113281 C 89.070312 23.113281 93.734375 27.777344 93.734375 33.53125 Z M 93.734375 80.410156 " fill-opacity="1" fill-rule="nonzero"/></g><path fill="#ffde02" d="M 29.015625 33.46875 L 30.929688 34.398438 L 32.464844 32.921875 L 32.175781 35.03125 L 34.046875 36.039062 L 31.957031 36.414062 L 31.582031 38.507812 L 30.574219 36.632812 L 28.46875 36.921875 L 29.941406 35.386719 Z M 41.15625 41.128906 L 40.230469 43.042969 L 41.703125 44.582031 L 39.597656 44.289062 L 38.59375 46.167969 L 38.21875 44.070312 L 36.121094 43.695312 L 38 42.6875 L 37.707031 40.582031 L 39.242188 42.054688 Z M 38.664062 50.972656 L 39.363281 52.980469 L 41.488281 53.027344 L 39.796875 54.3125 L 40.414062 56.351562 L 38.664062 55.132812 L 36.917969 56.351562 L 37.535156 54.3125 L 35.839844 53.027344 L 37.964844 52.980469 Z M 29.015625 59.515625 L 30.929688 60.441406 L 32.464844 58.96875 L 32.175781 61.078125 L 34.046875 62.082031 L 31.957031 62.457031 L 31.582031 64.550781 L 30.574219 62.675781 L 28.46875 62.964844 L 29.941406 61.429688 Z M 18.25 38.609375 L 20.667969 45.566406 L 28.023438 45.71875 L 22.15625 50.167969 L 24.289062 57.214844 L 18.25 53.007812 L 12.207031 57.214844 L 14.339844 50.167969 L 8.472656 45.71875 L 15.832031 45.566406 Z M 18.25 38.609375 " fill-opacity="1" fill-rule="nonzero"/><g fill="#000000" fill-opacity="1"><g transform="translate(33.783565, 17.089584)"><g><path d="M 2.828125 0.09375 C 2.085938 0.09375 1.492188 -0.140625 1.046875 -0.609375 C 0.597656 -1.078125 0.375 -1.71875 0.375 -2.53125 L 0.375 -7.234375 C 0.375 -8.253906 0.570312 -9.019531 0.96875 -9.53125 C 1.375 -10.050781 2.007812 -10.3125 2.875 -10.3125 C 3.625 -10.3125 4.226562 -10.101562 4.6875 -9.6875 C 5.15625 -9.28125 5.390625 -8.6875 5.390625 -7.90625 L 5.390625 -6.140625 L 3.359375 -6.140625 L 3.359375 -7.65625 C 3.359375 -7.945312 3.320312 -8.148438 3.25 -8.265625 C 3.175781 -8.378906 3.050781 -8.4375 2.875 -8.4375 C 2.695312 -8.4375 2.570312 -8.367188 2.5 -8.234375 C 2.4375 -8.109375 2.40625 -7.925781 2.40625 -7.6875 L 2.40625 -2.5625 C 2.40625 -2.289062 2.441406 -2.09375 2.515625 -1.96875 C 2.597656 -1.84375 2.71875 -1.78125 2.875 -1.78125 C 3.195312 -1.78125 3.359375 -2.039062 3.359375 -2.5625 L 3.359375 -4.40625 L 5.40625 -4.40625 L 5.40625 -2.46875 C 5.40625 -0.757812 4.546875 0.09375 2.828125 0.09375 Z M 2.828125 0.09375 "/></g></g></g><g fill="#000000" fill-opacity="1"><g transform="translate(39.421839, 17.089584)"><g><path d="M 0.421875 -10.28125 L 2.5625 -10.28125 L 2.5625 -7.84375 C 2.78125 -8.476562 3.203125 -8.796875 3.828125 -8.796875 C 4.410156 -8.796875 4.851562 -8.609375 5.15625 -8.234375 C 5.457031 -7.867188 5.609375 -7.359375 5.609375 -6.703125 L 5.609375 0 L 3.53125 0 L 3.53125 -6.578125 C 3.53125 -6.765625 3.484375 -6.914062 3.390625 -7.03125 C 3.304688 -7.15625 3.179688 -7.21875 3.015625 -7.21875 C 2.878906 -7.21875 2.769531 -7.15625 2.6875 -7.03125 C 2.601562 -6.90625 2.5625 -6.757812 2.5625 -6.59375 L 2.5625 0 L 0.421875 0 Z M 0.421875 -10.28125 "/></g></g></g><g fill="#000000" fill-opacity="1"><g transform="translate(45.428861, 17.089584)"><g><path d="M 0.40625 -9.28125 L 0.40625 -10.734375 L 2.484375 -10.734375 L 2.484375 -9.28125 Z M 0.40625 0 L 0.40625 -8.703125 L 2.484375 -8.703125 L 2.484375 0 Z M 0.40625 0 "/></g></g></g><g fill="#000000" fill-opacity="1"><g transform="translate(48.319368, 17.089584)"><g><path d="M 0.421875 -8.703125 L 2.5 -8.703125 L 2.5 -7.59375 C 2.582031 -7.957031 2.726562 -8.25 2.9375 -8.46875 C 3.15625 -8.6875 3.445312 -8.796875 3.8125 -8.796875 C 4.394531 -8.796875 4.828125 -8.613281 5.109375 -8.25 C 5.390625 -7.894531 5.53125 -7.382812 5.53125 -6.71875 L 5.53125 0 L 3.484375 0 L 3.484375 -6.5 C 3.484375 -6.695312 3.445312 -6.859375 3.375 -6.984375 C 3.300781 -7.117188 3.179688 -7.1875 3.015625 -7.1875 C 2.804688 -7.1875 2.664062 -7.085938 2.59375 -6.890625 C 2.53125 -6.703125 2.5 -6.445312 2.5 -6.125 L 2.5 0 L 0.421875 0 Z M 0.421875 -8.703125 "/></g></g></g><g fill="#000000" fill-opacity="1"><g transform="translate(54.25502, 17.089584)"><g><path d="M 2 0.09375 C 1.320312 0.09375 0.859375 -0.128906 0.609375 -0.578125 C 0.359375 -1.023438 0.234375 -1.664062 0.234375 -2.5 C 0.234375 -3.175781 0.320312 -3.695312 0.5 -4.0625 C 0.675781 -4.425781 0.921875 -4.691406 1.234375 -4.859375 C 1.554688 -5.035156 2.046875 -5.226562 2.703125 -5.4375 L 3.265625 -5.625 L 3.265625 -6.515625 C 3.265625 -6.742188 3.21875 -6.921875 3.125 -7.046875 C 3.039062 -7.171875 2.9375 -7.234375 2.8125 -7.234375 C 2.695312 -7.234375 2.597656 -7.179688 2.515625 -7.078125 C 2.429688 -6.972656 2.390625 -6.832031 2.390625 -6.65625 L 2.390625 -6.140625 L 0.375 -6.140625 L 0.375 -6.421875 C 0.375 -7.273438 0.570312 -7.882812 0.96875 -8.25 C 1.363281 -8.613281 2.015625 -8.796875 2.921875 -8.796875 C 3.640625 -8.796875 4.222656 -8.609375 4.671875 -8.234375 C 5.128906 -7.859375 5.359375 -7.328125 5.359375 -6.640625 L 5.359375 0 L 3.296875 0 L 3.296875 -1.03125 C 3.191406 -0.675781 3.023438 -0.398438 2.796875 -0.203125 C 2.578125 -0.00390625 2.3125 0.09375 2 0.09375 Z M 2.8125 -1.515625 C 2.976562 -1.515625 3.09375 -1.582031 3.15625 -1.71875 C 3.226562 -1.851562 3.265625 -2.015625 3.265625 -2.203125 L 3.265625 -4.625 C 2.953125 -4.507812 2.722656 -4.359375 2.578125 -4.171875 C 2.429688 -3.992188 2.359375 -3.738281 2.359375 -3.40625 L 2.359375 -2.296875 C 2.359375 -1.773438 2.507812 -1.515625 2.8125 -1.515625 Z M 2.8125 -1.515625 "/></g></g></g></svg>