<svg xmlns="http://www.w3.org/2000/svg" xmlns:xlink="http://www.w3.org/1999/xlink" width="127" zoomAndPan="magnify" viewBox="0 0 95.25 91.499997" height="122" preserveAspectRatio="xMidYMid meet" version="1.0"><defs><g/><clipPath id="1515e3fa6c"><path d="M 0 23.113281 L 93.761719 23.113281 L 93.761719 90.828125 L 0 90.828125 Z M 0 23.113281 " clip-rule="nonzero"/></clipPath></defs><g clip-path="url(#1515e3fa6c)"><path fill="#eeeeee" d="M 93.734375 80.410156 C 93.734375 86.164062 89.070312 90.828125 83.320312 90.828125 L 10.441406 90.828125 C 4.691406 90.828125 0.0273438 86.164062 0.0273438 80.410156 L 0.0273438 33.53125 C 0.0273438 27.777344 4.691406 23.113281 10.441406 23.113281 L 83.320312 23.113281 C 89.070312 23.113281 93.734375 27.777344 93.734375 33.53125 Z M 93.734375 80.410156 " fill-opacity="1" fill-rule="nonzero"/></g><path fill="#c60c30" d="M 55.835938 44.167969 C 48.773438 39.21875 39.035156 40.9375 34.085938 48.007812 C 31.613281 51.539062 32.472656 56.414062 36.003906 58.890625 C 39.539062 61.363281 44.40625 60.5 46.878906 56.96875 C 49.355469 53.4375 54.226562 52.574219 57.757812 55.054688 C 61.289062 57.527344 62.148438 62.398438 59.675781 65.933594 C 64.621094 58.867188 62.90625 49.121094 55.835938 44.167969 Z M 55.835938 44.167969 " fill-opacity="1" fill-rule="nonzero"/><path fill="#003478" d="M 57.757812 55.054688 C 54.226562 52.574219 49.355469 53.4375 46.878906 56.96875 C 44.40625 60.5 39.539062 61.363281 36.003906 58.890625 C 32.472656 56.414062 31.613281 51.539062 34.085938 48.003906 C 29.140625 55.078125 30.855469 64.820312 37.921875 69.769531 C 44.988281 74.71875 54.722656 73.003906 59.671875 65.929688 C 62.148438 62.398438 61.289062 57.527344 57.757812 55.054688 Z M 57.757812 55.054688 " fill-opacity="1" fill-rule="nonzero"/><path fill="#292f33" d="M 63.367188 76.691406 L 68.386719 70.707031 L 70.378906 72.378906 L 65.363281 78.367188 Z M 70.058594 68.714844 L 75.074219 62.730469 L 77.070312 64.40625 L 72.050781 70.386719 Z M 67.355469 80.046875 L 72.375 74.0625 L 74.367188 75.738281 L 69.347656 81.71875 Z M 74.050781 72.058594 L 79.074219 66.078125 L 81.066406 67.753906 L 76.042969 73.734375 Z M 71.339844 83.394531 L 76.363281 77.414062 L 78.355469 79.085938 L 73.335938 85.070312 Z M 78.03125 75.414062 L 83.050781 69.421875 L 85.046875 71.097656 L 80.03125 77.085938 Z M 78.042969 38.527344 L 80.039062 36.851562 L 85.0625 42.839844 L 83.066406 44.515625 Z M 71.347656 30.542969 L 73.34375 28.867188 L 78.359375 34.855469 L 76.363281 36.527344 Z M 67.359375 33.898438 L 69.351562 32.222656 L 81.066406 46.1875 L 79.070312 47.863281 Z M 63.371094 37.242188 L 65.367188 35.566406 L 70.382812 41.550781 L 68.390625 43.222656 Z M 70.058594 45.222656 L 72.054688 43.550781 L 77.078125 49.53125 L 75.085938 51.207031 Z M 16.6875 64.402344 L 18.679688 62.726562 L 30.390625 76.695312 L 28.394531 78.371094 Z M 12.703125 67.753906 L 14.695312 66.082031 L 19.714844 72.066406 L 17.71875 73.738281 Z M 19.386719 75.738281 L 21.378906 74.0625 L 26.402344 80.046875 L 24.410156 81.71875 Z M 8.710938 71.097656 L 10.703125 69.425781 L 22.417969 83.390625 L 20.421875 85.066406 Z M 8.707031 42.835938 L 20.417969 28.871094 L 22.414062 30.542969 L 10.699219 44.511719 Z M 12.695312 46.1875 L 24.410156 32.21875 L 26.402344 33.894531 L 14.691406 47.859375 Z M 16.6875 49.535156 L 28.398438 35.566406 L 30.394531 37.242188 L 18.679688 51.207031 Z M 16.6875 49.535156 " fill-opacity="1" fill-rule="nonzero"/><g fill="#000000" fill-opacity="1"><g transform="translate(18.432655, 17.089584)"><g><path d="M 2.875 0.09375 C 1.945312 0.09375 1.273438 -0.132812 0.859375 -0.59375 C 0.453125 -1.050781 0.25 -1.789062 0.25 -2.8125 L 0.25 -3.8125 L 2.265625 -3.8125 L 2.265625 -2.546875 C 2.265625 -2.035156 2.425781 -1.78125 2.75 -1.78125 C 2.925781 -1.78125 3.050781 -1.832031 3.125 -1.9375 C 3.195312 -2.050781 3.234375 -2.234375 3.234375 -2.484375 C 3.234375 -2.816406 3.191406 -3.09375 3.109375 -3.3125 C 3.035156 -3.53125 2.9375 -3.710938 2.8125 -3.859375 C 2.6875 -4.003906 2.46875 -4.234375 2.15625 -4.546875 L 1.265625 -5.421875 C 0.585938 -6.085938 0.25 -6.828125 0.25 -7.640625 C 0.25 -8.503906 0.445312 -9.164062 0.84375 -9.625 C 1.25 -10.082031 1.835938 -10.3125 2.609375 -10.3125 C 3.523438 -10.3125 4.1875 -10.066406 4.59375 -9.578125 C 5 -9.085938 5.203125 -8.320312 5.203125 -7.28125 L 3.109375 -7.28125 L 3.109375 -7.984375 C 3.109375 -8.117188 3.066406 -8.226562 2.984375 -8.3125 C 2.910156 -8.394531 2.804688 -8.4375 2.671875 -8.4375 C 2.515625 -8.4375 2.394531 -8.390625 2.3125 -8.296875 C 2.238281 -8.210938 2.203125 -8.09375 2.203125 -7.9375 C 2.203125 -7.601562 2.390625 -7.257812 2.765625 -6.90625 L 3.953125 -5.765625 C 4.234375 -5.492188 4.460938 -5.238281 4.640625 -5 C 4.828125 -4.757812 4.972656 -4.472656 5.078125 -4.140625 C 5.191406 -3.816406 5.25 -3.425781 5.25 -2.96875 C 5.25 -1.96875 5.066406 -1.207031 4.703125 -0.6875 C 4.335938 -0.164062 3.726562 0.09375 2.875 0.09375 Z M 2.875 0.09375 "/></g></g></g><g fill="#000000" fill-opacity="1"><g transform="translate(23.916292, 17.089584)"><g><path d="M 2.953125 0.09375 C 1.210938 0.09375 0.34375 -0.804688 0.34375 -2.609375 L 0.34375 -6.09375 C 0.34375 -6.925781 0.570312 -7.582031 1.03125 -8.0625 C 1.5 -8.550781 2.140625 -8.796875 2.953125 -8.796875 C 3.753906 -8.796875 4.382812 -8.550781 4.84375 -8.0625 C 5.3125 -7.582031 5.546875 -6.925781 5.546875 -6.09375 L 5.546875 -2.609375 C 5.546875 -0.804688 4.679688 0.09375 2.953125 0.09375 Z M 2.953125 -1.515625 C 3.117188 -1.515625 3.238281 -1.570312 3.3125 -1.6875 C 3.394531 -1.800781 3.4375 -1.960938 3.4375 -2.171875 L 3.4375 -6.4375 C 3.4375 -6.9375 3.273438 -7.1875 2.953125 -7.1875 C 2.628906 -7.1875 2.46875 -6.9375 2.46875 -6.4375 L 2.46875 -2.171875 C 2.46875 -1.960938 2.503906 -1.800781 2.578125 -1.6875 C 2.660156 -1.570312 2.785156 -1.515625 2.953125 -1.515625 Z M 2.953125 -1.515625 "/></g></g></g><g fill="#000000" fill-opacity="1"><g transform="translate(29.828155, 17.089584)"><g><path d="M 2.09375 0.09375 C 1.445312 0.09375 1 -0.0976562 0.75 -0.484375 C 0.507812 -0.867188 0.390625 -1.445312 0.390625 -2.21875 L 0.390625 -8.703125 L 2.484375 -8.703125 L 2.484375 -2.640625 C 2.484375 -2.585938 2.484375 -2.4375 2.484375 -2.1875 C 2.484375 -1.945312 2.519531 -1.773438 2.59375 -1.671875 C 2.675781 -1.578125 2.796875 -1.53125 2.953125 -1.53125 C 3.160156 -1.53125 3.289062 -1.617188 3.34375 -1.796875 C 3.40625 -1.972656 3.4375 -2.226562 3.4375 -2.5625 L 3.4375 -2.640625 L 3.453125 -8.703125 L 5.515625 -8.703125 L 5.515625 0 L 3.4375 0 L 3.4375 -0.921875 C 3.289062 -0.554688 3.125 -0.296875 2.9375 -0.140625 C 2.75 0.015625 2.46875 0.09375 2.09375 0.09375 Z M 2.09375 0.09375 "/></g></g></g><g fill="#000000" fill-opacity="1"><g transform="translate(35.763807, 17.089584)"><g><path d="M 2.21875 0.09375 C 1.664062 0.09375 1.285156 -0.0195312 1.078125 -0.25 C 0.867188 -0.476562 0.765625 -0.847656 0.765625 -1.359375 L 0.765625 -6.796875 L 0.1875 -6.796875 L 0.1875 -8.375 L 0.765625 -8.375 L 0.765625 -10.21875 L 2.796875 -10.21875 L 2.796875 -8.375 L 3.390625 -8.375 L 3.390625 -6.796875 L 2.796875 -6.796875 L 2.796875 -1.90625 C 2.796875 -1.75 2.804688 -1.632812 2.828125 -1.5625 C 2.847656 -1.5 2.910156 -1.46875 3.015625 -1.46875 C 3.097656 -1.46875 3.175781 -1.46875 3.25 -1.46875 C 3.320312 -1.476562 3.367188 -1.484375 3.390625 -1.484375 L 3.390625 -0.0625 C 3.265625 -0.03125 3.085938 0 2.859375 0.03125 C 2.640625 0.0703125 2.425781 0.09375 2.21875 0.09375 Z M 2.21875 0.09375 "/></g></g></g><g fill="#000000" fill-opacity="1"><g transform="translate(39.391812, 17.089584)"><g><path d="M 0.421875 -10.28125 L 2.5625 -10.28125 L 2.5625 -7.84375 C 2.78125 -8.476562 3.203125 -8.796875 3.828125 -8.796875 C 4.410156 -8.796875 4.851562 -8.609375 5.15625 -8.234375 C 5.457031 -7.867188 5.609375 -7.359375 5.609375 -6.703125 L 5.609375 0 L 3.53125 0 L 3.53125 -6.578125 C 3.53125 -6.765625 3.484375 -6.914062 3.390625 -7.03125 C 3.304688 -7.15625 3.179688 -7.21875 3.015625 -7.21875 C 2.878906 -7.21875 2.769531 -7.15625 2.6875 -7.03125 C 2.601562 -6.90625 2.5625 -6.757812 2.5625 -6.59375 L 2.5625 0 L 0.421875 0 Z M 0.421875 -10.28125 "/></g></g></g><g fill="#000000" fill-opacity="1"><g transform="translate(45.398834, 17.089584)"><g/></g></g><g fill="#000000" fill-opacity="1"><g transform="translate(48.182288, 17.089584)"><g><path d="M 0.453125 0 L 0.453125 -10.21875 L 2.46875 -10.21875 L 2.46875 -6.125 L 3.421875 -10.21875 L 5.484375 -10.21875 L 4.34375 -5.546875 L 5.71875 0 L 3.609375 0 L 2.484375 -4.953125 L 2.484375 0 Z M 0.453125 0 "/></g></g></g><g fill="#000000" fill-opacity="1"><g transform="translate(53.796773, 17.089584)"><g><path d="M 2.953125 0.09375 C 1.210938 0.09375 0.34375 -0.804688 0.34375 -2.609375 L 0.34375 -6.09375 C 0.34375 -6.925781 0.570312 -7.582031 1.03125 -8.0625 C 1.5 -8.550781 2.140625 -8.796875 2.953125 -8.796875 C 3.753906 -8.796875 4.382812 -8.550781 4.84375 -8.0625 C 5.3125 -7.582031 5.546875 -6.925781 5.546875 -6.09375 L 5.546875 -2.609375 C 5.546875 -0.804688 4.679688 0.09375 2.953125 0.09375 Z M 2.953125 -1.515625 C 3.117188 -1.515625 3.238281 -1.570312 3.3125 -1.6875 C 3.394531 -1.800781 3.4375 -1.960938 3.4375 -2.171875 L 3.4375 -6.4375 C 3.4375 -6.9375 3.273438 -7.1875 2.953125 -7.1875 C 2.628906 -7.1875 2.46875 -6.9375 2.46875 -6.4375 L 2.46875 -2.171875 C 2.46875 -1.960938 2.503906 -1.800781 2.578125 -1.6875 C 2.660156 -1.570312 2.785156 -1.515625 2.953125 -1.515625 Z M 2.953125 -1.515625 "/></g></g></g><g fill="#000000" fill-opacity="1"><g transform="translate(59.708636, 17.089584)"><g><path d="M 0.421875 -8.703125 L 2.5 -8.703125 L 2.5 -7.734375 C 2.601562 -8.078125 2.78125 -8.34375 3.03125 -8.53125 C 3.289062 -8.71875 3.613281 -8.8125 4 -8.8125 L 4 -7.078125 C 3.707031 -7.078125 3.382812 -7.035156 3.03125 -6.953125 C 2.675781 -6.867188 2.5 -6.769531 2.5 -6.65625 L 2.5 0 L 0.421875 0 Z M 0.421875 -8.703125 "/></g></g></g><g fill="#000000" fill-opacity="1"><g transform="translate(63.800549, 17.089584)"><g><path d="M 2.859375 0.09375 C 1.960938 0.09375 1.316406 -0.148438 0.921875 -0.640625 C 0.535156 -1.128906 0.34375 -1.863281 0.34375 -2.84375 L 0.34375 -6.34375 C 0.34375 -7.132812 0.570312 -7.738281 1.03125 -8.15625 C 1.488281 -8.582031 2.128906 -8.796875 2.953125 -8.796875 C 4.628906 -8.796875 5.46875 -7.976562 5.46875 -6.34375 L 5.46875 -5.703125 C 5.46875 -5.066406 5.460938 -4.550781 5.453125 -4.15625 L 2.421875 -4.15625 L 2.421875 -2.46875 C 2.421875 -2.164062 2.453125 -1.929688 2.515625 -1.765625 C 2.578125 -1.597656 2.710938 -1.515625 2.921875 -1.515625 C 3.078125 -1.515625 3.1875 -1.5625 3.25 -1.65625 C 3.320312 -1.75 3.363281 -1.859375 3.375 -1.984375 C 3.394531 -2.109375 3.40625 -2.285156 3.40625 -2.515625 L 3.40625 -3.359375 L 5.46875 -3.359375 L 5.46875 -2.859375 C 5.46875 -1.847656 5.269531 -1.101562 4.875 -0.625 C 4.488281 -0.144531 3.816406 0.09375 2.859375 0.09375 Z M 3.40625 -5.203125 L 3.40625 -6.3125 C 3.40625 -6.9375 3.25 -7.25 2.9375 -7.25 C 2.582031 -7.25 2.40625 -6.9375 2.40625 -6.3125 L 2.40625 -5.203125 Z M 3.40625 -5.203125 "/></g></g></g><g fill="#000000" fill-opacity="1"><g transform="translate(69.605353, 17.089584)"><g><path d="M 2 0.09375 C 1.320312 0.09375 0.859375 -0.128906 0.609375 -0.578125 C 0.359375 -1.023438 0.234375 -1.664062 0.234375 -2.5 C 0.234375 -3.175781 0.320312 -3.695312 0.5 -4.0625 C 0.675781 -4.425781 0.921875 -4.691406 1.234375 -4.859375 C 1.554688 -5.035156 2.046875 -5.226562 2.703125 -5.4375 L 3.265625 -5.625 L 3.265625 -6.515625 C 3.265625 -6.742188 3.21875 -6.921875 3.125 -7.046875 C 3.039062 -7.171875 2.9375 -7.234375 2.8125 -7.234375 C 2.695312 -7.234375 2.597656 -7.179688 2.515625 -7.078125 C 2.429688 -6.972656 2.390625 -6.832031 2.390625 -6.65625 L 2.390625 -6.140625 L 0.375 -6.140625 L 0.375 -6.421875 C 0.375 -7.273438 0.570312 -7.882812 0.96875 -8.25 C 1.363281 -8.613281 2.015625 -8.796875 2.921875 -8.796875 C 3.640625 -8.796875 4.222656 -8.609375 4.671875 -8.234375 C 5.128906 -7.859375 5.359375 -7.328125 5.359375 -6.640625 L 5.359375 0 L 3.296875 0 L 3.296875 -1.03125 C 3.191406 -0.675781 3.023438 -0.398438 2.796875 -0.203125 C 2.578125 -0.00390625 2.3125 0.09375 2 0.09375 Z M 2.8125 -1.515625 C 2.976562 -1.515625 3.09375 -1.582031 3.15625 -1.71875 C 3.226562 -1.851562 3.265625 -2.015625 3.265625 -2.203125 L 3.265625 -4.625 C 2.953125 -4.507812 2.722656 -4.359375 2.578125 -4.171875 C 2.429688 -3.992188 2.359375 -3.738281 2.359375 -3.40625 L 2.359375 -2.296875 C 2.359375 -1.773438 2.507812 -1.515625 2.8125 -1.515625 Z M 2.8125 -1.515625 "/></g></g></g></svg>