<svg xmlns="http://www.w3.org/2000/svg" xmlns:xlink="http://www.w3.org/1999/xlink" width="1553" height="315" viewBox="0 0 1553 315">
  <defs>
    <linearGradient id="linear-gradient" x1="0.83" y1="1" x2="0.165" gradientUnits="objectBoundingBox">
      <stop offset="0" stop-color="#eed1a7"/>
      <stop offset="1" stop-color="#c6c6db"/>
    </linearGradient>
    <filter id="사각형_4536" x="0" y="0" width="1553" height="315" filterUnits="userSpaceOnUse">
      <feOffset dx="1" dy="1" input="SourceAlpha"/>
      <feGaussianBlur stdDeviation="0.5" result="blur"/>
      <feFlood flood-opacity="0.161"/>
      <feComposite operator="in" in2="blur"/>
      <feComposite in="SourceGraphic"/>
    </filter>
    <clipPath id="clip-path">
      <rect id="사각형_4524" data-name="사각형 4524" width="42.001" height="42.044" transform="translate(0 0)" fill="none"/>
    </clipPath>
    <clipPath id="clip-path-2">
      <rect id="사각형_4525" data-name="사각형 4525" width="42" height="42" fill="none"/>
    </clipPath>
    <clipPath id="clip-path-3">
      <rect id="사각형_4526" data-name="사각형 4526" width="41.938" height="37.976" transform="translate(0 0)" fill="none"/>
    </clipPath>
    <clipPath id="clip-path-4">
      <rect id="사각형_4527" data-name="사각형 4527" width="42.01" height="38.335" transform="translate(0 0)" fill="none"/>
    </clipPath>
    <clipPath id="clip-path-5">
      <rect id="사각형_4528" data-name="사각형 4528" width="38.079" height="38.214" transform="translate(0 0)" fill="none"/>
    </clipPath>
    <clipPath id="clip-path-6">
      <rect id="사각형_4529" data-name="사각형 4529" width="42" height="38.003" transform="translate(0 0)" fill="none"/>
    </clipPath>
    <clipPath id="clip-path-7">
      <rect id="사각형_4530" data-name="사각형 4530" width="38.34" height="38.331" transform="translate(0 0)" fill="none"/>
    </clipPath>
    <clipPath id="clip-path-8">
      <rect id="사각형_4531" data-name="사각형 4531" width="38.037" height="38.036" transform="translate(0 0)" fill="none"/>
    </clipPath>
    <clipPath id="clip-path-9">
      <rect id="사각형_4532" data-name="사각형 4532" width="38" height="37.998" fill="none"/>
    </clipPath>
    <clipPath id="clip-path-10">
      <rect id="사각형_4533" data-name="사각형 4533" width="38" height="42" fill="none"/>
    </clipPath>
    <filter id="타원_81" x="323.5" y="82.5" width="14" height="14" filterUnits="userSpaceOnUse">
      <feOffset dx="1" dy="1" input="SourceAlpha"/>
      <feGaussianBlur stdDeviation="1" result="blur-2"/>
      <feFlood flood-opacity="0.161"/>
      <feComposite operator="in" in2="blur-2"/>
      <feComposite in="SourceGraphic"/>
    </filter>
    <filter id="타원_82" x="435.5" y="82.5" width="14" height="14" filterUnits="userSpaceOnUse">
      <feOffset dx="1" dy="1" input="SourceAlpha"/>
      <feGaussianBlur stdDeviation="1" result="blur-3"/>
      <feFlood flood-opacity="0.161"/>
      <feComposite operator="in" in2="blur-3"/>
      <feComposite in="SourceGraphic"/>
    </filter>
    <filter id="타원_83" x="547.5" y="82.5" width="14" height="14" filterUnits="userSpaceOnUse">
      <feOffset dx="1" dy="1" input="SourceAlpha"/>
      <feGaussianBlur stdDeviation="1" result="blur-4"/>
      <feFlood flood-opacity="0.161"/>
      <feComposite operator="in" in2="blur-4"/>
      <feComposite in="SourceGraphic"/>
    </filter>
    <filter id="타원_84" x="659.5" y="82.5" width="14" height="14" filterUnits="userSpaceOnUse">
      <feOffset dx="1" dy="1" input="SourceAlpha"/>
      <feGaussianBlur stdDeviation="1" result="blur-5"/>
      <feFlood flood-opacity="0.161"/>
      <feComposite operator="in" in2="blur-5"/>
      <feComposite in="SourceGraphic"/>
    </filter>
    <filter id="타원_85" x="771.5" y="82.5" width="14" height="14" filterUnits="userSpaceOnUse">
      <feOffset dx="1" dy="1" input="SourceAlpha"/>
      <feGaussianBlur stdDeviation="1" result="blur-6"/>
      <feFlood flood-opacity="0.161"/>
      <feComposite operator="in" in2="blur-6"/>
      <feComposite in="SourceGraphic"/>
    </filter>
    <filter id="타원_86" x="882.5" y="82.5" width="14" height="14" filterUnits="userSpaceOnUse">
      <feOffset dx="1" dy="1" input="SourceAlpha"/>
      <feGaussianBlur stdDeviation="1" result="blur-7"/>
      <feFlood flood-opacity="0.161"/>
      <feComposite operator="in" in2="blur-7"/>
      <feComposite in="SourceGraphic"/>
    </filter>
    <filter id="타원_87" x="995.5" y="82.5" width="14" height="14" filterUnits="userSpaceOnUse">
      <feOffset dx="1" dy="1" input="SourceAlpha"/>
      <feGaussianBlur stdDeviation="1" result="blur-8"/>
      <feFlood flood-opacity="0.161"/>
      <feComposite operator="in" in2="blur-8"/>
      <feComposite in="SourceGraphic"/>
    </filter>
    <filter id="타원_88" x="1107.5" y="82.5" width="14" height="14" filterUnits="userSpaceOnUse">
      <feOffset dx="1" dy="1" input="SourceAlpha"/>
      <feGaussianBlur stdDeviation="1" result="blur-9"/>
      <feFlood flood-opacity="0.161"/>
      <feComposite operator="in" in2="blur-9"/>
      <feComposite in="SourceGraphic"/>
    </filter>
    <filter id="타원_89" x="1219.5" y="82.5" width="14" height="14" filterUnits="userSpaceOnUse">
      <feOffset dx="1" dy="1" input="SourceAlpha"/>
      <feGaussianBlur stdDeviation="1" result="blur-10"/>
      <feFlood flood-opacity="0.161"/>
      <feComposite operator="in" in2="blur-10"/>
      <feComposite in="SourceGraphic"/>
    </filter>
    <filter id="타원_90" x="1331.5" y="82.5" width="14" height="14" filterUnits="userSpaceOnUse">
      <feOffset dx="1" dy="1" input="SourceAlpha"/>
      <feGaussianBlur stdDeviation="1" result="blur-11"/>
      <feFlood flood-opacity="0.161"/>
      <feComposite operator="in" in2="blur-11"/>
      <feComposite in="SourceGraphic"/>
    </filter>
  </defs>
  <g id="그룹_7415" data-name="그룹 7415" transform="translate(-321.5 -137.5)">
    <g transform="matrix(1, 0, 0, 1, 321.5, 137.5)" filter="url(#사각형_4536)">
      <rect id="사각형_4536-2" data-name="사각형 4536" width="1550" height="312" rx="8" transform="translate(0.5 0.5)" fill="url(#linear-gradient)"/>
    </g>
    <text id="Governance" transform="translate(346 183)" fill="#333" font-size="18" font-family="NotoSansKR-Regular, Noto Sans KR"><tspan x="0" y="0">Governance</tspan></text>
    <text id="Resources" transform="translate(639 331)" fill="#333" font-size="16" font-family="NotoSansKR-Regular, Noto Sans KR"><tspan x="0" y="0">RESOURCES</tspan></text>
    <text id="Cost" transform="translate(797 331)" fill="#333" font-size="16" font-family="NotoSansKR-Regular, Noto Sans KR"><tspan x="-20.176" y="0">COST</tspan></text>
    <text id="Identity" transform="translate(909 331)" fill="#333" font-size="16" font-family="NotoSansKR-Regular, Noto Sans KR"><tspan x="-34.376" y="0">IDENTITY</tspan></text>
    <text id="Access" transform="translate(1021 331)" fill="#333" font-size="16" font-family="NotoSansKR-Regular, Noto Sans KR"><tspan x="-28.856" y="0">ACCESS</tspan></text>
    <text id="Control" transform="translate(1133 331)" fill="#333" font-size="16" font-family="NotoSansKR-Regular, Noto Sans KR"><tspan x="-36.72" y="0">CONTROL</tspan></text>
    <text id="Encryption" transform="translate(1245 331)" fill="#333" font-size="16" font-family="NotoSansKR-Regular, Noto Sans KR"><tspan x="-48.608" y="0">ENCRYPTION</tspan></text>
    <text id="HA" transform="translate(1357 331)" fill="#333" font-size="16" font-family="NotoSansKR-Regular, Noto Sans KR"><tspan x="-10.68" y="0">HA</tspan></text>
    <text id="DR" transform="translate(1469 331)" fill="#333" font-size="16" font-family="NotoSansKR-Regular, Noto Sans KR"><tspan x="-10.584" y="0">DR</tspan></text>
    <text id="Backup" transform="translate(1581 331)" fill="#333" font-size="16" font-family="NotoSansKR-Regular, Noto Sans KR"><tspan x="-31" y="0">BACKUP</tspan></text>
    <text id="Log" transform="translate(1693 331)" fill="#333" font-size="16" font-family="NotoSansKR-Regular, Noto Sans KR"><tspan x="-15.56" y="0">LOG</tspan></text>
    <circle id="타원_79" data-name="타원 79" cx="48" cy="48" r="48" transform="translate(1645 212)" fill="rgba(255,255,255,0.7)"/>
    <path id="타원_79_-_윤곽선" data-name="타원 79 - 윤곽선" d="M48,1A47.013,47.013,0,0,0,29.706,91.307,47.012,47.012,0,0,0,66.294,4.693,46.7,46.7,0,0,0,48,1m0-1A48,48,0,1,1,0,48,48,48,0,0,1,48,0Z" transform="translate(1645 212)" fill="#eee"/>
    <circle id="타원_80" data-name="타원 80" cx="48" cy="48" r="48" transform="translate(1533 212)" fill="rgba(255,255,255,0.7)"/>
    <path id="타원_80_-_윤곽선" data-name="타원 80 - 윤곽선" d="M48,1A47.013,47.013,0,0,0,29.706,91.307,47.012,47.012,0,0,0,66.294,4.693,46.7,46.7,0,0,0,48,1m0-1A48,48,0,1,1,0,48,48,48,0,0,1,48,0Z" transform="translate(1533 212)" fill="#eee"/>
    <circle id="타원_75" data-name="타원 75" cx="48" cy="48" r="48" transform="translate(1421 212)" fill="rgba(255,255,255,0.7)"/>
    <path id="타원_75_-_윤곽선" data-name="타원 75 - 윤곽선" d="M48,1A47.013,47.013,0,0,0,29.706,91.307,47.012,47.012,0,0,0,66.294,4.693,46.7,46.7,0,0,0,48,1m0-1A48,48,0,1,1,0,48,48,48,0,0,1,48,0Z" transform="translate(1421 212)" fill="#eee"/>
    <circle id="타원_76" data-name="타원 76" cx="48" cy="48" r="48" transform="translate(1309 212)" fill="rgba(255,255,255,0.7)"/>
    <path id="타원_76_-_윤곽선" data-name="타원 76 - 윤곽선" d="M48,1A47.013,47.013,0,0,0,29.706,91.307,47.012,47.012,0,0,0,66.294,4.693,46.7,46.7,0,0,0,48,1m0-1A48,48,0,1,1,0,48,48,48,0,0,1,48,0Z" transform="translate(1309 212)" fill="#eee"/>
    <circle id="타원_77" data-name="타원 77" cx="48" cy="48" r="48" transform="translate(1197 212)" fill="rgba(255,255,255,0.7)"/>
    <path id="타원_77_-_윤곽선" data-name="타원 77 - 윤곽선" d="M48,1A47.013,47.013,0,0,0,29.706,91.307,47.012,47.012,0,0,0,66.294,4.693,46.7,46.7,0,0,0,48,1m0-1A48,48,0,1,1,0,48,48,48,0,0,1,48,0Z" transform="translate(1197 212)" fill="#eee"/>
    <circle id="타원_78" data-name="타원 78" cx="48" cy="48" r="48" transform="translate(1085 212)" fill="rgba(255,255,255,0.7)"/>
    <path id="타원_78_-_윤곽선" data-name="타원 78 - 윤곽선" d="M48,1A47.013,47.013,0,0,0,29.706,91.307,47.012,47.012,0,0,0,66.294,4.693,46.7,46.7,0,0,0,48,1m0-1A48,48,0,1,1,0,48,48,48,0,0,1,48,0Z" transform="translate(1085 212)" fill="#eee"/>
    <circle id="타원_74" data-name="타원 74" cx="48" cy="48" r="48" transform="translate(973 212)" fill="rgba(255,255,255,0.7)"/>
    <path id="타원_74_-_윤곽선" data-name="타원 74 - 윤곽선" d="M48,1A47.013,47.013,0,0,0,29.706,91.307,47.012,47.012,0,0,0,66.294,4.693,46.7,46.7,0,0,0,48,1m0-1A48,48,0,1,1,0,48,48,48,0,0,1,48,0Z" transform="translate(973 212)" fill="#eee"/>
    <circle id="타원_73" data-name="타원 73" cx="48" cy="48" r="48" transform="translate(861 212)" fill="rgba(255,255,255,0.7)"/>
    <path id="타원_73_-_윤곽선" data-name="타원 73 - 윤곽선" d="M48,1A47.013,47.013,0,0,0,29.706,91.307,47.012,47.012,0,0,0,66.294,4.693,46.7,46.7,0,0,0,48,1m0-1A48,48,0,1,1,0,48,48,48,0,0,1,48,0Z" transform="translate(861 212)" fill="#eee"/>
    <circle id="타원_72" data-name="타원 72" cx="48" cy="48" r="48" transform="translate(749 212)" fill="rgba(255,255,255,0.7)"/>
    <path id="타원_72_-_윤곽선" data-name="타원 72 - 윤곽선" d="M48,1A47.013,47.013,0,0,0,29.706,91.307,47.012,47.012,0,0,0,66.294,4.693,46.7,46.7,0,0,0,48,1m0-1A48,48,0,1,1,0,48,48,48,0,0,1,48,0Z" transform="translate(749 212)" fill="#eee"/>
    <circle id="타원_71" data-name="타원 71" cx="48" cy="48" r="48" transform="translate(637 212)" fill="rgba(255,255,255,0.7)"/>
    <path id="타원_71_-_윤곽선" data-name="타원 71 - 윤곽선" d="M48,1A47.013,47.013,0,0,0,29.706,91.307,47.012,47.012,0,0,0,66.294,4.693,46.7,46.7,0,0,0,48,1m0-1A48,48,0,1,1,0,48,48,48,0,0,1,48,0Z" transform="translate(637 212)" fill="#eee"/>
    <g id="그룹_7393" data-name="그룹 7393" transform="translate(664 239)">
      <g id="그룹_7392" data-name="그룹 7392" clip-path="url(#clip-path)">
        <path id="패스_23449" data-name="패스 23449" d="M21,22.089a1,1,0,0,1-.5-.133l-8.7-5.023a1,1,0,0,1-.5-.866V6.022a1,1,0,0,1,.5-.866L20.5.133a1.008,1.008,0,0,1,1,0l8.7,5.023a1,1,0,0,1,.5.866V16.067a1,1,0,0,1-.5.866l-8.7,5.023a1,1,0,0,1-.5.133m-7.7-6.6L21,19.935l7.7-4.445V6.6L21,2.154,13.3,6.6Zm16.4.577h0Z" fill="#333"/>
        <path id="패스_23450" data-name="패스 23450" d="M21,12.044a1,1,0,0,1-.5-.134L11.8,6.888a1,1,0,0,1,1-1.733l8.7,5.023a1,1,0,0,1-.5,1.866" fill="#333"/>
        <path id="패스_23451" data-name="패스 23451" d="M21,22.089a1,1,0,0,1-1-1V11.044a1,1,0,0,1,2,0V21.089a1,1,0,0,1-1,1" fill="#333"/>
        <path id="패스_23452" data-name="패스 23452" d="M21,12.044a1,1,0,0,1-.5-1.866l8.7-5.023a1,1,0,0,1,1,1.733L21.5,11.91a.992.992,0,0,1-.5.134" fill="#333"/>
        <path id="패스_23453" data-name="패스 23453" d="M9.7,42.044a1,1,0,0,1-.5-.133L.5,36.888a1,1,0,0,1-.5-.866V25.977a1,1,0,0,1,.5-.866l8.7-5.023a1.008,1.008,0,0,1,1,0l8.7,5.023a1,1,0,0,1,.5.866V36.022a1,1,0,0,1-.5.866l-8.7,5.023a1,1,0,0,1-.5.133M2,35.445,9.7,39.89l7.7-4.445V26.554L9.7,22.109,2,26.554Zm16.4.577h0Z" fill="#333"/>
        <path id="패스_23454" data-name="패스 23454" d="M9.7,32a.992.992,0,0,1-.5-.134L.5,26.844a1,1,0,0,1,1-1.733l8.7,5.023A1,1,0,0,1,9.7,32" fill="#333"/>
        <path id="패스_23455" data-name="패스 23455" d="M9.7,42.044a1,1,0,0,1-1-1V31a1,1,0,0,1,2,0V41.044a1,1,0,0,1-1,1" fill="#333"/>
        <path id="패스_23456" data-name="패스 23456" d="M9.7,32a1,1,0,0,1-.5-1.866l8.7-5.023a1,1,0,0,1,1,1.733l-8.7,5.022A.992.992,0,0,1,9.7,32" fill="#333"/>
        <path id="패스_23457" data-name="패스 23457" d="M32.3,42.044a1,1,0,0,1-.5-.133l-8.7-5.023a1,1,0,0,1-.5-.866V25.977a1,1,0,0,1,.5-.866l8.7-5.023a1.008,1.008,0,0,1,1,0l8.7,5.023a1,1,0,0,1,.5.866V36.022a1,1,0,0,1-.5.866l-8.7,5.023a1,1,0,0,1-.5.133m-7.7-6.6,7.7,4.445L40,35.445V26.554l-7.7-4.445-7.7,4.445Zm16.4.577h0Z" fill="#333"/>
        <path id="패스_23458" data-name="패스 23458" d="M32.3,32a.992.992,0,0,1-.5-.134l-8.7-5.022a1,1,0,0,1,1-1.733l8.7,5.023A1,1,0,0,1,32.3,32" fill="#333"/>
        <path id="패스_23459" data-name="패스 23459" d="M32.3,42.044a1,1,0,0,1-1-1V31a1,1,0,1,1,2,0V41.044a1,1,0,0,1-1,1" fill="#333"/>
        <path id="패스_23460" data-name="패스 23460" d="M32.3,32a1,1,0,0,1-.5-1.866l8.7-5.023a1,1,0,0,1,1,1.733l-8.7,5.022a.992.992,0,0,1-.5.134" fill="#333"/>
      </g>
    </g>
    <g id="그룹_7395" data-name="그룹 7395" transform="translate(776 239)">
      <g id="그룹_7394" data-name="그룹 7394" clip-path="url(#clip-path-2)">
        <path id="패스_23461" data-name="패스 23461" d="M26.88,27.631a4.291,4.291,0,0,0-1.271-3.206,12.384,12.384,0,0,0-4.485-2.357,13.028,13.028,0,0,1-5.6-2.976,6.271,6.271,0,0,1-1.606-4.458,6.368,6.368,0,0,1,1.765-4.67,7.314,7.314,0,0,1,4.8-2.04V4.357h1.8V7.924A6.76,6.76,0,0,1,27.1,10.245a8.4,8.4,0,0,1,1.7,5.554H26.7a6.429,6.429,0,0,0-1.439-4.4,4.969,4.969,0,0,0-3.929-1.633,5.491,5.491,0,0,0-3.911,1.317,4.588,4.588,0,0,0-1.4,3.511,4.293,4.293,0,0,0,1.289,3.316A12.576,12.576,0,0,0,21.7,20.151a19.483,19.483,0,0,1,4.5,2.014,6.431,6.431,0,0,1,2.1,2.278A6.651,6.651,0,0,1,29,27.6a6.245,6.245,0,0,1-1.809,4.669,7.7,7.7,0,0,1-4.972,2.023v3.355H20.435V34.305a8.056,8.056,0,0,1-5.491-2.233A7.545,7.545,0,0,1,13,26.588H15.12a5.745,5.745,0,0,0,1.607,4.318,6.161,6.161,0,0,0,4.485,1.562A6.1,6.1,0,0,0,25.3,31.127a4.371,4.371,0,0,0,1.58-3.5" fill="#333"/>
        <path id="패스_23462" data-name="패스 23462" d="M21,42A21,21,0,1,1,42,21,21.024,21.024,0,0,1,21,42M21,2A19,19,0,1,0,40,21,19.021,19.021,0,0,0,21,2" fill="#333"/>
      </g>
    </g>
    <g id="그룹_7397" data-name="그룹 7397" transform="translate(888 241)">
      <g id="그룹_7396" data-name="그룹 7396" clip-path="url(#clip-path-3)">
        <path id="패스_23463" data-name="패스 23463" d="M32.965,37.975A8.975,8.975,0,1,1,41.938,29a8.985,8.985,0,0,1-8.973,8.975m0-15.951A6.975,6.975,0,1,0,39.938,29a6.982,6.982,0,0,0-6.973-6.976" fill="#333"/>
        <path id="패스_23464" data-name="패스 23464" d="M32.258,33.44a1,1,0,0,1-.748-.336L28.578,29.8a1,1,0,1,1,1.5-1.328l2.082,2.347,3.625-5.3a1,1,0,1,1,1.651,1.129L33.083,33a1,1,0,0,1-.763.434l-.062,0" fill="#333"/>
        <path id="패스_23465" data-name="패스 23465" d="M11.893,13.242a3.9,3.9,0,1,1,3.9-3.9,3.908,3.908,0,0,1-3.9,3.9m0-5.808a1.9,1.9,0,1,0,1.9,1.9,1.905,1.905,0,0,0-1.9-1.9" fill="#333"/>
        <path id="패스_23466" data-name="패스 23466" d="M19.153,21.955a1,1,0,0,1-1-1,6.26,6.26,0,1,0-12.521,0,1,1,0,0,1-2,0,8.26,8.26,0,1,1,16.521,0,1,1,0,0,1-1,1" fill="#333"/>
        <path id="패스_23467" data-name="패스 23467" d="M33.677,10.157H22.639a1,1,0,1,1,0-2H33.677a1,1,0,0,1,0,2" fill="#333"/>
        <path id="패스_23468" data-name="패스 23468" d="M33.677,14.692H22.639a1,1,0,0,1,0-2H33.677a1,1,0,0,1,0,2" fill="#333"/>
        <path id="패스_23469" data-name="패스 23469" d="M33.677,19.229H22.639a1,1,0,0,1,0-2H33.677a1,1,0,0,1,0,2" fill="#333"/>
        <path id="패스_23470" data-name="패스 23470" d="M25.827,26.44H3.618A3.622,3.622,0,0,1,0,22.823V3.617A3.622,3.622,0,0,1,3.618,0H34.689a3.622,3.622,0,0,1,3.617,3.617V22.183a1,1,0,1,1-2,0V3.617A1.618,1.618,0,0,0,34.689,2H3.618A1.619,1.619,0,0,0,2,3.617V22.823A1.619,1.619,0,0,0,3.618,24.44H25.827a1,1,0,0,1,0,2" fill="#333"/>
      </g>
    </g>
    <g id="그룹_7399" data-name="그룹 7399" transform="translate(1000 241)">
      <g id="그룹_7398" data-name="그룹 7398" clip-path="url(#clip-path-4)">
        <path id="패스_23471" data-name="패스 23471" d="M8.819,29.6a1,1,0,0,1-.529-.152l-3.3-2.055A10.552,10.552,0,0,1,0,18.387V12.314a1,1,0,0,1,.687-.95L8.506,8.786a1.017,1.017,0,0,1,.627,0l7.82,2.578a1,1,0,0,1,.687.95v6.073a10.558,10.558,0,0,1-5,9.005l-3.3,2.055a1,1,0,0,1-.53.152M2,13.038v5.349a8.562,8.562,0,0,0,4.054,7.307L8.819,27.42l2.766-1.726a8.562,8.562,0,0,0,4.055-7.307V13.038L8.819,10.789Z" fill="#333"/>
        <path id="패스_23472" data-name="패스 23472" d="M8,22.553a1,1,0,0,1-.748-.337L4.793,19.445a1,1,0,1,1,1.5-1.327L7.9,19.931l2.924-4.274a1,1,0,0,1,1.651,1.129L8.824,22.117a1,1,0,0,1-.763.434l-.062,0" fill="#333"/>
        <path id="패스_23473" data-name="패스 23473" d="M8.011,11a1,1,0,0,1-1-1V3a3,3,0,0,1,3-3h22a3,3,0,0,1,3,3V9.167a1,1,0,0,1-2,0V3a1,1,0,0,0-1-1h-22a1,1,0,0,0-1,1v7a1,1,0,0,1-1,1" fill="#333"/>
        <path id="패스_23474" data-name="패스 23474" d="M32.01,38.335h-22a3,3,0,0,1-3-3V28.094a1,1,0,1,1,2,0v7.241a1,1,0,0,0,1,1h22a1,1,0,0,0,1-1V22.491a1,1,0,1,1,2,0V35.335a3,3,0,0,1-3,3" fill="#333"/>
        <path id="패스_23475" data-name="패스 23475" d="M24.138,30.167H21.01a1,1,0,0,1-1-1v-3.19a1,1,0,0,1,.289-.7l6.818-6.889a7.586,7.586,0,0,1-.44-2.55A7.666,7.666,0,1,1,34.344,23.5a7.556,7.556,0,0,1-2.623-.468L28.738,26a1,1,0,0,1-.706.291H26.889l-.985.984v1.128a1,1,0,0,1-.3.709l-.766.762a1,1,0,0,1-.7.291m-2.128-2h1.715l.179-.178V26.863a1,1,0,0,1,.293-.707l1.571-1.57a1,1,0,0,1,.707-.293h1.144l3.166-3.149a1,1,0,0,1,1.134-.195A5.677,5.677,0,1,0,29.2,18.2a1,1,0,0,1-.2,1.121L22.01,26.388Z" fill="#333"/>
        <path id="패스_23476" data-name="패스 23476" d="M36.468,16.2a2.493,2.493,0,1,1,2.493-2.493A2.5,2.5,0,0,1,36.468,16.2m0-2.986a.493.493,0,1,0,.493.493.495.495,0,0,0-.493-.493" fill="#333"/>
      </g>
    </g>
    <g id="그룹_7401" data-name="그룹 7401" transform="translate(1114 241)">
      <g id="그룹_7400" data-name="그룹 7400" clip-path="url(#clip-path-5)">
        <path id="패스_23477" data-name="패스 23477" d="M24.332,26.751a1,1,0,0,1-.7-1.715c.109-.107.165-.253.163-.748q-.015-4.172-.006-8.345V14.472a2.649,2.649,0,0,1,1.89-2.7,2.567,2.567,0,0,1,2.306.36,2.681,2.681,0,0,1,1.02,2.264C28.99,15.7,28.993,17.01,29,18.318c0,.982,0,1.964,0,2.946a2.619,2.619,0,0,0,.067.493,2.787,2.787,0,0,1-.186,2,1,1,0,0,1-1.75-.967c.064-.117.041-.293-.029-.666a4.426,4.426,0,0,1-.1-.874c.006-.977,0-1.953,0-2.93,0-1.318-.006-2.635.011-3.954a.78.78,0,0,0-.214-.634.585.585,0,0,0-.514-.056c-.235.074-.487.2-.488.8v1.471q0,4.169.006,8.335a2.866,2.866,0,0,1-.765,2.186,1,1,0,0,1-.7.285" fill="#333"/>
        <path id="패스_23478" data-name="패스 23478" d="M26.075,38.122a1.061,1.061,0,0,1-.185-.017,1,1,0,0,1-.8-1.167c-.009.04-.141-.087-.183-.131a15.512,15.512,0,0,1-2.761-3.9,31.3,31.3,0,0,1-1.775-4.555,17.975,17.975,0,0,0-1.355-2.915c-.241-.449-.482-.9-.707-1.354a2.288,2.288,0,0,1,.514-2.941,2.63,2.63,0,0,1,3.156.051l.127.121a7.221,7.221,0,0,1,1.165,1.309c.186.286.349.591.51.9a4.681,4.681,0,0,0,.729,1.13,4.521,4.521,0,0,1,1.279,3.388,1,1,0,0,1-.991,1.009H24.79a1,1,0,0,1-1-.991A2.49,2.49,0,0,0,23.1,26.07a6.372,6.372,0,0,1-1.091-1.621c-.132-.251-.264-.5-.417-.738a5.483,5.483,0,0,0-.862-.946L20.6,22.64a1.081,1.081,0,0,0-.518.048c-.073.068-.16.141.02.507.216.436.446.864.676,1.292a19.857,19.857,0,0,1,1.494,3.241A29.772,29.772,0,0,0,23.929,32,13.541,13.541,0,0,0,26.335,35.4a2.084,2.084,0,0,1,.722,1.9,1,1,0,0,1-.982.816" fill="#333"/>
        <path id="패스_23479" data-name="패스 23479" d="M35.151,38.214a1,1,0,0,1-1-.966,5.994,5.994,0,0,1,.743-2.783c.123-.267.247-.532.349-.805s.215-.527.329-.788a4.364,4.364,0,0,0,.5-1.709l0-6.052c0-.488-.108-.743-.205-.818s-.408-.122-.927.018a1.739,1.739,0,0,1-1.841-.264c-.29-.252-.7-.453-1.561-.013a1,1,0,0,1-1.219-.243c-.327-.386-.732-.581-1.745-.363a1,1,0,1,1-.424-1.955,3.77,3.77,0,0,1,3.141.5,3.068,3.068,0,0,1,2.982.452c.053-.018.1-.033.153-.047a2.958,2.958,0,0,1,2.658.329,2.857,2.857,0,0,1,.988,2.4l0,6.052a6.106,6.106,0,0,1-.674,2.519c-.1.226-.2.453-.287.685-.119.318-.262.629-.406.941a4.276,4.276,0,0,0-.561,1.876,1,1,0,0,1-.965,1.033h-.035" fill="#333"/>
        <path id="패스_23480" data-name="패스 23480" d="M24,5H1A1,1,0,0,1,1,3H24a1,1,0,0,1,0,2" fill="#333"/>
        <path id="패스_23481" data-name="패스 23481" d="M37,5H30a1,1,0,1,1,0-2h7a1,1,0,0,1,0,2" fill="#333"/>
        <path id="패스_23482" data-name="패스 23482" d="M27,8a4,4,0,1,1,4-4,4,4,0,0,1-4,4m0-6a2,2,0,1,0,2,2,2,2,0,0,0-2-2" fill="#333"/>
        <path id="패스_23483" data-name="패스 23483" d="M15.54,16.539H1a1,1,0,0,1,0-2H15.54a1,1,0,1,1,0,2" fill="#333"/>
        <path id="패스_23484" data-name="패스 23484" d="M37,16.539H28.162a1,1,0,0,1,0-2H37a1,1,0,0,1,0,2" fill="#333"/>
        <path id="패스_23485" data-name="패스 23485" d="M19,19.539a4,4,0,1,1,4-4,4,4,0,0,1-4,4m0-6a2,2,0,1,0,2,2,2,2,0,0,0-2-2" fill="#333"/>
        <path id="패스_23486" data-name="패스 23486" d="M20.68,28.079H14a1,1,0,0,1,0-2h6.68a1,1,0,0,1,0,2" fill="#333"/>
        <path id="패스_23487" data-name="패스 23487" d="M8,28.079H1a1,1,0,0,1,0-2H8a1,1,0,0,1,0,2" fill="#333"/>
        <path id="패스_23488" data-name="패스 23488" d="M11,31.079a4,4,0,1,1,4-4,4,4,0,0,1-4,4m0-6a2,2,0,1,0,2,2,2,2,0,0,0-2-2" fill="#333"/>
        <path id="패스_23489" data-name="패스 23489" d="M24.79,16.539H22a1,1,0,0,1,0-2h2.79a1,1,0,0,1,0,2" fill="#333"/>
      </g>
    </g>
    <g id="그룹_7403" data-name="그룹 7403" transform="translate(1224 241)">
      <g id="그룹_7402" data-name="그룹 7402" clip-path="url(#clip-path-6)">
        <path id="패스_23490" data-name="패스 23490" d="M28.842,30.791H13.159A3.162,3.162,0,0,1,10,27.633V19a3.162,3.162,0,0,1,3.158-3.158H28.842A3.161,3.161,0,0,1,32,19v8.63a3.161,3.161,0,0,1-3.157,3.158M13.159,17.845A1.159,1.159,0,0,0,12,19v8.63a1.159,1.159,0,0,0,1.158,1.158H28.842A1.159,1.159,0,0,0,30,27.633V19a1.16,1.16,0,0,0-1.157-1.158Z" fill="#333"/>
        <path id="패스_23491" data-name="패스 23491" d="M25.424,17.843H16.793a1,1,0,0,1-1-1V11.989a4.782,4.782,0,0,1,4.776-4.777h1.078a4.782,4.782,0,0,1,4.777,4.777v4.854a1,1,0,0,1-1,1m-7.631-2h6.631V11.989a2.779,2.779,0,0,0-2.777-2.777H20.569a2.779,2.779,0,0,0-2.776,2.777Z" fill="#333"/>
        <path id="패스_23492" data-name="패스 23492" d="M21,24.728a2.7,2.7,0,1,1,2.7-2.7,2.7,2.7,0,0,1-2.7,2.7m0-3.4a.7.7,0,1,0,.7.7.7.7,0,0,0-.7-.7" fill="#333"/>
        <path id="패스_23493" data-name="패스 23493" d="M21,27.305a1,1,0,0,1-1-1V23.729a1,1,0,0,1,2,0v2.576a1,1,0,0,1-1,1" fill="#333"/>
        <path id="패스_23494" data-name="패스 23494" d="M8,20H5a1,1,0,0,1,0-2H8a1,1,0,0,1,0,2" fill="#333"/>
        <path id="패스_23495" data-name="패스 23495" d="M8,12H3a1,1,0,0,1-1-1V5A1,1,0,0,1,4,5v5H8a1,1,0,0,1,0,2" fill="#333"/>
        <path id="패스_23496" data-name="패스 23496" d="M3,6A3,3,0,1,1,6,3,3,3,0,0,1,3,6M3,2A1,1,0,1,0,4,3,1,1,0,0,0,3,2" fill="#333"/>
        <path id="패스_23497" data-name="패스 23497" d="M3,34a1,1,0,0,1-1-1V27a1,1,0,0,1,1-1H8a1,1,0,1,1,0,2H4v5a1,1,0,0,1-1,1" fill="#333"/>
        <path id="패스_23498" data-name="패스 23498" d="M3,38a3,3,0,1,1,3-3,3,3,0,0,1-3,3m0-4a1,1,0,1,0,1,1,1,1,0,0,0-1-1" fill="#333"/>
        <path id="패스_23499" data-name="패스 23499" d="M3,22a3,3,0,1,1,3-3,3,3,0,0,1-3,3m0-4a1,1,0,1,0,1,1,1,1,0,0,0-1-1" fill="#333"/>
        <path id="패스_23500" data-name="패스 23500" d="M37,20H34a1,1,0,0,1,0-2h3a1,1,0,0,1,0,2" fill="#333"/>
        <path id="패스_23501" data-name="패스 23501" d="M39,12H34a1,1,0,0,1,0-2h4V5a1,1,0,0,1,2,0v6a1,1,0,0,1-1,1" fill="#333"/>
        <path id="패스_23502" data-name="패스 23502" d="M39,6a3,3,0,1,1,3-3,3,3,0,0,1-3,3m0-4a1,1,0,1,0,1,1,1,1,0,0,0-1-1" fill="#333"/>
        <path id="패스_23503" data-name="패스 23503" d="M39,34a1,1,0,0,1-1-1V28H34a1,1,0,0,1,0-2h5a1,1,0,0,1,1,1v6a1,1,0,0,1-1,1" fill="#333"/>
        <path id="패스_23504" data-name="패스 23504" d="M39,38a3,3,0,1,1,3-3,3,3,0,0,1-3,3m0-4a1,1,0,1,0,1,1,1,1,0,0,0-1-1" fill="#333"/>
        <path id="패스_23505" data-name="패스 23505" d="M39,22a3,3,0,1,1,3-3,3,3,0,0,1-3,3m0-4a1,1,0,1,0,1,1,1,1,0,0,0-1-1" fill="#333"/>
      </g>
    </g>
    <g id="그룹_7405" data-name="그룹 7405" transform="translate(1338 241)">
      <g id="그룹_7404" data-name="그룹 7404" clip-path="url(#clip-path-7)">
        <path id="패스_23506" data-name="패스 23506" d="M19.963,20.008a1,1,0,0,1-.707-1.707l4.08-4.08a1,1,0,1,1,1.414,1.414l-4.08,4.08a1,1,0,0,1-.707.293" fill="#333"/>
        <path id="패스_23507" data-name="패스 23507" d="M1.612,24.873a1,1,0,0,1-.965-.742A19.176,19.176,0,0,1,32.728,5.606,1,1,0,0,1,31.314,7.02,17.177,17.177,0,0,0,2.579,23.615a1,1,0,0,1-.967,1.258" fill="#333"/>
        <path id="패스_23508" data-name="패스 23508" d="M19.17,38.331A19.12,19.12,0,0,1,5.611,32.724,1,1,0,0,1,7.025,31.31,17.178,17.178,0,0,0,35.762,14.717a1,1,0,1,1,1.932-.516A19.166,19.166,0,0,1,19.17,38.331" fill="#333"/>
        <path id="패스_23509" data-name="패스 23509" d="M32.048,7.34H27.5a1,1,0,1,1,0-2h3.544V1.8a1,1,0,0,1,2,0V6.34a1,1,0,0,1-1,1" fill="#333"/>
        <path id="패스_23510" data-name="패스 23510" d="M6.3,37.537a1,1,0,0,1-1-1V31.994a1,1,0,0,1,1-1h4.544a1,1,0,0,1,0,2H7.3v3.543a1,1,0,0,1-1,1" fill="#333"/>
        <path id="패스_23511" data-name="패스 23511" d="M18.446,19.442a1,1,0,0,1-.707-.293L12.45,13.86a1,1,0,0,1,1.414-1.414l5.289,5.289a1,1,0,0,1-.707,1.707" fill="#333"/>
        <path id="패스_23512" data-name="패스 23512" d="M19.114,21.053a1.944,1.944,0,1,1,1.943-1.944,1.946,1.946,0,0,1-1.943,1.944m0-2-.057.056a.057.057,0,0,0,.057.056Z" fill="#333"/>
        <path id="패스_23513" data-name="패스 23513" d="M19.17,10.512a1,1,0,0,1-1-1v-2.1a1,1,0,0,1,2,0v2.1a1,1,0,0,1-1,1" fill="#333"/>
        <path id="패스_23514" data-name="패스 23514" d="M9.517,20.165H7.42a1,1,0,0,1,0-2h2.1a1,1,0,1,1,0,2" fill="#333"/>
        <path id="패스_23515" data-name="패스 23515" d="M19.17,31.915a1,1,0,0,1-1-1v-2.1a1,1,0,0,1,2,0v2.1a1,1,0,0,1-1,1" fill="#333"/>
        <path id="패스_23516" data-name="패스 23516" d="M30.92,20.165h-2.1a1,1,0,0,1,0-2h2.1a1,1,0,0,1,0,2" fill="#333"/>
      </g>
    </g>
    <g id="그룹_7407" data-name="그룹 7407" transform="translate(1450 241)">
      <g id="그룹_7406" data-name="그룹 7406" clip-path="url(#clip-path-8)">
        <path id="패스_23517" data-name="패스 23517" d="M17.381,28.46c-.481,0-1.082-.432-2.259-1.317a6.8,6.8,0,0,1-2.98-4.489,8.594,8.594,0,0,1,.894-4.872,9.777,9.777,0,0,0,.6-1.741c.021-.121.072-.588.1-1.019.065-1.077.084-1.4.649-1.652a1.01,1.01,0,0,1,.526-.079c.525.063.648.26,1.063,1.149a13.5,13.5,0,0,0,.682-3.1c.084-.89.158-1.657,1.079-1.657a1.757,1.757,0,0,1,.762.232,6.236,6.236,0,0,1,2.429,2.018,1.052,1.052,0,0,1,.178-.016c.761,0,2.058,1.516,2.071,1.531a12.466,12.466,0,0,1,2.606,5.268,7.93,7.93,0,0,1-1.246,6.345A12.467,12.467,0,0,1,22.7,26.994c-2.22,1.785-2.557,1.535-2.983,1.227a1.007,1.007,0,0,1-.345-1.17l.352-.822a5.141,5.141,0,0,0,.568-2.522,3.555,3.555,0,0,0-.255-1.3,6.76,6.76,0,0,1-.505,1.149c-.948,1.6-1.482,1.984-1.861,2.03a8.082,8.082,0,0,0,.357.881c.285.626.429.942.235,1.379a1,1,0,0,1-.3.38.919.919,0,0,1-.581.23M15.174,17.831c-.089.232-.188.478-.3.731a6.771,6.771,0,0,0-.759,3.792,4.314,4.314,0,0,0,1.455,2.564,5.417,5.417,0,0,1,.164-1.327,9.478,9.478,0,0,1,.922-1.953,1.183,1.183,0,0,1,1.291-.653,1.043,1.043,0,0,1,.373.176,5.018,5.018,0,0,0,.181-1.119l0-.2a1,1,0,0,1,1.732-.662l.224.24a7.4,7.4,0,0,1,1.393,2.171,5.465,5.465,0,0,1,.428,2.037,6.837,6.837,0,0,1-.029,1.033A7.938,7.938,0,0,0,22.9,23.9a5.968,5.968,0,0,0,.917-4.782,10.341,10.341,0,0,0-1.188-2.988,1,1,0,0,1-.855.609,1.017,1.017,0,0,1-1.025-.716l-.057-.192c-.033-.114-.127-.369-.216-.6a7.484,7.484,0,0,0-1.928-2.943,15.42,15.42,0,0,1-.765,3.016,17.564,17.564,0,0,1-.893,1.972l-.17.305a1,1,0,0,1-1.021.5.988.988,0,0,1-.529-.254" fill="#333"/>
        <path id="패스_23518" data-name="패스 23518" d="M19.018,31.444A12.382,12.382,0,1,1,31.4,19.062,12.4,12.4,0,0,1,19.018,31.444m0-22.764A10.382,10.382,0,1,0,29.4,19.062,10.393,10.393,0,0,0,19.018,8.68" fill="#333"/>
        <path id="패스_23519" data-name="패스 23519" d="M1.607,24.691a1,1,0,0,1-.965-.742A19.088,19.088,0,0,1,5.567,5.572a19.022,19.022,0,0,1,26.9,0,1,1,0,0,1-1.414,1.414,17.023,17.023,0,0,0-24.074,0A17.086,17.086,0,0,0,2.574,23.433a1,1,0,0,1-.967,1.258" fill="#333"/>
        <path id="패스_23520" data-name="패스 23520" d="M19.018,38.036A18.964,18.964,0,0,1,5.567,32.474a1,1,0,1,1,1.414-1.415A17.025,17.025,0,0,0,35.463,14.614,1,1,0,1,1,37.4,14.1,19.012,19.012,0,0,1,19.018,38.036" fill="#333"/>
        <path id="패스_23521" data-name="패스 23521" d="M31.788,7.3H27.282a1,1,0,1,1,0-2h3.506V1.8a1,1,0,1,1,2,0V6.3a1,1,0,0,1-1,1" fill="#333"/>
        <path id="패스_23522" data-name="패스 23522" d="M6.252,37.25a1,1,0,0,1-1-1V31.744a1,1,0,0,1,1-1h4.506a1,1,0,0,1,0,2H7.252V36.25a1,1,0,0,1-1,1" fill="#333"/>
      </g>
    </g>
    <g id="그룹_7409" data-name="그룹 7409" transform="translate(1562 241)">
      <g id="그룹_7408" data-name="그룹 7408" clip-path="url(#clip-path-9)">
        <path id="패스_23523" data-name="패스 23523" d="M9,12.942c-4.473,0-9-1.4-9-4.083V4.3H2c0,.251.53.835,1.954,1.335a17.949,17.949,0,0,0,10.091,0C15.469,5.138,16,4.554,16,4.3h2V8.859c0,2.681-4.527,4.083-9,4.083M2,6.962v1.9c0,.624,2.382,2.083,7,2.083s7-1.459,7-2.083v-1.9a8.73,8.73,0,0,1-1.292.562,19.964,19.964,0,0,1-11.415,0A8.73,8.73,0,0,1,2,6.962" fill="#333"/>
        <path id="패스_23524" data-name="패스 23524" d="M9,17.44c-4.473,0-9-1.4-9-4.083V8.8H2c0,.251.53.836,1.954,1.335a17.949,17.949,0,0,0,10.091,0C15.469,9.637,16,9.052,16,8.8h2v4.556c0,2.681-4.527,4.083-9,4.083M2,11.46v1.9c0,.624,2.382,2.083,7,2.083s7-1.459,7-2.083v-1.9a8.73,8.73,0,0,1-1.292.562,19.964,19.964,0,0,1-11.415,0A8.73,8.73,0,0,1,2,11.46" fill="#333"/>
        <path id="패스_23525" data-name="패스 23525" d="M9,22c-4.473,0-9-1.4-9-4.083V13.36H2c0,.251.53.835,1.954,1.335a17.949,17.949,0,0,0,10.091,0C15.469,14.195,16,13.611,16,13.36h2v4.556C18,20.6,13.472,22,9,22m-7-5.98v1.9C2,18.54,4.382,20,9,20s7-1.459,7-2.083v-1.9a8.73,8.73,0,0,1-1.292.562,19.964,19.964,0,0,1-11.415,0A8.73,8.73,0,0,1,2,16.019" fill="#333"/>
        <path id="패스_23526" data-name="패스 23526" d="M9,8.423a17.2,17.2,0,0,1-5.72-.9C1.165,6.751,0,5.574,0,4.212,0,1.446,4.527,0,9,0s9,1.446,9,4.212c0,1.362-1.165,2.539-3.279,3.312a17.2,17.2,0,0,1-5.72.9M9,2C4.657,2,2,3.432,2,4.212c0,.344.615.939,1.967,1.434a17.246,17.246,0,0,0,10.066,0C15.384,5.151,16,4.556,16,4.212,16,3.432,13.342,2,9,2" fill="#333"/>
        <path id="패스_23527" data-name="패스 23527" d="M37,38H20.685a1,1,0,0,1-1-1V23.672a1,1,0,0,1,1-1h6.833a1,1,0,0,1,.735.322L30.4,25.321H37a1,1,0,0,1,1,1V37a1,1,0,0,1-1,1M21.685,36H36V27.321H29.959A1,1,0,0,1,29.224,27L27.08,24.672h-5.4Z" fill="#333"/>
        <path id="패스_23528" data-name="패스 23528" d="M11.113,35.149a1,1,0,0,1-.7-1.714l3.159-3.1-3.159-3.1a1,1,0,1,1,1.4-1.428L15.7,29.621a1,1,0,0,1,0,1.427l-3.887,3.815a1,1,0,0,1-.7.286" fill="#333"/>
        <path id="패스_23529" data-name="패스 23529" d="M15,31.335H3a1,1,0,1,1,0-2H15a1,1,0,0,1,0,2" fill="#333"/>
        <path id="패스_23530" data-name="패스 23530" d="M26.886,15.813a.994.994,0,0,1-.7-.286L22.3,11.713a1,1,0,0,1,0-1.427l3.887-3.815a1,1,0,0,1,1.4,1.428L24.427,11l3.159,3.1a1,1,0,0,1-.7,1.714" fill="#333"/>
        <path id="패스_23531" data-name="패스 23531" d="M35,12H23a1,1,0,1,1,0-2H35a1,1,0,0,1,0,2" fill="#333"/>
      </g>
    </g>
    <g id="그룹_7414" data-name="그룹 7414" transform="translate(1674 239)">
      <g id="그룹_7411" data-name="그룹 7411">
        <g id="그룹_7410" data-name="그룹 7410" clip-path="url(#clip-path-10)">
          <path id="패스_23532" data-name="패스 23532" d="M1,38a1,1,0,0,1-1-1V4A4,4,0,0,1,4,0H33a1,1,0,0,1,0,2H4A2,2,0,0,0,2,4V37a1,1,0,0,1-1,1" fill="#333"/>
          <path id="패스_23533" data-name="패스 23533" d="M27.4,42H8a4,4,0,0,1-4-4V8A4,4,0,0,1,8,4H34a4,4,0,0,1,4,4V30.194a1,1,0,1,1-2,0V8a2,2,0,0,0-2-2H8A2,2,0,0,0,6,8V38a2,2,0,0,0,2,2H27.4a1,1,0,0,1,0,2" fill="#333"/>
        </g>
      </g>
      <text id="LOG-2" data-name="LOG" transform="translate(6.999 23.703)" fill="#333" font-size="16" font-family="Roboto-Bold, Roboto" font-weight="700"><tspan x="0" y="0" letter-spacing="-0.081em">L</tspan><tspan y="0" letter-spacing="-0.05em">O</tspan><tspan y="0">G</tspan></text>
      <g id="그룹_7413" data-name="그룹 7413">
        <g id="그룹_7412" data-name="그룹 7412" clip-path="url(#clip-path-10)">
          <path id="패스_23534" data-name="패스 23534" d="M27.4,42a1,1,0,0,1-1-1V30.194a1,1,0,0,1,1-1H37a1,1,0,0,1,.747,1.664L28.142,41.664A1,1,0,0,1,27.4,42m1-10.806V38.37l6.377-7.176Z" fill="#333"/>
        </g>
      </g>
    </g>
    <path id="교차_2" data-name="교차 2" d="M-1252,2153a8,8,0,0,1-8-8v-86.431h193.674s2.444,19.753,27.861,18.79S-1054.4,2105.3-1054.4,2105.3l-55.283,21.295-12.073,26.4Z" transform="translate(1582 -1703)" fill="#fff" opacity="0.5"/>
    <path id="교차_1" data-name="교차 1" d="M176.4,2153,290,2051.769V2145a8,8,0,0,1-8,8Zm-885.765,0,96.25-27.9,66.556,14.16,125.274-75.846,228.742,75.846,66.555-55.226,67.972,41.066,78.165-28.322L176.4,2153Zm-413.683,0,218.223-39.225L-709.364,2153Z" transform="translate(1582 -1703)" fill="#fff" opacity="0.3"/>
    <g id="그룹_7416" data-name="그룹 7416">
      <g id="Space_via_telescope" data-name="Space via telescope" transform="translate(346 -76.352)">
        <g id="Telescope" transform="translate(81.293 278.268)">
          <g id="Group_392" data-name="Group 392" transform="translate(36.174 25.781)">
            <path id="Path_571" data-name="Path 571" d="M2247.713,1252.4a.767.767,0,0,0,.682.834l.711.073a.764.764,0,0,0,.834-.682l7.51-73.579h4.258v73.782a.5.5,0,0,0,.5.5h2.877a.5.5,0,0,0,.5-.5v-73.783h5.13l6.634,73.684a.767.767,0,0,0,.829.692l.71-.064a.764.764,0,0,0,.692-.828l-6.619-73.484h.774a1.081,1.081,0,0,0,1.079-1.079v-1.012a1.082,1.082,0,0,0-1.079-1.079h-8.151v-37.089l7.663-.438a1.269,1.269,0,0,0,1.021-.632,1.251,1.251,0,0,0,.286-.812l-.178-10.327a1.273,1.273,0,0,0-1.292-1.247l-1.19.019a1.276,1.276,0,0,0-1.25,1.292l.136,7.969-14.665.837a1.276,1.276,0,0,0-1.2,1.342l.076,1.33a1.277,1.277,0,0,0,1.342,1.2l5.365-.308v36.867h-6.888a1.081,1.081,0,0,0-1.078,1.079v1.012a1.081,1.081,0,0,0,1.078,1.079h.378Z" transform="translate(-2247.71 -1125.331)" fill="#2a5b61"/>
            <path id="Path_572" data-name="Path 572" d="M2275.594,1274.206a1.589,1.589,0,1,0,1.589-1.589,1.588,1.588,0,0,0-1.589,1.589Zm-19-1.589a1.589,1.589,0,1,1-1.589,1.589,1.589,1.589,0,0,1,1.589-1.589Zm9.952-1.219a2.807,2.807,0,1,1-2.807,2.807,2.807,2.807,0,0,1,2.807-2.807Z" transform="translate(-2250.715 -1194.907)" fill="#0f5b8d"/>
          </g>
          <g id="ong_nhom" data-name="ong nhom" transform="translate(21.645 0) rotate(25)">
            <path id="Path_573" data-name="Path 573" d="M22.386,0,0,16.6l1.7,2.412L26.329,5.915Z" transform="translate(9.207 29.772)" fill="#2a5b61"/>
            <path id="Path_574" data-name="Path 574" d="M54.652,7.8a7.355,7.355,0,0,1-1.375,3.906L47.959,14.74,5.76,38.71,0,29.4,41.023,3.487,46.469.042a7.242,7.242,0,0,1,2.4.142,7.4,7.4,0,0,1,5.779,7.621Z" transform="translate(28.523 0)" fill="#1e997a"/>
            <circle id="Ellipse_113" data-name="Ellipse 113" cx="3.36" cy="3.36" r="3.36" transform="translate(54.094 22.222)" fill="#0f5b8d"/>
            <path id="Path_575" data-name="Path 575" d="M7.894,0,0,5.764,1.418,8.5,10.3,3.773Z" transform="translate(9.6 40.225)" fill="#2a5b61"/>
            <rect id="Rectangle_15" data-name="Rectangle 15" width="11.501" height="2.939" rx="1.469" transform="translate(11.869 48.553) rotate(166.611)" fill="#2a5b61"/>
          </g>
        </g>
      </g>
      <g id="Man" transform="translate(376.53 234.5)">
        <g id="shoes" transform="translate(0 105.767)">
          <g id="Group_393" data-name="Group 393" transform="translate(0 0)">
            <path id="Path_576" data-name="Path 576" d="M2450.12,1344.873s-2.1,5.089,1.25,5.372,6.758,1.96,6.825,4.429c.013.466-18.025-.263-18.025-.421-.018-4.323,3.744-13.959,3.744-13.959Z" transform="translate(-2440.17 -1340.294)" fill="#276d72"/>
            <path id="Path_577" data-name="Path 577" d="M2440.489,1353.393c.394-4.619,3.7-13.1,3.7-13.1l5.949,4.39a7.362,7.362,0,0,0-.37,2.722c-.118,1.322.18,2.7,1.878,2.84,2.947.249,5.931,1.575,6.658,3.569C2456.674,1354.1,2443.344,1353.607,2440.489,1353.393Z" transform="translate(-2440.45 -1340.295)" fill="#e6881c"/>
            <path id="Path_578" data-name="Path 578" d="M2445.434,1355.222c1.117.161,1.639-.239,2.7-.412a5.772,5.772,0,0,1,1.565-.036,1.883,1.883,0,0,0,1.86,1.773c2.947.249,7.208,1.762,6.658,3.569-1.635.285-14.963-.207-17.819-.422a34.2,34.2,0,0,1,1.344-6.171c.215.084.415.167.586.238C2443.864,1354.4,2444.186,1355.042,2445.434,1355.222Z" transform="translate(-2440.354 -1346.596)" fill="#1e997a"/>
            <path id="Path_579" data-name="Path 579" d="M2442.153,1360.816a4.858,4.858,0,0,1,.863-.527c2.257.641,4.276,1.772,3.886,3.049a63.931,63.931,0,0,1-6.51.028A5.284,5.284,0,0,1,2442.153,1360.816Z" transform="translate(-2429.043 -1349.818)" fill="#2a5b61"/>
          </g>
          <g id="Group_394" data-name="Group 394" transform="translate(39.329 2.695)">
            <path id="Path_580" data-name="Path 580" d="M2372.438,1346.452s-.082,4.982,3.271,5.266,6.027.351,6.355,3.67c.083.836-11.524,1.709-15.743,1.2-1.05-.127-.892-.993-.989-2.046a38.2,38.2,0,0,0-2.423-9.1Z" transform="translate(-2362.91 -1345.443)" fill="#276d72"/>
            <path id="Path_581" data-name="Path 581" d="M2367.228,1355.783a2.222,2.222,0,0,1-1.8-1.39,24.168,24.168,0,0,0-.536-3.058,42.4,42.4,0,0,0-1.736-5.868l9.256.981a9,9,0,0,0,.275,1.529c.259,1.492,1,3.571,3.133,3.751,3.078.26,5.578.346,6.223,2.925C2380.423,1355.433,2371.061,1356.246,2367.228,1355.783Z" transform="translate(-2363.025 -1345.453)" fill="#e6881c"/>
            <path id="Path_582" data-name="Path 582" d="M2365.427,1354.556a4.552,4.552,0,0,0,2.419.523c1.074-.114,1.314-.739,2.476-1.383a2.559,2.559,0,0,1,1.243-.3,3.156,3.156,0,0,0,2.656,2.107c3.078.26,5.579.345,6.223,2.925-1.623.781-10.987,1.594-14.819,1.13a2.222,2.222,0,0,1-1.8-1.39,24.128,24.128,0,0,0-.536-3.058c-.04-.2-.085-.393-.129-.589a3.893,3.893,0,0,1,2.263.036Z" transform="translate(-2361.421 -1349.227)" fill="#1e997a"/>
            <path id="Path_583" data-name="Path 583" d="M2363.162,1361.49a5.648,5.648,0,0,1,1.134-3.005,6.224,6.224,0,0,1,.621-.682c2.039.254,3.572.784,4.056,2.723A25.231,25.231,0,0,1,2363.162,1361.49Z" transform="translate(-2349.95 -1351.327)" fill="#2a5b61"/>
          </g>
        </g>
        <g id="Paints" transform="translate(1.224 33.715)">
          <path id="Path_584" data-name="Path 584" d="M2446.284,1216.481a147.894,147.894,0,0,1-3.316,27.585c-.849,3.967-3.813,9.277-5.483,13.149a134.873,134.873,0,0,0-4.5,12.949c-1.034,3.259-1.207,5.768-2.305,9.006-.4,1.167-.778,2.816-1.29,3.936-1.281,2.813-5.363,2.05-7.781,1.064-5.411-2.206-4.115-1.182-2.344-9.025,1.525-6.756,1.826-22.739,7.583-28.234,0,0-4.213-29.618,3.777-36.906S2446.284,1216.481,2446.284,1216.481Z" transform="translate(-2417.73 -1205.169)" fill="#2a5b61"/>
          <path id="Path_585" data-name="Path 585" d="M2399.487,1213.458s11.508,23.5,11.8,33.831c1.516,3.981,8.4,26.055,8.343,31.2-.032,2.933-2.721,2.994-5.586,3.394-2.905.4-4.537.935-5.8-1.365-2.83-5.161-7.984-21.827-8.916-27.554-.749-4.609-8.579-16.2-11.424-20.193,0,0-15.865-9.581-4.417-25.384C2393.162,1194.039,2399.487,1213.458,2399.487,1213.458Z" transform="translate(-2370.974 -1202.704)" fill="#276d72"/>
        </g>
        <g id="Head" transform="translate(38.817 0)">
          <path id="Path_586" data-name="Path 586" d="M2383.411,1147.091a3.52,3.52,0,0,1,.2.437,9.363,9.363,0,0,1,.063,4.3,28.452,28.452,0,0,1-1.058,4.594c-.55,1.813-2.145,4.428-4.165,4.774-3.464.593-5.83-5.543-5.83-5.543s-3.558-1.553-1.732-4.594,2.683.818,2.683.824c-.2-.9.576-2.557.908-3.344.738-1.744,2.032-3.458,4.073-3.593C2380.356,1144.821,2382.51,1145.424,2383.411,1147.091Z" transform="translate(-2368.132 -1141.468)" fill="#ffc6b3"/>
          <path id="Path_587" data-name="Path 587" d="M2371.392,1159.1s1.446,4.165.689,4.8-1.924.464-1.855,0S2371.392,1159.1,2371.392,1159.1Z" transform="translate(-2356.463 -1148.219)" fill="#ffc6b3"/>
          <path id="Path_588" data-name="Path 588" d="M2376,1139.538s4.932-1.595,5.382,1.834-2.1,6.806-7.94,6.318-6.078-2.171-7.518,1.028c0,0-.141.4-.3-.016-.238-.634-.834-1.973-1.516-1.724-.934.34-1.375,2.773-1.375,2.773s-3.8-1.078-1.483-6.836a3.138,3.138,0,0,1,3.8-2.07s3.314-3.26,7.306-2.369A20.077,20.077,0,0,1,2376,1139.538Z" transform="translate(-2360.501 -1138.321)" fill="#b14225"/>
          <path id="Path_589" data-name="Path 589" d="M2375.37,1158.288a2.193,2.193,0,0,0-.683-.457,2.5,2.5,0,0,0-.808-.213,1.921,1.921,0,0,0-.846.123,1.349,1.349,0,0,0-.632.547,2.88,2.88,0,0,1,.719-.271,2.983,2.983,0,0,1,.731-.03,5.347,5.347,0,0,1,.746.117Z" transform="translate(-2360.673 -1147.509)" fill="#603213"/>
          <ellipse id="Ellipse_114" data-name="Ellipse 114" cx="0.495" cy="0.742" rx="0.495" ry="0.742" transform="translate(12.963 11.15)" fill="#603213"/>
          <path id="Path_590" data-name="Path 590" d="M2378.333,1169.176s-2.254,1.059-2.942-1.185c0,0-.206-1.646,1.107-.334C2377.237,1168.4,2379.464,1168.461,2378.333,1169.176Z" transform="translate(-2365.511 -1152.053)" fill="#b23622" opacity="0.7"/>
        </g>
        <path id="Path_591" data-name="Path 591" d="M2342.949,1172.8s6.97-6.867,1.722-11.768c-3.676-3.434-5.874,8.17-5.874,8.17Z" transform="translate(-2275.518 -1148.838)" fill="#ffc6b3"/>
        <g id="Group_395" data-name="Group 395" transform="translate(13.955 13.668)">
          <path id="Path_592" data-name="Path 592" d="M2359.217,1189.862a13.86,13.86,0,0,0,2.4-2.815c1.624-2.129,3.553-4.15,5.177-6.279,1.98-2.6,3.684-5.279,5.671-7.871a.827.827,0,0,0,.213-.437c.02-.43-4.01-3.525-3.956-3.575,0,0-11.088,10.056-13.075,18.424-.239,1-.3,2.3.767,2.827A2.5,2.5,0,0,0,2359.217,1189.862Z" transform="translate(-2324.268 -1166.549)" fill="#b14225"/>
          <path id="Path_593" data-name="Path 593" d="M2375.049,1165.534s-12.3-6.231-26.036,10.792c-3.938,4.881-3.819,12.268-3.819,12.268s10.126,8.59,15.99,6.924c0,0,2.4-6.174,8.8-8.161l3.527,3.121c1.555,1.377,3.964,3.62,6.082,4.192,2.4.649,4.355-.333,6.352-1.8a16.921,16.921,0,0,0,3.1-3.424c1.388-1.8,2.691-3.659,3.971-5.535q1.867-2.737,3.661-5.523c.762-1.178,1.5-2.37,2.273-3.544.273-.417-.507-.893-.767-1.141-.39-.375-.793-.739-1.2-1.1q-1.025-.912-2.072-1.8c-.008-.006-.314-.32-.314-.32l-12.164,14.932S2379.886,1168.814,2375.049,1165.534Z" transform="translate(-2345.194 -1164.421)" fill="#ea8102"/>
          <path id="Path_594" data-name="Path 594" d="M2395.878,1199.865c.571,2.192,2.189,5.355,6.052,9.762-2.117-.572-3.561-2.264-5.116-3.641l-3.526-3.121c-6.4,1.987-8.8,8.161-8.8,8.161s-2.628-9.414,5.89-13.671a3.909,3.909,0,0,1,5.5,2.51Z" transform="translate(-2368.5 -1179.929)" fill="#d16309"/>
        </g>
        <path id="Finger" d="M2354.481,1174.157s5.631-5.546,1.391-9.507c-2.969-2.774-4.744,6.6-4.744,6.6Z" transform="translate(-2292.798 -1150.619)" fill="#ffc6b3"/>
      </g>
    </g>
    <g transform="matrix(1, 0, 0, 1, 321.5, 137.5)" filter="url(#타원_81)">
      <circle id="타원_81-2" data-name="타원 81" cx="4" cy="4" r="4" transform="translate(325.5 84.5)" fill="#e53935"/>
    </g>
    <g transform="matrix(1, 0, 0, 1, 321.5, 137.5)" filter="url(#타원_82)">
      <circle id="타원_82-2" data-name="타원 82" cx="4" cy="4" r="4" transform="translate(437.5 84.5)" fill="#ed8c00"/>
    </g>
    <g transform="matrix(1, 0, 0, 1, 321.5, 137.5)" filter="url(#타원_83)">
      <circle id="타원_83-2" data-name="타원 83" cx="4" cy="4" r="4" transform="translate(549.5 84.5)" fill="#ed8c00" opacity="0"/>
    </g>
    <g transform="matrix(1, 0, 0, 1, 321.5, 137.5)" filter="url(#타원_84)">
      <circle id="타원_84-2" data-name="타원 84" cx="4" cy="4" r="4" transform="translate(661.5 84.5)" fill="#fbf665"/>
    </g>
    <g transform="matrix(1, 0, 0, 1, 321.5, 137.5)" filter="url(#타원_85)">
      <circle id="타원_85-2" data-name="타원 85" cx="4" cy="4" r="4" transform="translate(773.5 84.5)" fill="#ed8c00" opacity="0"/>
    </g>
    <g transform="matrix(1, 0, 0, 1, 321.5, 137.5)" filter="url(#타원_86)">
      <circle id="타원_86-2" data-name="타원 86" cx="4" cy="4" r="4" transform="translate(884.5 84.5)" fill="#ed8c00" opacity="0"/>
    </g>
    <g transform="matrix(1, 0, 0, 1, 321.5, 137.5)" filter="url(#타원_87)">
      <circle id="타원_87-2" data-name="타원 87" cx="4" cy="4" r="4" transform="translate(997.5 84.5)" fill="#ed8c00" opacity="0"/>
    </g>
    <g transform="matrix(1, 0, 0, 1, 321.5, 137.5)" filter="url(#타원_88)">
      <circle id="타원_88-2" data-name="타원 88" cx="4" cy="4" r="4" transform="translate(1109.5 84.5)" fill="#e53935"/>
    </g>
    <g transform="matrix(1, 0, 0, 1, 321.5, 137.5)" filter="url(#타원_89)">
      <circle id="타원_89-2" data-name="타원 89" cx="4" cy="4" r="4" transform="translate(1221.5 84.5)" fill="#ed8c00" opacity="0"/>
    </g>
    <g transform="matrix(1, 0, 0, 1, 321.5, 137.5)" filter="url(#타원_90)">
      <circle id="타원_90-2" data-name="타원 90" cx="4" cy="4" r="4" transform="translate(1333.5 84.5)" fill="#ed8c00" opacity="0"/>
    </g>
  </g>
</svg>
