<?xml version="1.0" encoding="UTF-8"?><svg id="uuid-1e40d154-6c0f-459c-bb84-cc919cfd16df" xmlns="http://www.w3.org/2000/svg" viewBox="0 0 21.24 20.99"><defs><style>.uuid-47981056-3ab7-4081-b630-b7de7e957fc0{fill:#fff;stroke-width:0px;}</style></defs><g id="uuid-29f1ab56-e120-499a-af23-9683dcca508f"><path class="uuid-47981056-3ab7-4081-b630-b7de7e957fc0" d="M5.25,16.83h-1.68c-.58,0-1.06-.47-1.06-1.06v-1.68c0-.58.47-1.06,1.06-1.06h1.68c.58,0,1.06.47,1.06,1.06v1.68c0,.58-.47,1.06-1.06,1.06ZM3.57,14.04s-.06.03-.06.06v1.68s.03.06.06.06h1.68s.06-.03.06-.06v-1.68s-.03-.06-.06-.06h-1.68Z"/><path class="uuid-47981056-3ab7-4081-b630-b7de7e957fc0" d="M10.19,3h-3.39c-.64,0-1.17-.52-1.17-1.17V.5c0-.28.22-.5.5-.5h4.73c.28,0,.5.22.5.5v1.33c0,.64-.52,1.17-1.17,1.17ZM6.63,1v.83c0,.09.07.17.17.17h3.39c.09,0,.17-.07.17-.17v-.83h-3.73Z"/><path class="uuid-47981056-3ab7-4081-b630-b7de7e957fc0" d="M14.82,20.99H2.17c-1.19,0-2.17-.97-2.17-2.17V2.17C0,.97.97,0,2.17,0h12.66c1.19,0,2.17.97,2.17,2.17v2.88c0,.28-.22.5-.5.5s-.5-.22-.5-.5v-2.88c0-.64-.52-1.17-1.17-1.17H2.17c-.64,0-1.17.52-1.17,1.17v16.66c0,.64.52,1.17,1.17,1.17h12.66c.64,0,1.17-.52,1.17-1.17v-3.32c0-.28.22-.5.5-.5s.5.22.5.5v3.32c0,1.19-.97,2.17-2.17,2.17Z"/><path class="uuid-47981056-3ab7-4081-b630-b7de7e957fc0" d="M5.26,12.42h-1.68c-.58,0-1.06-.47-1.06-1.06v-1.68c0-.58.47-1.06,1.06-1.06h1.68c.58,0,1.06.47,1.06,1.06v1.68c0,.58-.47,1.06-1.06,1.06ZM3.58,9.63s-.06.03-.06.06v1.68s.03.06.06.06h1.68s.06-.03.06-.06v-1.68s-.03-.06-.06-.06h-1.68Z"/><path class="uuid-47981056-3ab7-4081-b630-b7de7e957fc0" d="M5.26,7.98h-1.68c-.58,0-1.06-.47-1.06-1.06v-1.68c0-.58.47-1.06,1.06-1.06h1.68c.58,0,1.06.47,1.06,1.06v1.68c0,.58-.47,1.06-1.06,1.06ZM3.58,5.19s-.06.03-.06.06v1.68s.03.06.06.06h1.68s.06-.02.06-.06v-1.68s-.03-.06-.06-.06h-1.68Z"/><path class="uuid-47981056-3ab7-4081-b630-b7de7e957fc0" d="M13.91,12.34c-.14,0-.28-.06-.37-.17l-1.53-1.73c-.18-.21-.16-.52.04-.71.21-.18.52-.16.71.04l1.11,1.25,1.91-2.79c.16-.23.47-.29.69-.13.23.16.29.47.13.69l-2.27,3.32c-.09.13-.23.21-.38.22-.01,0-.02,0-.03,0Z"/><path class="uuid-47981056-3ab7-4081-b630-b7de7e957fc0" d="M14.09,16.53c-3.44,0-6.24-2.8-6.24-6.24s2.8-6.24,6.24-6.24,6.24,2.8,6.24,6.24-2.8,6.24-6.24,6.24ZM14.09,5.05c-2.89,0-5.24,2.35-5.24,5.24s2.35,5.24,5.24,5.24,5.24-2.35,5.24-5.24-2.35-5.24-5.24-5.24Z"/><path class="uuid-47981056-3ab7-4081-b630-b7de7e957fc0" d="M20.74,17.14c-.13,0-.26-.05-.35-.15l-2.41-2.42c-.2-.2-.2-.51,0-.71s.51-.2.71,0l2.41,2.42c.2.2.2.51,0,.71-.1.1-.23.15-.35.15Z"/></g></svg>