<?xml version="1.0" encoding="UTF-8"?><svg id="uuid-922dff9e-2510-415d-a560-715ed1707f45" xmlns="http://www.w3.org/2000/svg" viewBox="0 0 21 21"><defs><style>.uuid-a766a7b8-0ffd-49d7-a383-d7fbb519238a{fill:#fff;stroke-width:0px;}</style></defs><g id="uuid-58077532-a6fb-4c47-bbcc-15faa2f68577"><g id="uuid-985a734e-7db8-40ee-aa23-cd30727efce5"><path class="uuid-a766a7b8-0ffd-49d7-a383-d7fbb519238a" d="M13.44,13.82c0-.65-.21-1.19-.64-1.6-.42-.41-1.17-.81-2.24-1.18-1.33-.42-2.26-.91-2.8-1.49s-.8-1.32-.8-2.23c0-.96.29-1.74.88-2.34s1.39-.94,2.4-1.02v-1.78h.9v1.78c1.04.09,1.84.48,2.41,1.16s.85,1.61.85,2.78h-1.05c0-.92-.24-1.66-.72-2.2-.48-.54-1.13-.82-1.96-.82s-1.49.22-1.96.66c-.47.44-.7,1.02-.7,1.76s.21,1.26.64,1.66c.43.4,1.16.77,2.19,1.12s1.78.69,2.25,1.01c.47.32.82.7,1.05,1.14.23.44.35.96.35,1.58,0,.97-.3,1.74-.9,2.33-.6.59-1.43.93-2.49,1.01v1.68h-.89v-1.67c-1.18-.08-2.1-.45-2.75-1.12-.65-.67-.97-1.58-.97-2.74h1.06c0,.92.27,1.64.8,2.16.54.52,1.28.78,2.24.78.84,0,1.52-.22,2.04-.67s.79-1.03.79-1.75Z"/><path class="uuid-a766a7b8-0ffd-49d7-a383-d7fbb519238a" d="M10.5,21C4.71,21,0,16.29,0,10.5S4.71,0,10.5,0s10.5,4.71,10.5,10.5-4.71,10.5-10.5,10.5ZM10.5,1C5.26,1,1,5.26,1,10.5s4.26,9.5,9.5,9.5,9.5-4.26,9.5-9.5S15.74,1,10.5,1Z"/></g></g></svg>