<?xml version="1.0" encoding="UTF-8"?><svg id="uuid-1210c71c-a387-452e-830d-f29a991e7f55" xmlns="http://www.w3.org/2000/svg" viewBox="0 0 21 17"><defs><style>.uuid-0efcf8bc-366d-45e3-a822-0424e5648304{fill:#fff;stroke-width:0px;}</style></defs><g id="uuid-3de85ff3-999d-4d35-a94d-0a22c7c409ce"><path class="uuid-0efcf8bc-366d-45e3-a822-0424e5648304" d="M11.5,5h-2c-.28,0-.5-.22-.5-.5V.5c0-.28.22-.5.5-.5h2c.28,0,.5.22.5.5v4c0,.28-.22.5-.5.5ZM10,4h1V1h-1v3Z"/><g id="uuid-df5b4f03-3000-4658-bfc4-41a9df9b4dc7"><path class="uuid-0efcf8bc-366d-45e3-a822-0424e5648304" d="M6.5,9.73c-1.16,0-2.1-.94-2.1-2.1s.94-2.1,2.1-2.1,2.1.94,2.1,2.1-.94,2.1-2.1,2.1ZM6.5,6.53c-.61,0-1.1.49-1.1,1.1s.49,1.1,1.1,1.1,1.1-.49,1.1-1.1-.49-1.1-1.1-1.1Z"/><path class="uuid-0efcf8bc-366d-45e3-a822-0424e5648304" d="M10.5,14.53c-.28,0-.5-.22-.5-.5,0-1.93-1.57-3.5-3.5-3.5s-3.5,1.57-3.5,3.5c0,.28-.22.5-.5.5s-.5-.22-.5-.5c0-2.48,2.02-4.5,4.5-4.5s4.5,2.02,4.5,4.5c0,.28-.22.5-.5.5Z"/></g><path class="uuid-0efcf8bc-366d-45e3-a822-0424e5648304" d="M18.5,8.03h-6.08c-.28,0-.5-.22-.5-.5s.22-.5.5-.5h6.08c.28,0,.5.22.5.5s-.22.5-.5.5Z"/><path class="uuid-0efcf8bc-366d-45e3-a822-0424e5648304" d="M18.5,10.53h-6.08c-.28,0-.5-.22-.5-.5s.22-.5.5-.5h6.08c.28,0,.5.22.5.5s-.22.5-.5.5Z"/><path class="uuid-0efcf8bc-366d-45e3-a822-0424e5648304" d="M18.5,13.03h-6.08c-.28,0-.5-.22-.5-.5s.22-.5.5-.5h6.08c.28,0,.5.22.5.5s-.22.5-.5.5Z"/><path class="uuid-0efcf8bc-366d-45e3-a822-0424e5648304" d="M19.06,17H1.94c-1.07,0-1.94-.87-1.94-1.94V4.48c0-1.07.87-1.94,1.94-1.94h7.56v1H1.94c-.52,0-.94.42-.94.94v10.58c0,.52.42.94.94.94h17.12c.52,0,.94-.42.94-.94V4.48c0-.52-.42-.94-.94-.94h-7.56v-1h7.56c1.07,0,1.94.87,1.94,1.94v10.58c0,1.07-.87,1.94-1.94,1.94Z"/></g></svg>