<?xml version="1.0" encoding="UTF-8"?><svg id="uuid-58fc36b0-88ad-43e0-95f8-cf977f7981a8" xmlns="http://www.w3.org/2000/svg" viewBox="0 0 21 17"><defs><style>.uuid-393d592b-8145-4c7d-b537-60811950fa67{fill:#fff;stroke-width:0px;}</style></defs><g id="uuid-e13d6f94-3d25-4623-99dd-7b2607fee5dc"><path class="uuid-393d592b-8145-4c7d-b537-60811950fa67" d="M18.82,17H2.18c-1.2,0-2.18-.98-2.18-2.18V2.18C0,.98.98,0,2.18,0h16.63c1.2,0,2.18.98,2.18,2.18v12.63c0,1.2-.98,2.18-2.18,2.18ZM2.18,1c-.65,0-1.18.53-1.18,1.18v12.63c0,.65.53,1.18,1.18,1.18h16.63c.65,0,1.18-.53,1.18-1.18V2.18c0-.65-.53-1.18-1.18-1.18H2.18Z"/><g id="uuid-79971223-c1de-49e7-98d3-dd8a0437e9b5"><path class="uuid-393d592b-8145-4c7d-b537-60811950fa67" d="M5.02,9c-1.66,0-3.01-1.35-3.01-3.01s1.35-3.01,3.01-3.01c.28,0,.5.22.5.5s-.22.5-.5.5c-1.11,0-2.01.9-2.01,2.01s.9,2.01,2.01,2.01,2.01-.9,2.01-2.01c0-.28.22-.5.5-.5s.5.22.5.5c0,1.66-1.35,3.01-3.01,3.01Z"/><path class="uuid-393d592b-8145-4c7d-b537-60811950fa67" d="M7.54,6.49h-2.51c-.28,0-.5-.22-.5-.5v-2.51c0-.28.22-.5.5-.5s.5.22.5.5v2.01h2.01c.28,0,.5.22.5.5s-.22.5-.5.5Z"/><path class="uuid-393d592b-8145-4c7d-b537-60811950fa67" d="M8.63,5.4h-2.51c-.28,0-.5-.22-.5-.5v-2.51c0-.28.22-.5.5-.5,1.66,0,3.01,1.35,3.01,3.01,0,.28-.22.5-.5.5ZM6.61,4.4h1.45c-.18-.71-.74-1.27-1.45-1.45v1.45Z"/></g><g id="uuid-367d9dee-d0dc-4bf5-8331-5f0956055202"><path class="uuid-393d592b-8145-4c7d-b537-60811950fa67" d="M18.5,15.04h-8.01c-.28,0-.5-.22-.5-.5s.22-.5.5-.5h8.01c.28,0,.5.22.5.5s-.22.5-.5.5Z"/><path class="uuid-393d592b-8145-4c7d-b537-60811950fa67" d="M11.96,13.41h-1.14c-.46,0-.83-.37-.83-.83v-1.35c0-.46.37-.83.83-.83h1.14c.46,0,.83.37.83.83v1.35c0,.46-.37.83-.83.83ZM11,12.41h.8v-1h-.8v1Z"/><path class="uuid-393d592b-8145-4c7d-b537-60811950fa67" d="M15.04,13.41h-1.14c-.46,0-.83-.37-.83-.83v-3.75c0-.46.37-.83.83-.83h1.14c.46,0,.83.37.83.83v3.75c0,.46-.37.83-.83.83ZM14.08,12.41h.8v-3.41h-.8v3.41Z"/><path class="uuid-393d592b-8145-4c7d-b537-60811950fa67" d="M18.12,13.41h-1.14c-.46,0-.83-.37-.83-.83v-2.56c0-.46.37-.83.83-.83h1.14c.46,0,.83.37.83.83v2.56c0,.46-.37.83-.83.83ZM17.16,12.41h.8v-2.22h-.8v2.22Z"/></g><path class="uuid-393d592b-8145-4c7d-b537-60811950fa67" d="M13.45,7.12h-2.95c-.28,0-.5-.22-.5-.5V2.47c0-.28.22-.5.5-.5h2.95c.28,0,.5.22.5.5v4.15c0,.28-.22.5-.5.5ZM11,6.12h1.95v-3.15h-1.95v3.15Z"/><path class="uuid-393d592b-8145-4c7d-b537-60811950fa67" d="M8.5,15.07H2.52c-.28,0-.5-.22-.5-.5v-4.15c0-.28.22-.5.5-.5h5.98c.28,0,.5.22.5.5v4.15c0,.28-.22.5-.5.5ZM3.02,14.07h4.98v-3.15H3.02v3.15Z"/><path class="uuid-393d592b-8145-4c7d-b537-60811950fa67" d="M18.5,2.89h-3.13c-.28,0-.5-.22-.5-.5s.22-.5.5-.5h3.13c.28,0,.5.22.5.5s-.22.5-.5.5Z"/><path class="uuid-393d592b-8145-4c7d-b537-60811950fa67" d="M18.5,5.05h-3.13c-.28,0-.5-.22-.5-.5s.22-.5.5-.5h3.13c.28,0,.5.22.5.5s-.22.5-.5.5Z"/><path class="uuid-393d592b-8145-4c7d-b537-60811950fa67" d="M18.5,7.12h-3.13c-.28,0-.5-.22-.5-.5s.22-.5.5-.5h3.13c.28,0,.5.22.5.5s-.22.5-.5.5Z"/></g></svg>