<?xml version="1.0" encoding="UTF-8"?><svg id="uuid-92aad255-e66d-4e46-bb8b-fb842f5f10a7" xmlns="http://www.w3.org/2000/svg" viewBox="0 0 17 19"><defs><style>.uuid-05002b18-469c-4fb9-98e5-b12f511bee55{fill:#fff;stroke-width:0px;}</style></defs><g id="uuid-2a5ff363-8f84-4b5a-8350-32a64b2c8af8"><path class="uuid-05002b18-469c-4fb9-98e5-b12f511bee55" d="M16.5,7.79H.5c-.21,0-.4-.13-.47-.33s-.01-.42.15-.55L8.18.12c.19-.16.46-.16.65,0l8,6.79c.16.14.22.36.15.55s-.26.33-.47.33ZM1.86,6.79h13.28L8.5,1.16,1.86,6.79Z"/><path class="uuid-05002b18-469c-4fb9-98e5-b12f511bee55" d="M16.5,9.79H.5C.22,9.79,0,9.56,0,9.29v-2C0,7.01.22,6.79.5,6.79h16c.28,0,.5.22.5.5v2c0,.28-.22.5-.5.5ZM1,8.79h15v-1H1v1Z"/><path class="uuid-05002b18-469c-4fb9-98e5-b12f511bee55" d="M16.5,19H.5C.22,19,0,18.78,0,18.5v-1.86c0-.28.22-.5.5-.5h16c.28,0,.5.22.5.5v1.86c0,.28-.22.5-.5.5ZM1,18h15v-.86H1v.86Z"/><path class="uuid-05002b18-469c-4fb9-98e5-b12f511bee55" d="M14.5,17.14h-2c-.28,0-.5-.22-.5-.5v-7.35c0-.28.22-.5.5-.5h2c.28,0,.5.22.5.5v7.35c0,.28-.22.5-.5.5ZM13,16.14h1v-6.35h-1v6.35Z"/><path class="uuid-05002b18-469c-4fb9-98e5-b12f511bee55" d="M9.5,17.14h-2c-.28,0-.5-.22-.5-.5v-7.35c0-.28.22-.5.5-.5h2c.28,0,.5.22.5.5v7.35c0,.28-.22.5-.5.5ZM8,16.14h1v-6.35h-1v6.35Z"/><path class="uuid-05002b18-469c-4fb9-98e5-b12f511bee55" d="M4.5,17.14h-2c-.28,0-.5-.22-.5-.5v-7.35c0-.28.22-.5.5-.5h2c.28,0,.5.22.5.5v7.35c0,.28-.22.5-.5.5ZM3,16.14h1v-6.35h-1v6.35Z"/><path class="uuid-05002b18-469c-4fb9-98e5-b12f511bee55" d="M8.5,6c-.83,0-1.5-.67-1.5-1.5s.67-1.5,1.5-1.5,1.5.67,1.5,1.5-.67,1.5-1.5,1.5ZM8.5,4c-.28,0-.5.22-.5.5s.22.5.5.5.5-.22.5-.5-.22-.5-.5-.5Z"/></g></svg>