<?xml version="1.0" encoding="UTF-8"?><svg id="uuid-244537ed-d1e3-43dd-839e-a5a0410b8cc2" xmlns="http://www.w3.org/2000/svg" viewBox="0 0 18.58 20"><defs><style>.uuid-7ad53015-fab5-44a3-9baa-d5b6ec437160{fill:#fff;stroke-width:0px;}</style></defs><g id="uuid-2e61db5f-369e-4e94-ba71-5c46a48f69e9"><path class="uuid-7ad53015-fab5-44a3-9baa-d5b6ec437160" d="M1.7,11.2c-.26,0-.51-.1-.71-.29l-.7-.7c-.39-.39-.39-1.02,0-1.41L8.59.5c.39-.39,1.02-.39,1.41,0l8.29,8.29c.19.19.29.44.29.71s-.1.52-.29.71l-.7.7c-.38.38-1.04.38-1.41,0l-6.88-6.88-6.89,6.89c-.2.19-.45.29-.71.29ZM9.29,1.21L1,9.5l.7.7,7.24-7.24c.09-.09.22-.15.35-.15h0c.13,0,.26.05.35.15l7.24,7.24h0l.7-.7L9.29,1.21Z"/><path class="uuid-7ad53015-fab5-44a3-9baa-d5b6ec437160" d="M14.58,20H3.79c-1.1,0-2-.9-2-2v-7.68c0-.28.22-.5.5-.5s.5.22.5.5v7.68c0,.55.45,1,1,1h10.79c.55,0,1-.45,1-1v-7.68c0-.28.22-.5.5-.5s.5.22.5.5v7.68c0,1.1-.9,2-2,2Z"/><path class="uuid-7ad53015-fab5-44a3-9baa-d5b6ec437160" d="M15.04,6.58c-.28,0-.5-.22-.5-.5V1h-.74v3.41c0,.28-.22.5-.5.5s-.5-.22-.5-.5V1c0-.55.45-1,1-1h.74c.55,0,1,.45,1,1v5.08c0,.28-.22.5-.5.5Z"/><path class="uuid-7ad53015-fab5-44a3-9baa-d5b6ec437160" d="M11.19,20c-.28,0-.5-.22-.5-.5v-7.5h-3v7.5c0,.28-.22.5-.5.5s-.5-.22-.5-.5v-7.5c0-.55.45-1,1-1h3c.55,0,1,.45,1,1v7.5c0,.28-.22.5-.5.5Z"/></g></svg>