<?xml version="1.0" encoding="UTF-8"?><svg id="uuid-c32b10e4-66d7-47c1-b0a6-066cce1c0b1f" xmlns="http://www.w3.org/2000/svg" viewBox="0 0 19 21"><defs><style>.uuid-8c611f69-dd2a-4cae-9197-857f1b190ca4{fill:#fff;stroke-width:0px;}</style></defs><g id="uuid-90b3bc82-6abf-4012-9558-501a513c9a05"><g id="uuid-2a9bf878-52e7-4995-8edb-3ce9ca9e4400"><path class="uuid-8c611f69-dd2a-4cae-9197-857f1b190ca4" d="M.5,19c-.28,0-.5-.22-.5-.5V.5C0,.22.22,0,.5,0h16c.28,0,.5.22.5.5s-.22.5-.5.5H1v17.5c0,.28-.22.5-.5.5Z"/><path class="uuid-8c611f69-dd2a-4cae-9197-857f1b190ca4" d="M13.7,21H2.5c-.28,0-.5-.22-.5-.5V2.5c0-.28.22-.5.5-.5h16c.28,0,.5.22.5.5v12.6c0,.28-.22.5-.5.5s-.5-.22-.5-.5V3H3v17h10.7c.28,0,.5.22.5.5s-.22.5-.5.5Z"/><path class="uuid-8c611f69-dd2a-4cae-9197-857f1b190ca4" d="M5.18,10.91h2.49v.94h-3.66v-5.69h1.17v4.75Z"/><path class="uuid-8c611f69-dd2a-4cae-9197-857f1b190ca4" d="M12.36,9.14c0,.56-.1,1.05-.3,1.47s-.48.75-.85.98-.79.34-1.27.34-.89-.11-1.26-.34-.66-.55-.86-.97-.31-.9-.31-1.45v-.28c0-.56.1-1.05.3-1.48s.49-.75.86-.98.79-.34,1.26-.34.9.11,1.26.34.65.55.86.98.3.92.3,1.47v.25ZM11.17,8.88c0-.6-.11-1.05-.32-1.36s-.52-.46-.91-.46-.7.15-.91.46-.32.75-.32,1.35v.28c0,.58.11,1.03.32,1.35s.52.48.92.48.7-.15.91-.46.32-.76.32-1.35v-.28Z"/><path class="uuid-8c611f69-dd2a-4cae-9197-857f1b190ca4" d="M17.31,11.13c-.21.25-.51.45-.89.59s-.81.21-1.28.21c-.49,0-.92-.11-1.29-.32s-.66-.53-.86-.94-.31-.89-.31-1.44v-.39c0-.57.1-1.06.29-1.47s.47-.73.83-.95.78-.33,1.27-.33c.67,0,1.2.16,1.58.48s.61.79.68,1.4h-1.14c-.05-.33-.17-.56-.35-.71s-.42-.23-.74-.23c-.4,0-.7.15-.91.45s-.31.74-.32,1.34v.36c0,.6.11,1.05.34,1.35s.56.46,1,.46.75-.09.94-.28v-.98h-1.07v-.86h2.24v2.27Z"/><path class="uuid-8c611f69-dd2a-4cae-9197-857f1b190ca4" d="M13.7,21c-.06,0-.12-.01-.18-.03-.19-.07-.32-.26-.32-.47v-5.4c0-.28.22-.5.5-.5h4.8c.2,0,.38.12.46.3.08.18.05.39-.08.54l-4.8,5.4c-.1.11-.23.17-.37.17ZM14.2,15.6v3.59l3.19-3.59h-3.19Z"/></g></g></svg>