<?xml version="1.0" encoding="UTF-8"?><svg id="uuid-eac7c0a1-f51c-4d04-a16d-2d154bf0a2e2" xmlns="http://www.w3.org/2000/svg" viewBox="0 0 21.23 20.29"><defs><style>.uuid-c415bcf1-906f-4054-a254-6cb79612a237{fill:#fff;stroke-width:0px;}</style></defs><g id="uuid-a4864437-1796-4b7d-b377-fe67605b5726"><path class="uuid-c415bcf1-906f-4054-a254-6cb79612a237" d="M20.73,12.84H.5c-.28,0-.5-.22-.5-.5V3C0,1.35,1.35,0,3,0h15.23c1.65,0,3,1.35,3,3v9.34c0,.28-.22.5-.5.5ZM1,11.84h19.23V3c0-1.1-.9-2-2-2H3c-1.1,0-2,.9-2,2v8.84Z"/><path class="uuid-c415bcf1-906f-4054-a254-6cb79612a237" d="M15.06,20.29H6.25c-.65,0-1.18-.53-1.18-1.18v-.68c0-.65.53-1.18,1.18-1.18h1.36v-2.55c0-.28.22-.5.5-.5h5.08c.28,0,.5.22.5.5v2.55h1.36c.65,0,1.18.53,1.18,1.18v.68c0,.65-.53,1.18-1.18,1.18ZM6.25,18.26c-.1,0-.18.08-.18.18v.68c0,.1.08.18.18.18h8.8c.1,0,.18-.08.18-.18v-.68c0-.1-.08-.18-.18-.18h-1.86c-.28,0-.5-.22-.5-.5v-2.55h-4.08v2.55c0,.28-.22.5-.5.5h-1.86Z"/><path class="uuid-c415bcf1-906f-4054-a254-6cb79612a237" d="M18.39,15.22H2.85c-1.57,0-2.85-1.28-2.85-2.85,0-.28.22-.53.5-.53h20.23c.28,0,.5.22.5.5,0,1.6-1.28,2.88-2.85,2.88ZM1.07,12.84c.21.8.93,1.38,1.78,1.38h15.54c.86,0,1.58-.59,1.79-1.38H1.07Z"/><path class="uuid-c415bcf1-906f-4054-a254-6cb79612a237" d="M10.62,9.75c-.13,0-.26-.05-.35-.15l-2.47-2.47-2.47,2.47c-.2.2-.51.2-.71,0s-.2-.51,0-.71l2.83-2.83c.2-.2.51-.2.71,0l2.47,2.47,5.3-5.3c.2-.2.51-.2.71,0s.2.51,0,.71l-5.66,5.66c-.1.1-.23.15-.35.15Z"/><path class="uuid-c415bcf1-906f-4054-a254-6cb79612a237" d="M16.27,7.1c-.28,0-.5-.22-.5-.5v-2.51h-2.51c-.28,0-.5-.22-.5-.5s.22-.5.5-.5h3.01c.28,0,.5.22.5.5v3.01c0,.28-.22.5-.5.5Z"/></g></svg>