<?xml version="1.0" encoding="UTF-8"?><svg id="uuid-0fe38ded-d96c-4f70-9481-d73e8b9c1cf2" xmlns="http://www.w3.org/2000/svg" viewBox="0 0 21.01 21"><defs><style>.uuid-52c66192-2f75-4118-a89f-3cbf312a78a8{fill:#fff;stroke-width:0px;}</style></defs><g id="uuid-1b9050c7-861b-4e2e-89f7-ead8118901d1"><g id="uuid-e184ce11-cfc4-4005-94cb-66d2a927aaa6"><path class="uuid-52c66192-2f75-4118-a89f-3cbf312a78a8" d="M17,11.02h-3.47c-.28,0-.5-.22-.5-.5s.22-.5.5-.5h3.47c1.66,0,3.01-1.35,3.01-3.01s-1.35-3.01-3.01-3.01H6.5c-.28,0-.5-.22-.5-.5s.22-.5.5-.5h10.5c2.21,0,4.01,1.8,4.01,4.01s-1.8,4.01-4.01,4.01Z"/><path class="uuid-52c66192-2f75-4118-a89f-3cbf312a78a8" d="M14.5,18H4.03C1.83,18,.04,16.21.04,14.01s1.79-3.99,3.99-3.99h3.49c.28,0,.5.22.5.5s-.22.5-.5.5h-3.49c-1.65,0-2.99,1.34-2.99,2.99s1.34,2.99,2.99,2.99h10.47c.28,0,.5.22.5.5s-.22.5-.5.5Z"/><path class="uuid-52c66192-2f75-4118-a89f-3cbf312a78a8" d="M3.5,7.01c-1.93,0-3.5-1.57-3.5-3.5S1.57,0,3.5,0s3.5,1.57,3.5,3.5-1.57,3.5-3.5,3.5ZM3.5,1c-1.38,0-2.5,1.12-2.5,2.5s1.12,2.5,2.5,2.5,2.5-1.12,2.5-2.5-1.12-2.5-2.5-2.5Z"/><path class="uuid-52c66192-2f75-4118-a89f-3cbf312a78a8" d="M10.52,14.01c-1.93,0-3.5-1.57-3.5-3.5s1.57-3.5,3.5-3.5,3.5,1.57,3.5,3.5-1.57,3.5-3.5,3.5ZM10.52,8c-1.38,0-2.5,1.12-2.5,2.5s1.12,2.5,2.5,2.5,2.5-1.12,2.5-2.5-1.12-2.5-2.5-2.5Z"/><path class="uuid-52c66192-2f75-4118-a89f-3cbf312a78a8" d="M17.5,21c-1.93,0-3.5-1.57-3.5-3.5s1.57-3.5,3.5-3.5,3.5,1.57,3.5,3.5-1.57,3.5-3.5,3.5ZM17.5,15c-1.38,0-2.5,1.12-2.5,2.5s1.12,2.5,2.5,2.5,2.5-1.12,2.5-2.5-1.12-2.5-2.5-2.5Z"/></g></g></svg>