<?xml version="1.0" encoding="UTF-8"?><svg id="uuid-15eb5b1a-c516-4390-9075-1d5d6c3285d6" xmlns="http://www.w3.org/2000/svg" viewBox="0 0 20.89 20.97"><defs><style>.uuid-4f769318-1252-442c-a531-fd8a6767e386{fill:#fff;stroke-width:0px;}</style></defs><g id="uuid-74f2ca69-f439-44e5-af5a-e59d5223d57b"><path class="uuid-4f769318-1252-442c-a531-fd8a6767e386" d="M13.61,20.97H2.5c-1.38,0-2.5-1.12-2.5-2.5V2.5C0,1.12,1.12,0,2.5,0h11.11c1.38,0,2.5,1.12,2.5,2.5v2.14c0,.28-.22.5-.5.5s-.5-.22-.5-.5v-2.14c0-.83-.67-1.5-1.5-1.5H2.5c-.83,0-1.5.67-1.5,1.5v15.97c0,.83.67,1.5,1.5,1.5h11.11c.83,0,1.5-.67,1.5-1.5v-2.31c0-.28.22-.5.5-.5s.5.22.5.5v2.31c0,1.38-1.12,2.5-2.5,2.5Z"/><path class="uuid-4f769318-1252-442c-a531-fd8a6767e386" d="M7.49,3.95H3.45c-.28,0-.5-.22-.5-.5s.22-.5.5-.5h4.05c.28,0,.5.22.5.5s-.22.5-.5.5Z"/><path class="uuid-4f769318-1252-442c-a531-fd8a6767e386" d="M10.74,7.47H3.45c-.28,0-.5-.22-.5-.5s.22-.5.5-.5h7.29c.28,0,.5.22.5.5s-.22.5-.5.5Z"/><path class="uuid-4f769318-1252-442c-a531-fd8a6767e386" d="M10.77,10.99H3.45c-.28,0-.5-.22-.5-.5s.22-.5.5-.5h7.32c.28,0,.5.22.5.5s-.22.5-.5.5Z"/><path class="uuid-4f769318-1252-442c-a531-fd8a6767e386" d="M12.16,14.51H3.45c-.28,0-.5-.22-.5-.5s.22-.5.5-.5h8.72c.28,0,.5.22.5.5s-.22.5-.5.5Z"/><path class="uuid-4f769318-1252-442c-a531-fd8a6767e386" d="M7.66,18.03H3.45c-.28,0-.5-.22-.5-.5s.22-.5.5-.5h4.21c.28,0,.5.22.5.5s-.22.5-.5.5Z"/><g id="uuid-a9e08992-3375-4331-93ce-ca981813ad7c"><path class="uuid-4f769318-1252-442c-a531-fd8a6767e386" d="M15.61,16.65c-.09,0-.18-.03-.26-.08l-2.01-1.26c-1.88-1.17-3-3.19-3-5.4v-3.71c0-.22.14-.41.34-.47l4.77-1.57c.1-.03.21-.03.31,0l4.77,1.57c.21.07.34.26.34.47v3.71c0,2.21-1.12,4.23-3,5.4l-2.01,1.26c-.08.05-.17.08-.26.08ZM11.34,6.57v3.35c0,1.87.94,3.57,2.53,4.56l1.75,1.09,1.75-1.09c1.58-.99,2.53-2.69,2.53-4.56v-3.35l-4.27-1.41-4.27,1.41Z"/><path class="uuid-4f769318-1252-442c-a531-fd8a6767e386" d="M15.61,13.99c-.09,0-.18-.03-.26-.08l-1.08-.68c-1.08-.67-1.72-1.83-1.72-3.1v-1.99c0-.22.14-.41.34-.48l2.57-.85c.1-.03.21-.03.31,0l2.57.85c.21.07.34.26.34.48v1.99c0,1.27-.64,2.43-1.72,3.1l-1.08.68c-.08.05-.17.08-.26.08ZM13.54,8.51v1.63c0,.92.47,1.77,1.25,2.25l.82.51.82-.51c.78-.49,1.25-1.33,1.25-2.25v-1.63l-2.07-.68-2.07.68Z"/></g></g></svg>