<?xml version="1.0" encoding="UTF-8"?><svg id="uuid-3859d790-6833-486a-8a72-f6f74de06844" xmlns="http://www.w3.org/2000/svg" viewBox="0 0 21 21"><defs><style>.uuid-8709f7d6-3a43-4f1d-847e-919da8ceb882{fill:#fff;stroke-width:0px;}</style></defs><g id="uuid-55177b64-f50d-4287-9b30-764863614a59"><g id="uuid-38e73e2c-da98-4027-bf32-025d3342e51a"><path class="uuid-8709f7d6-3a43-4f1d-847e-919da8ceb882" d="M10.48,13.41c-1.62,0-2.94-1.32-2.94-2.94s1.32-2.94,2.94-2.94,2.94,1.32,2.94,2.94-1.32,2.94-2.94,2.94ZM10.48,8.54c-1.07,0-1.94.87-1.94,1.94s.87,1.94,1.94,1.94,1.94-.87,1.94-1.94-.87-1.94-1.94-1.94Z"/><path class="uuid-8709f7d6-3a43-4f1d-847e-919da8ceb882" d="M10.48,5.88c-1.62,0-2.94-1.32-2.94-2.94s1.32-2.94,2.94-2.94,2.94,1.32,2.94,2.94-1.32,2.94-2.94,2.94ZM10.48,1c-1.07,0-1.94.87-1.94,1.94s.87,1.94,1.94,1.94,1.94-.87,1.94-1.94-.87-1.94-1.94-1.94Z"/><path class="uuid-8709f7d6-3a43-4f1d-847e-919da8ceb882" d="M5.6,21c-1.62,0-2.94-1.32-2.94-2.94s1.32-2.94,2.94-2.94,2.94,1.32,2.94,2.94-1.32,2.94-2.94,2.94ZM5.6,16.12c-1.07,0-1.94.87-1.94,1.94s.87,1.94,1.94,1.94,1.94-.87,1.94-1.94-.87-1.94-1.94-1.94Z"/><path class="uuid-8709f7d6-3a43-4f1d-847e-919da8ceb882" d="M15.35,21c-1.62,0-2.94-1.32-2.94-2.94s1.32-2.94,2.94-2.94,2.94,1.32,2.94,2.94-1.32,2.94-2.94,2.94ZM15.35,16.12c-1.07,0-1.94.87-1.94,1.94s.87,1.94,1.94,1.94,1.94-.87,1.94-1.94-.87-1.94-1.94-1.94Z"/><path class="uuid-8709f7d6-3a43-4f1d-847e-919da8ceb882" d="M18.06,11.66c-1.62,0-2.94-1.32-2.94-2.94s1.32-2.94,2.94-2.94,2.94,1.32,2.94,2.94-1.32,2.94-2.94,2.94ZM18.06,6.79c-1.07,0-1.94.87-1.94,1.94s.87,1.94,1.94,1.94,1.94-.87,1.94-1.94-.87-1.94-1.94-1.94Z"/><path class="uuid-8709f7d6-3a43-4f1d-847e-919da8ceb882" d="M2.94,11.66c-1.62,0-2.94-1.32-2.94-2.94s1.32-2.94,2.94-2.94,2.94,1.32,2.94,2.94-1.32,2.94-2.94,2.94ZM2.94,6.79c-1.07,0-1.94.87-1.94,1.94s.87,1.94,1.94,1.94,1.94-.87,1.94-1.94-.87-1.94-1.94-1.94Z"/><rect class="uuid-8709f7d6-3a43-4f1d-847e-919da8ceb882" x="10" y="5.37" width="1" height="2.67"/><rect class="uuid-8709f7d6-3a43-4f1d-847e-919da8ceb882" x="6.2" y="8.19" width="1" height="2.86" transform="translate(-4.22 13.9) rotate(-76.56)"/><rect class="uuid-8709f7d6-3a43-4f1d-847e-919da8ceb882" x="6" y="13.79" width="4.14" height="1" transform="translate(-8.3 13.2) rotate(-56.71)"/><rect class="uuid-8709f7d6-3a43-4f1d-847e-919da8ceb882" x="12.42" y="12.19" width="1" height="4.14" transform="translate(-5.65 9.21) rotate(-32.6)"/><rect class="uuid-8709f7d6-3a43-4f1d-847e-919da8ceb882" x="12.82" y="9.14" width="2.91" height="1" transform="translate(-1.86 3.62) rotate(-13.59)"/></g></g></svg>