<?xml version="1.0" encoding="UTF-8"?><svg id="uuid-45abb9c3-2ed9-49b5-bae3-ac6db7d6deec" xmlns="http://www.w3.org/2000/svg" viewBox="0 0 21 21.02"><defs><style>.uuid-44ad6d65-a784-4333-8e78-c031385946c2{fill:#fff;stroke-width:0px;}</style></defs><g id="uuid-38b4dea1-6f7b-405b-ac4a-87a24e0f2d72"><path class="uuid-44ad6d65-a784-4333-8e78-c031385946c2" d="M10.5,11.04c-.09,0-.17-.02-.25-.07l-4.35-2.51c-.15-.09-.25-.25-.25-.43V3.01c0-.18.1-.34.25-.43L10.25.07c.15-.09.35-.09.5,0l4.35,2.51c.15.09.25.25.25.43v5.02c0,.18-.1.34-.25.43l-4.35,2.51c-.08.04-.16.07-.25.07ZM6.65,7.74l3.85,2.22,3.85-2.22V3.3l-3.85-2.22-3.85,2.22v4.45ZM14.85,8.03h0,0Z"/><path class="uuid-44ad6d65-a784-4333-8e78-c031385946c2" d="M10.5,6.02c-.08,0-.17-.02-.25-.07l-4.35-2.51c-.24-.14-.32-.44-.18-.68.14-.24.44-.32.68-.18l4.35,2.51c.24.14.32.44.18.68-.09.16-.26.25-.43.25Z"/><path class="uuid-44ad6d65-a784-4333-8e78-c031385946c2" d="M10.5,11.04c-.28,0-.5-.22-.5-.5v-5.02c0-.28.22-.5.5-.5s.5.22.5.5v5.02c0,.28-.22.5-.5.5Z"/><path class="uuid-44ad6d65-a784-4333-8e78-c031385946c2" d="M10.5,6.02c-.17,0-.34-.09-.43-.25-.14-.24-.06-.54.18-.68l4.35-2.51c.24-.14.54-.06.68.18.14.24.06.54-.18.68l-4.35,2.51c-.08.05-.16.07-.25.07Z"/><path class="uuid-44ad6d65-a784-4333-8e78-c031385946c2" d="M4.85,21.02c-.09,0-.17-.02-.25-.07L.25,18.44C.1,18.35,0,18.19,0,18.01v-5.02c0-.18.1-.34.25-.43l4.35-2.51c.15-.09.35-.09.5,0l4.35,2.51c.15.09.25.25.25.43v5.02c0,.18-.1.34-.25.43l-4.35,2.51c-.08.04-.16.07-.25.07ZM1,17.72l3.85,2.22,3.85-2.22v-4.45l-3.85-2.22-3.85,2.22v4.45ZM9.2,18.01h0,0Z"/><path class="uuid-44ad6d65-a784-4333-8e78-c031385946c2" d="M4.85,16c-.08,0-.17-.02-.25-.07L.25,13.42c-.24-.14-.32-.44-.18-.68s.44-.32.68-.18l4.35,2.51c.24.14.32.44.18.68-.09.16-.26.25-.43.25Z"/><path class="uuid-44ad6d65-a784-4333-8e78-c031385946c2" d="M4.85,21.02c-.28,0-.5-.22-.5-.5v-5.02c0-.28.22-.5.5-.5s.5.22.5.5v5.02c0,.28-.22.5-.5.5Z"/><path class="uuid-44ad6d65-a784-4333-8e78-c031385946c2" d="M4.85,16c-.17,0-.34-.09-.43-.25-.14-.24-.06-.54.18-.68l4.35-2.51c.24-.14.54-.06.68.18.14.24.06.54-.18.68l-4.35,2.51c-.08.05-.16.07-.25.07Z"/><path class="uuid-44ad6d65-a784-4333-8e78-c031385946c2" d="M16.15,21.02c-.09,0-.17-.02-.25-.07l-4.35-2.51c-.15-.09-.25-.25-.25-.43v-5.02c0-.18.1-.34.25-.43l4.35-2.51c.15-.09.35-.09.5,0l4.35,2.51c.15.09.25.25.25.43v5.02c0,.18-.1.34-.25.43l-4.35,2.51c-.08.04-.16.07-.25.07ZM12.3,17.72l3.85,2.22,3.85-2.22v-4.45l-3.85-2.22-3.85,2.22v4.45ZM20.5,18.01h0,0Z"/><path class="uuid-44ad6d65-a784-4333-8e78-c031385946c2" d="M16.15,16c-.08,0-.17-.02-.25-.07l-4.35-2.51c-.24-.14-.32-.44-.18-.68s.44-.32.68-.18l4.35,2.51c.24.14.32.44.18.68-.09.16-.26.25-.43.25Z"/><path class="uuid-44ad6d65-a784-4333-8e78-c031385946c2" d="M16.15,21.02c-.28,0-.5-.22-.5-.5v-5.02c0-.28.22-.5.5-.5s.5.22.5.5v5.02c0,.28-.22.5-.5.5Z"/><path class="uuid-44ad6d65-a784-4333-8e78-c031385946c2" d="M16.15,16c-.17,0-.34-.09-.43-.25-.14-.24-.06-.54.18-.68l4.35-2.51c.24-.14.54-.06.68.18.14.24.06.54-.18.68l-4.35,2.51c-.08.05-.16.07-.25.07Z"/></g></svg>