<?xml version="1.0" encoding="UTF-8"?><svg id="uuid-3c0d5966-9a69-476e-badc-27add82efa3e" xmlns="http://www.w3.org/2000/svg" viewBox="0 0 21 18.38"><defs><style>.uuid-0756aab8-f132-4639-9946-59dc68aac5d2{fill:#fff;stroke-width:0px;}</style></defs><g id="uuid-e1cd3e48-8819-4439-9143-040da30d3fbd"><g id="uuid-a25b22cf-9d06-4e29-84cd-6881b2fded37"><path class="uuid-0756aab8-f132-4639-9946-59dc68aac5d2" d="M12.63,7.99h-4.26c-1.31,0-2.37-1.06-2.37-2.37v-3.25c0-1.31,1.06-2.37,2.37-2.37h4.26c1.31,0,2.37,1.06,2.37,2.37v3.25c0,1.31-1.06,2.37-2.37,2.37ZM8.37,1c-.76,0-1.37.61-1.37,1.37v3.25c0,.76.61,1.37,1.37,1.37h4.26c.76,0,1.37-.61,1.37-1.37v-3.25c0-.76-.61-1.37-1.37-1.37h-4.26Z"/><path class="uuid-0756aab8-f132-4639-9946-59dc68aac5d2" d="M19.56,18.38h-3.13c-.79,0-1.44-.64-1.44-1.44v-2.5c0-.79.64-1.43,1.44-1.43h3.13c.79,0,1.44.64,1.44,1.43v2.5c0,.79-.64,1.44-1.44,1.44ZM16.43,14.01c-.24,0-.44.19-.44.43v2.5c0,.24.2.44.44.44h3.13c.24,0,.44-.2.44-.44v-2.5c0-.24-.2-.43-.44-.43h-3.13Z"/><path class="uuid-0756aab8-f132-4639-9946-59dc68aac5d2" d="M4.57,18.38H1.44c-.79,0-1.44-.64-1.44-1.44v-2.5c0-.79.64-1.43,1.44-1.43h3.13c.79,0,1.44.64,1.44,1.43v2.5c0,.79-.64,1.44-1.44,1.44ZM1.44,14.01c-.24,0-.44.19-.44.43v2.5c0,.24.2.44.44.44h3.13c.24,0,.44-.2.44-.44v-2.5c0-.24-.2-.43-.44-.43H1.44Z"/><path class="uuid-0756aab8-f132-4639-9946-59dc68aac5d2" d="M12.07,18.38h-3.13c-.79,0-1.44-.64-1.44-1.44v-2.5c0-.79.64-1.43,1.44-1.43h3.13c.79,0,1.44.64,1.44,1.43v2.5c0,.79-.64,1.44-1.44,1.44ZM8.93,14.01c-.24,0-.44.19-.44.43v2.5c0,.24.2.44.44.44h3.13c.24,0,.44-.2.44-.44v-2.5c0-.24-.2-.43-.44-.43h-3.13Z"/><path class="uuid-0756aab8-f132-4639-9946-59dc68aac5d2" d="M18,13.75c-.28,0-.5-.22-.5-.5v-2.25H3.5v2.25c0,.28-.22.5-.5.5s-.5-.22-.5-.5v-2.75c0-.28.22-.5.5-.5h15c.28,0,.5.22.5.5v2.75c0,.28-.22.5-.5.5Z"/><path class="uuid-0756aab8-f132-4639-9946-59dc68aac5d2" d="M10.5,14.01c-.28,0-.5-.22-.5-.5v-6.01c0-.28.22-.5.5-.5s.5.22.5.5v6.01c0,.28-.22.5-.5.5Z"/></g></g></svg>